<svg xmlns="http://www.w3.org/2000/svg" xmlns:xlink="http://www.w3.org/1999/xlink" viewBox="0 0 2798.69 2783.08"><defs><style>.cls-1{fill:none;}.cls-2{isolation:isolate;}.cls-3{fill:#f4f7fa;}.cls-4{fill:#d8dee8;}.cls-5,.cls-7{fill:#bfc8d6;}.cls-10,.cls-12,.cls-14,.cls-32,.cls-40,.cls-49,.cls-5,.cls-60{opacity:0.3;}.cls-10,.cls-14,.cls-32,.cls-40,.cls-49,.cls-5,.cls-60{mix-blend-mode:multiply;}.cls-6{fill:#eaedf3;}.cls-8{fill:url(#linear-gradient);}.cls-9{fill:url(#linear-gradient-2);}.cls-10{fill:url(#linear-gradient-3);}.cls-11{clip-path:url(#clip-path);}.cls-12{mix-blend-mode:soft-light;}.cls-13{fill:url(#linear-gradient-4);}.cls-14{fill:url(#linear-gradient-5);}.cls-15{fill:#abc;}.cls-16{fill:url(#linear-gradient-6);}.cls-17{fill:url(#linear-gradient-7);}.cls-18{fill:url(#linear-gradient-8);}.cls-19{fill:url(#linear-gradient-9);}.cls-20{fill:url(#linear-gradient-10);}.cls-21{fill:url(#linear-gradient-11);}.cls-22{fill:url(#linear-gradient-12);}.cls-23{fill:url(#linear-gradient-13);}.cls-24{fill:url(#linear-gradient-14);}.cls-25{fill:#26264f;}.cls-26{fill:url(#linear-gradient-15);}.cls-27{fill:url(#linear-gradient-16);}.cls-28{fill:#444b8c;}.cls-29{fill:url(#linear-gradient-17);}.cls-30{fill:url(#linear-gradient-18);}.cls-31{fill:url(#linear-gradient-19);}.cls-32{fill:url(#linear-gradient-20);}.cls-33{fill:url(#linear-gradient-21);}.cls-34{fill:url(#linear-gradient-22);}.cls-35,.cls-37,.cls-63{fill:#fff;}.cls-35{opacity:0.17;}.cls-36{fill:url(#linear-gradient-23);}.cls-37{opacity:0.2;}.cls-38{fill:url(#linear-gradient-24);}.cls-39{fill:url(#linear-gradient-25);}.cls-40{fill:url(#linear-gradient-26);}.cls-41{fill:url(#linear-gradient-27);}.cls-42{fill:url(#linear-gradient-28);}.cls-43{fill:url(#linear-gradient-29);}.cls-44{fill:url(#linear-gradient-30);}.cls-45{fill:url(#linear-gradient-31);}.cls-46{fill:url(#linear-gradient-32);}.cls-47{fill:url(#linear-gradient-33);}.cls-48{fill:url(#linear-gradient-34);}.cls-49{fill:url(#linear-gradient-35);}.cls-50{fill:url(#linear-gradient-36);}.cls-51{fill:url(#linear-gradient-37);}.cls-52{fill:url(#linear-gradient-38);}.cls-53{fill:url(#linear-gradient-39);}.cls-54{fill:url(#linear-gradient-40);}.cls-55{fill:url(#linear-gradient-41);}.cls-56{fill:url(#linear-gradient-42);}.cls-57{fill:url(#linear-gradient-43);}.cls-58{fill:url(#linear-gradient-44);}.cls-59{fill:url(#linear-gradient-45);}.cls-60{fill:url(#linear-gradient-46);}.cls-61{fill:url(#linear-gradient-47);}.cls-62{fill:url(#linear-gradient-48);}.cls-64{fill:url(#linear-gradient-49);}.cls-65{fill:url(#linear-gradient-50);}.cls-66{fill:url(#linear-gradient-51);}</style><linearGradient id="linear-gradient" x1="2139.15" y1="2615.4" x2="2027.91" y2="1683.07" gradientUnits="userSpaceOnUse"><stop offset="0" stop-color="#311944"/><stop offset="1" stop-color="#6b3976"/></linearGradient><linearGradient id="linear-gradient-2" x1="2097.56" y1="442.19" x2="1940.92" y2="2635.23" gradientUnits="userSpaceOnUse"><stop offset="0" stop-color="#e38ddd"/><stop offset="1" stop-color="#9571f6"/></linearGradient><linearGradient id="linear-gradient-3" x1="1932.84" y1="430.42" x2="1776.2" y2="2623.46" xlink:href="#linear-gradient-2"/><clipPath id="clip-path"><path class="cls-1" d="M1729.16,472c-7.29,58.14,8.55,75.51-5.35,106.53-25.53,57-100.53,46.44-183.67,85.74-105.61,49.92-204.05,170.65-203.52,281.17.49,101.08,83.39,119,85.69,243.69,1.56,84.27-36,94.52-29.45,171.38,7.13,83.79,60.57,174.91,141.92,219.58,105.54,58,226.55,20.45,313.06-6.36,124.91-38.71,139.46-84.26,211.8-76.65,101.81,10.7,107.47,104.55,214.23,131.21,114.72,28.65,268-39.83,313.3-141.92,37-83.3-20.83-137.46,28.29-225.74,37.7-67.76,81-52.53,125.88-119.83,59.52-89.32,48-213.44,11.7-297.75-49.21-114.28-149.75-168.88-164.36-176.54-75.86-39.84-116.76-23.47-159.5-71.86-48.78-55.23-16.34-100.13-64.27-147.28C2312.74,396,2256.27,431.46,2198,376.81c-45.75-42.9-24.17-77.14-62-112.71-75.49-71-273.39-39.84-353.64,69.74C1760.78,363.32,1736.44,413.85,1729.16,472Z"/></clipPath><linearGradient id="linear-gradient-4" x1="2205.99" y1="2142.61" x2="1969.81" y2="2607.52" gradientUnits="userSpaceOnUse"><stop offset="0" stop-color="#fcb148"/><stop offset="0.05" stop-color="#fdba46"/><stop offset="0.14" stop-color="#ffc244"/><stop offset="0.32" stop-color="#ffc444"/><stop offset="0.48" stop-color="#fdb946"/><stop offset="0.78" stop-color="#f99c4d"/><stop offset="0.87" stop-color="#f8924f"/><stop offset="1" stop-color="#f8924f"/></linearGradient><linearGradient id="linear-gradient-5" x1="2202.63" y1="2149.24" x2="1969.83" y2="2607.48" xlink:href="#linear-gradient-4"/><linearGradient id="linear-gradient-6" x1="3861.79" y1="2478.09" x2="4024.12" y2="2976.68" gradientTransform="matrix(-0.99, 0.12, 0.12, 0.99, 4949.94, 321.09)" gradientUnits="userSpaceOnUse"><stop offset="0" stop-color="#ffc444"/><stop offset="1" stop-color="#f36f56"/></linearGradient><linearGradient id="linear-gradient-7" x1="3919.89" y1="2459.24" x2="4082.22" y2="2957.84" gradientTransform="matrix(-0.99, 0.12, 0.12, 0.99, 4949.94, 321.09)" gradientUnits="userSpaceOnUse"><stop offset="0" stop-color="#893976"/><stop offset="1" stop-color="#311944"/></linearGradient><linearGradient id="linear-gradient-8" x1="-733.91" y1="2084.88" x2="-443.67" y2="2750.01" gradientTransform="matrix(0.78, 0.62, -0.62, 0.78, 3391.95, -123.28)" xlink:href="#linear-gradient-6"/><linearGradient id="linear-gradient-9" x1="-760.07" y1="1829.6" x2="-726.59" y2="1906.32" gradientTransform="matrix(0.78, 0.62, -0.62, 0.78, 3391.95, -123.28)" xlink:href="#linear-gradient-7"/><linearGradient id="linear-gradient-10" x1="3281.14" y1="1040.52" x2="3349.63" y2="1098.83" gradientTransform="matrix(-1, 0, 0, 1, 4757.62, 0)" gradientUnits="userSpaceOnUse"><stop offset="0" stop-color="#ab316d"/><stop offset="1" stop-color="#792d3d"/></linearGradient><linearGradient id="linear-gradient-11" x1="-540.22" y1="2186.84" x2="-471.73" y2="2245.15" gradientTransform="translate(3512.77 -441.57) rotate(33.31)" xlink:href="#linear-gradient-10"/><linearGradient id="linear-gradient-12" x1="2964.7" y1="1326.88" x2="3285.15" y2="2061.25" gradientTransform="matrix(-1, 0, 0, 1, 4757.62, 0)" gradientUnits="userSpaceOnUse"><stop offset="0" stop-color="#ff9085"/><stop offset="1" stop-color="#fb6fbb"/></linearGradient><linearGradient id="linear-gradient-13" x1="-2144.37" y1="2299.36" x2="-1823.93" y2="3033.7" gradientTransform="translate(4262.03 -56.84) rotate(22.11)" xlink:href="#linear-gradient-12"/><linearGradient id="linear-gradient-14" x1="2095.85" y1="2621.82" x2="2095.85" y2="2555.25" gradientTransform="matrix(-1, 0, 0, 1, 3441.85, 0)" xlink:href="#linear-gradient-10"/><linearGradient id="linear-gradient-15" x1="1785.51" y1="2651.23" x2="1785.51" y2="2574.78" gradientTransform="matrix(-1, 0, 0, 1, 3441.85, 0)" xlink:href="#linear-gradient-10"/><linearGradient id="linear-gradient-16" x1="-1342.09" y1="2686.29" x2="-1628.25" y2="1530.94" gradientTransform="translate(3002.72)" gradientUnits="userSpaceOnUse"><stop offset="0" stop-color="#444b8c"/><stop offset="1" stop-color="#26264f"/></linearGradient><linearGradient id="linear-gradient-17" x1="3095.64" y1="1326.15" x2="3366.02" y2="1945.77" xlink:href="#linear-gradient-12"/><linearGradient id="linear-gradient-18" x1="1968.7" y1="1281.79" x2="1898.79" y2="1394.9" gradientTransform="matrix(-1, 0, 0, 1, 3441.85, 0)" xlink:href="#linear-gradient-10"/><linearGradient id="linear-gradient-19" x1="1340.65" y1="1094.3" x2="1272.99" y2="1203.75" gradientTransform="matrix(-0.97, -0.24, -0.24, 0.97, 3059.27, 519.68)" xlink:href="#linear-gradient-10"/><linearGradient id="linear-gradient-20" x1="2799.89" y1="1627.26" x2="3337.09" y2="1627.26" xlink:href="#linear-gradient-12"/><linearGradient id="linear-gradient-21" x1="854.44" y1="1430.42" x2="865.45" y2="1430.42" gradientTransform="translate(-19.33 16.81) rotate(-0.13)" xlink:href="#linear-gradient"/><linearGradient id="linear-gradient-22" x1="731.69" y1="1182.02" x2="879.52" y2="1480.1" gradientTransform="translate(-19.33 16.81) rotate(-0.13)" gradientUnits="userSpaceOnUse"><stop offset="0" stop-color="#aa80f9"/><stop offset="1" stop-color="#6165d7"/></linearGradient><linearGradient id="linear-gradient-23" x1="957.36" y1="633.65" x2="1080.39" y2="633.65" gradientTransform="translate(202.35 344.45) rotate(21.67)" xlink:href="#linear-gradient-22"/><linearGradient id="linear-gradient-24" x1="839.71" y1="1492.97" x2="860.27" y2="2048.01" gradientTransform="matrix(1, 0, 0, 1, 0, 0)" xlink:href="#linear-gradient-12"/><linearGradient id="linear-gradient-25" x1="839.7" y1="1492.62" x2="860.23" y2="2046.76" gradientTransform="matrix(1, 0, 0, 1, 0, 0)" xlink:href="#linear-gradient-12"/><linearGradient id="linear-gradient-26" x1="805.31" y1="1639.58" x2="790.6" y2="1860.23" gradientTransform="matrix(1, 0, 0, 1, 0, 0)" xlink:href="#linear-gradient-12"/><linearGradient id="linear-gradient-27" x1="69.9" y1="1643.33" x2="179.69" y2="1643.33" xlink:href="#linear-gradient-2"/><linearGradient id="linear-gradient-28" x1="144.82" y1="1649.12" x2="194.93" y2="1649.12" xlink:href="#linear-gradient-2"/><linearGradient id="linear-gradient-29" x1="303.21" y1="1609.02" x2="413" y2="1609.02" xlink:href="#linear-gradient-2"/><linearGradient id="linear-gradient-30" x1="375.17" y1="1615.17" x2="425.28" y2="1615.17" xlink:href="#linear-gradient-2"/><linearGradient id="linear-gradient-31" x1="528.45" y1="1595.53" x2="549.58" y2="1840.46" gradientUnits="userSpaceOnUse"><stop offset="0" stop-color="#444b8c"/><stop offset="0.6" stop-color="#323567"/><stop offset="1" stop-color="#26264f"/></linearGradient><linearGradient id="linear-gradient-32" x1="1239.53" y1="2004.97" x2="1247.56" y2="2098.09" xlink:href="#linear-gradient-31"/><linearGradient id="linear-gradient-33" x1="837.33" y1="1970.25" x2="747.78" y2="5611.67" xlink:href="#linear-gradient-2"/><linearGradient id="linear-gradient-34" x1="1021.67" y1="1653.18" x2="1050.21" y2="1983.93" xlink:href="#linear-gradient-2"/><linearGradient id="linear-gradient-35" x1="1030.95" y1="1693.23" x2="1055.53" y2="1978.06" xlink:href="#linear-gradient-2"/><linearGradient id="linear-gradient-36" x1="4056.12" y1="2087.84" x2="4278.91" y2="2087.84" gradientTransform="translate(-3077.6)" xlink:href="#linear-gradient"/><linearGradient id="linear-gradient-37" x1="4009.19" y1="2087.84" x2="4231.99" y2="2087.84" gradientTransform="translate(-3077.6)" xlink:href="#linear-gradient"/><linearGradient id="linear-gradient-38" x1="4226.21" y1="2102.89" x2="4052.24" y2="2079.47" gradientTransform="translate(-3077.6)" gradientUnits="userSpaceOnUse"><stop offset="0.01" stop-color="#d8dee8"/><stop offset="1" stop-color="#f4f7fa"/></linearGradient><linearGradient id="linear-gradient-39" x1="368.4" y1="1711.95" x2="1311.92" y2="1711.95" gradientTransform="matrix(1, 0, 0, 1, 0, 0)" xlink:href="#linear-gradient-16"/><linearGradient id="linear-gradient-40" x1="1033.45" y1="1734.74" x2="1018.28" y2="2351.39" xlink:href="#linear-gradient-31"/><linearGradient id="linear-gradient-41" x1="723.8" y1="1587.97" x2="775.95" y2="2192.4" xlink:href="#linear-gradient-31"/><linearGradient id="linear-gradient-42" x1="-4301.43" y1="1423.39" x2="-3875.53" y2="1972.71" gradientTransform="translate(6779.37 2781.04) rotate(28.87)" xlink:href="#linear-gradient-22"/><linearGradient id="linear-gradient-43" x1="-4470.55" y1="1554.53" x2="-4044.5" y2="2104.04" gradientTransform="translate(6779.37 2781.04) rotate(28.87)" xlink:href="#linear-gradient-22"/><linearGradient id="linear-gradient-44" x1="-4557.31" y1="1642.06" x2="-4157.05" y2="2158.3" gradientTransform="translate(6779.37 2781.04) rotate(28.87)" xlink:href="#linear-gradient-22"/><linearGradient id="linear-gradient-45" x1="-4180.25" y1="1483.19" x2="-4046.32" y2="1701.25" gradientTransform="translate(6779.37 2781.04) rotate(28.87)" xlink:href="#linear-gradient"/><linearGradient id="linear-gradient-46" x1="-4301.43" y1="1423.39" x2="-3875.53" y2="1972.71" gradientTransform="translate(6779.37 2781.04) rotate(28.87)" xlink:href="#linear-gradient-22"/><linearGradient id="linear-gradient-47" x1="-4093.02" y1="1612.25" x2="-4086.97" y2="1647.96" gradientTransform="translate(6779.37 2781.04) rotate(28.87)" xlink:href="#linear-gradient-22"/><linearGradient id="linear-gradient-48" x1="-4114.4" y1="1442.74" x2="-3980.47" y2="1660.8" gradientTransform="translate(6779.37 2781.04) rotate(28.87)" xlink:href="#linear-gradient"/><linearGradient id="linear-gradient-49" x1="-2624.72" y1="-4334.33" x2="-2520.47" y2="-4334.33" gradientTransform="matrix(-1, -0.07, 0.07, -1, -665.66, -4018.49)" xlink:href="#linear-gradient-2"/><linearGradient id="linear-gradient-50" x1="-2351.06" y1="-4803.67" x2="-2294.39" y2="-4803.67" gradientTransform="matrix(-0.98, 0.21, -0.21, -0.98, -1689.4, -3662.96)" xlink:href="#linear-gradient-2"/><linearGradient id="linear-gradient-51" x1="-2913.27" y1="-2363.76" x2="-2809.01" y2="-2363.76" gradientTransform="matrix(-0.23, -0.6, 0.93, -0.36, 3254.72, -2235.95)" xlink:href="#linear-gradient-2"/></defs><title>Asset 1</title><g class="cls-2"><g id="Layer_2" data-name="Layer 2"><g id="Illustration"><path class="cls-3" d="M2757.53,1188.74C2681.67,692.22,2370.65,82.2,1756.21,18.36c0,0-466.51-56.74-926.4,29.26-272.94,51-512.26,203-663.7,421.36s-202,484.66-140.63,738.53c39.87,164.89,66.82,335.54,59.42,505-12.87,294.88-5.47,570.13,280.71,746,255.52,157,577.1,295.51,883.89,319.77,208.49,16.49,442.31-10.19,643.25-64.47C2916.83,2437.13,2833.38,1685.26,2757.53,1188.74Z"/><path class="cls-4" d="M292.91,766.16V1363.7H63V766.16a25.49,25.49,0,0,1,6.83-17L148.8,665.4l18-19c6.57-7,16.28-7,22.85,0l96.75,102.67A25.26,25.26,0,0,1,292.91,766.16Z"/><path class="cls-4" d="M550.85,749.12,454.39,646.44c-6.58-7-16.21-7-22.79,0L334.32,749.12a25.69,25.69,0,0,0-7.1,17V1363.7H557.1V766.15A25.06,25.06,0,0,0,550.85,749.12Z"/><path class="cls-4" d="M817,749.12,719.81,646.44c-6.58-7-16.57-7-23.15,0l-96,102.68c-4,4.24-5.81,10.47-5.81,17V1363.7H824.72V766.15C824.72,759.59,821,753.36,817,749.12Z"/><path class="cls-4" d="M1079.72,749.12l-96.2-102.68c-6.58-7-16.08-7-22.66,0l-96,102.68c-4,4.24-5.82,10.47-5.82,17V1363.7h226.44V766.15C1085.47,759.59,1083.7,753.36,1079.72,749.12Z"/><path class="cls-4" d="M1342.45,749.12l-95.22-102.68c-6.58-7-15.59-7-22.17,0l-97.74,102.68c-4,4.24-7.54,10.47-7.54,17V1363.7h226.45V766.15C1346.23,759.59,1346.43,753.36,1342.45,749.12Z"/><path class="cls-4" d="M1610.32,749.12l-96.81-102.68c-6.58-7-16.38-7-23,0l-98.39,102.68c-4,4.24-8.19,10.47-8.19,17V1363.7h233.3V766.15A25.56,25.56,0,0,0,1610.32,749.12Z"/><path class="cls-4" d="M1873,749.12l-95.82-102.68c-6.58-7-15.89-7-22.47,0l-98.4,102.68c-4,4.24-8.2,10.47-8.2,17V1363.7H1878V766.15C1878,759.59,1877,753.36,1873,749.12Z"/><path class="cls-5" d="M177.79,1363.7H63V766.16a25.49,25.49,0,0,1,6.83-17L148.8,665.4c-8.17,47.15-12,115.57,19.21,162.66,52,78.36,74.1,211.84-12.35,325.39C97.58,1229.71,127.17,1308.81,177.79,1363.7Z"/><path class="cls-5" d="M441.55,1363.7H327.22V766.16a25.32,25.32,0,0,1,6.62-17l78.82-83.71C404.5,712.55,400.6,781,431.82,828.06c52,78.36,74.07,211.84-12.38,325.39C361.36,1229.71,390.93,1308.81,441.55,1363.7Z"/><path class="cls-5" d="M707.84,1363.7h-113V766.16c0-6.59,2-12.79,5.95-17l78.49-83.71c-8.16,47.15-12.22,115.57,19,162.66,52,78.36,74,211.84-12.47,325.39C627.74,1229.71,657.22,1308.81,707.84,1363.7Z"/><path class="cls-5" d="M971.59,1363.7H859V766.16c0-6.59,1.75-12.79,5.73-17l78.39-83.71C935,712.55,930.87,781,962.09,828.06c52,78.36,74,211.84-12.5,325.39C891.52,1229.71,921,1308.81,971.59,1363.7Z"/><path class="cls-5" d="M1235.35,1363.7H1119.78V766.16c0-6.59,3.26-12.79,7.24-17l79.13-83.71c-8.17,47.15-11.9,115.57,19.32,162.66,52,78.36,74.15,211.84-12.31,325.39C1155.08,1229.71,1184.73,1308.81,1235.35,1363.7Z"/><path class="cls-5" d="M1501.64,1363.7H1384V766.16c0-6.59,4.31-12.79,8.29-17l79.65-83.71c-8.16,47.15-11.64,115.57,19.58,162.66,52,78.36,74.28,211.84-12.17,325.39C1421.24,1229.71,1451,1308.81,1501.64,1363.7Z"/><path class="cls-5" d="M1765.39,1363.7H1648.15V766.16c0-6.59,4.1-12.79,8.08-17l79.55-83.71c-8.17,47.15-11.7,115.57,19.52,162.66,52,78.36,74.26,211.84-12.2,325.39C1685,1229.71,1714.77,1308.81,1765.39,1363.7Z"/><rect class="cls-6" x="21.87" y="855.92" width="1904.2" height="75.48"/><rect class="cls-6" x="21.87" y="1243.62" width="1904.2" height="78.91"/><ellipse class="cls-7" cx="97.3" cy="894.23" rx="12.84" ry="16.19"/><ellipse class="cls-7" cx="249.47" cy="894.23" rx="12.84" ry="16.19"/><ellipse class="cls-7" cx="97.3" cy="1281.27" rx="12.84" ry="16.19"/><ellipse class="cls-7" cx="249.47" cy="1281.27" rx="12.84" ry="16.19"/><ellipse class="cls-7" cx="366.13" cy="894.23" rx="12.84" ry="16.19"/><ellipse class="cls-7" cx="518.3" cy="894.23" rx="12.84" ry="16.19"/><ellipse class="cls-7" cx="366.13" cy="1281.27" rx="12.84" ry="16.19"/><ellipse class="cls-7" cx="518.3" cy="1281.27" rx="12.84" ry="16.19"/><ellipse class="cls-7" cx="632.42" cy="894.23" rx="12.84" ry="16.19"/><ellipse class="cls-7" cx="784.59" cy="894.23" rx="12.84" ry="16.19"/><ellipse class="cls-7" cx="632.42" cy="1281.27" rx="12.84" ry="16.19"/><ellipse class="cls-7" cx="784.59" cy="1281.27" rx="12.84" ry="16.19"/><ellipse class="cls-7" cx="896.17" cy="894.23" rx="12.84" ry="16.19"/><ellipse class="cls-7" cx="1048.34" cy="894.23" rx="12.84" ry="16.19"/><ellipse class="cls-7" cx="896.17" cy="1281.27" rx="12.84" ry="16.19"/><ellipse class="cls-7" cx="1048.34" cy="1281.27" rx="12.84" ry="16.19"/><ellipse class="cls-7" cx="1159.93" cy="894.23" rx="12.84" ry="16.19"/><ellipse class="cls-7" cx="1312.09" cy="894.23" rx="12.84" ry="16.19"/><ellipse class="cls-7" cx="1159.93" cy="1281.27" rx="12.84" ry="16.19"/><ellipse class="cls-7" cx="1312.09" cy="1281.27" rx="12.84" ry="16.19"/><ellipse class="cls-7" cx="1426.22" cy="894.23" rx="12.84" ry="16.19"/><ellipse class="cls-7" cx="1578.39" cy="894.23" rx="12.84" ry="16.19"/><ellipse class="cls-7" cx="1426.22" cy="1281.27" rx="12.84" ry="16.19"/><ellipse class="cls-7" cx="1578.39" cy="1281.27" rx="12.84" ry="16.19"/><ellipse class="cls-7" cx="1689.97" cy="894.23" rx="12.84" ry="16.19"/><ellipse class="cls-7" cx="1842.14" cy="894.23" rx="12.84" ry="16.19"/><ellipse class="cls-7" cx="1689.97" cy="1281.27" rx="12.84" ry="16.19"/><ellipse class="cls-7" cx="1842.14" cy="1281.27" rx="12.84" ry="16.19"/><path class="cls-8" d="M2045.67,2335.09a14.21,14.21,0,0,1-14.21-14.21v-978a14.21,14.21,0,1,1,28.41,0v978A14.21,14.21,0,0,1,2045.67,2335.09Z"/><path class="cls-9" d="M1729.16,472c-7.29,58.14,8.55,75.51-5.35,106.53-25.53,57-100.53,46.44-183.67,85.74-105.61,49.92-204.05,170.65-203.52,281.17.49,101.08,83.39,119,85.69,243.69,1.56,84.27-36,94.52-29.45,171.38,7.13,83.79,60.57,174.91,141.92,219.58,105.54,58,226.55,20.45,313.06-6.36,124.91-38.71,139.46-84.26,211.8-76.65,101.81,10.7,107.47,104.55,214.23,131.21,114.72,28.65,268-39.83,313.3-141.92,37-83.3-20.83-137.46,28.29-225.74,37.7-67.76,81-52.53,125.88-119.83,59.52-89.32,48-213.44,11.7-297.75-49.21-114.28-149.75-168.88-164.36-176.54-75.86-39.84-116.76-23.47-159.5-71.86-48.78-55.23-16.34-100.13-64.27-147.28C2312.74,396,2256.27,431.46,2198,376.81c-45.75-42.9-24.17-77.14-62-112.71-75.49-71-273.39-39.84-353.64,69.74C1760.78,363.32,1736.44,413.85,1729.16,472Z"/><path class="cls-10" d="M2340.81,1572c-55.53-64.06-36.14-119.75-100.42-176.74-64-56.8-149.52-60.21-215.2-62.84-148.63-5.94-181.18,51.1-258.77,26.69-97.67-30.73-187.29-165.52-168.71-277.16,31.58-189.69,356.85-199.87,377.58-377.57,13.42-115-116.9-162-112.47-297.24,2.1-64.05,33.58-121.5,78.34-171.61-62.18,15.29-122.52,48.74-158.79,98.28-21.59,29.48-45.93,80-53.21,138.13s8.55,75.51-5.35,106.53c-25.53,57-100.53,46.44-183.67,85.74-105.61,49.92-204.05,170.65-203.52,281.17.49,101.08,83.39,119,85.69,243.69,1.56,84.27-36,94.52-29.45,171.38,7.13,83.79,60.57,174.91,141.92,219.58,105.54,58,226.55,20.45,313.06-6.36,124.91-38.71,139.46-84.26,211.8-76.65,101.81,10.7,107.47,104.55,214.23,131.21,41.81,10.44,88.74,7.93,133.71-4.36C2377.56,1608.23,2356.27,1589.85,2340.81,1572Z"/><g class="cls-11"><g class="cls-12"><path class="cls-3" d="M2021,1560.16c-20.12-262-94-433.09-219.48-508.56-46.82-28.15-96.69-40.94-144.93-53.3-73.36-18.81-142.66-36.57-201-103.76-49.89-57.47-77.09-134.93-80.83-230.22l4.08-.16c3.71,94.34,30.57,171,79.84,227.69,57.5,66.23,126.2,83.84,198.93,102.49,48.52,12.43,98.69,25.29,146,53.75,126.72,76.19,201.22,248.37,221.45,511.75Z"/><path class="cls-3" d="M1948.72,1585.41l-3.1-2.67c122.75-142.56,174-270.36,152.18-379.86-8-40-22.46-63-37.81-87.27-17.14-27.12-34.87-55.18-46.53-109.52-17.69-82.4-1.56-134.73,14-185.33,15-48.54,29.09-94.38,14.07-164.12-13.85-64.32-42.07-99.57-69.36-133.65-27.82-34.74-54.08-67.54-63.21-127.57-13-85.71,16.82-178.12,88.75-274.66l3.28,2.44c-71.25,95.63-100.85,187-88,271.61,9,58.94,34.9,91.33,62.36,125.62,27.59,34.46,56.12,70.08,70.17,135.35,15.24,70.78,1,117.12-14.16,166.19-15.45,50.1-31.41,101.9-14,183.26,11.5,53.63,29,81.37,46,108.2,15.56,24.62,30.25,47.87,38.36,88.65C2123.84,1312.88,2072.33,1441.85,1948.72,1585.41Z"/><path class="cls-3" d="M1501.37,1446c-58.59,0-125.38-66.63-198.67-198.29l3.58-2c75.85,136.27,144.11,202.14,202.84,195.79,42.64-4.62,68.46-44.44,98.37-90.54,32.06-49.44,68.4-105.47,134.21-126.28,64.83-20.51,142.27-1.92,230.16,55.24l-2.23,3.43c-86.82-56.46-163.09-74.89-226.7-54.77-64.41,20.37-100.32,75.75-132,124.61-30.47,47-56.79,87.55-101.36,92.37A74.38,74.38,0,0,1,1501.37,1446Z"/><path class="cls-3" d="M2072.59,1396.3l-.23-4.08c137-7.71,221.29-42.12,250.55-102.26,22.62-46.51,5.64-95.54-10.79-143-17.13-49.46-34.84-100.6-9.28-150.31,25.41-49.39,75-62.58,127.56-76.55,49.82-13.25,101.34-27,137.77-72.41,55.76-69.56,52.95-189.17-8.36-355.5l3.84-1.42c61.84,167.78,64.43,288.73,7.71,359.48-37.27,46.5-89.45,60.38-139.91,73.8-51.63,13.73-100.39,26.7-125,74.48-24.76,48.14-7.34,98.45,9.51,147.09,16.7,48.21,34,98.06,10.6,146.09C2296.63,1353.32,2211.18,1388.5,2072.59,1396.3Z"/><path class="cls-3" d="M2349.86,953l-3.7-1.74c38.4-81.45,46.77-153.46,24.86-214-22-60.86-67.3-91.83-111.11-121.78-38.85-26.56-75.54-51.65-89.74-95.19-26.23-80.35,37.48-191.89,189.34-331.51l2.77,3C2211.7,330.21,2148.37,440.3,2174.05,519c13.78,42.22,49.92,66.93,88.17,93.08,44.34,30.32,90.19,61.66,112.65,123.77C2397.16,797.48,2388.75,870.54,2349.86,953Z"/></g></g><path class="cls-13" d="M2150.4,2498.43c-132.59,9.63-574.54,9.63-395.65-61.53,0,0,70.46-53.7,153.76-89.93,5-2.17,10-4.29,15.15-6.32l0,0c54.34-21.76,112.55-34.52,159.36-19.52,124.16,39.8,94.7,35,242,91.66,28.87,11.1,44.78,20.8,50.76,29.24C2400.34,2476.67,2257,2490.69,2150.4,2498.43Z"/><path class="cls-14" d="M2150.4,2498.43c-132.59,9.63-574.54,9.63-395.65-61.53,0,0,70.46-53.7,153.76-89.93l15.15-6.32c-2.74,1.95-120.55,86.07-34.22,92.63,87.34,6.63,108.38,82.62,241,28.34,124.59-51,196.23-.82,245.43-19.61C2400.34,2476.67,2257,2490.69,2150.4,2498.43Z"/><path class="cls-7" d="M1651.62,577.78l41.69,173.75a25.18,25.18,0,0,0,13.51,16.77l76.43,36.83a9.79,9.79,0,0,1,5.49,7.62l8.7,69.7,45.35-5.65-11.61-93.08a14.76,14.76,0,0,0-8.41-11.55l-67.88-31.67a13.09,13.09,0,0,1-5.25-4.43,13.5,13.5,0,0,1-1.9-4.17l-65.5-254.17a2.07,2.07,0,0,0-1.91-1.57,2.1,2.1,0,0,0-2.08,1.36l-6.84,18.32-17.69,47.34A59.33,59.33,0,0,0,1651.62,577.78Z"/><path class="cls-15" d="M1671.41,495.84l62,242.26,16.27-2a13.5,13.5,0,0,1-1.9-4.17l-65.5-254.17a2.07,2.07,0,0,0-1.91-1.57,2.1,2.1,0,0,0-2.08,1.36Z"/><path class="cls-16" d="M1832.47,1272.82a14.14,14.14,0,0,0,15.8,12.51l42.5-5.31a14.13,14.13,0,0,0,12.24-16q-26.07-185.25-52.13-370.52-1.47-10.54-3-21.08a5.17,5.17,0,0,0-5.76-4.4l-48,6a5.15,5.15,0,0,0-4.5,5.68c.78,7.06,1.53,14.1,2.31,21.16Q1812.21,1086.83,1832.47,1272.82Z"/><path class="cls-17" d="M1792,900.85l58.92-7.35q-1.47-10.54-3-21.08a5.17,5.17,0,0,0-5.76-4.4l-48,6a5.15,5.15,0,0,0-4.5,5.68C1790.43,886.75,1791.18,893.79,1792,900.85Z"/><path class="cls-4" d="M1961.06,664.89,1835,791.49a25.21,25.21,0,0,1-20.28,7.27l-84.42-8.38a9.8,9.8,0,0,0-8.66,3.64l-43.73,55-35.77-28.46,58.41-73.4a14.73,14.73,0,0,1,13.19-5.47l74.44,8.33a13.1,13.1,0,0,0,6.79-1,13.23,13.23,0,0,0,3.79-2.57l188.33-182.83a2.07,2.07,0,0,1,2.45-.34,2.12,2.12,0,0,1,1.07,2.24l-3.71,19.2-9.57,49.63A59.36,59.36,0,0,1,1961.06,664.89Z"/><path class="cls-15" d="M1986.86,584.64l-179.1,174.51-12.83-10.21a13.23,13.23,0,0,0,3.79-2.57l188.33-182.83a2.07,2.07,0,0,1,2.45-.34,2.12,2.12,0,0,1,1.07,2.24Z"/><path class="cls-18" d="M1444.59,1164a14.13,14.13,0,0,1-20,2.44l-33.51-26.67a14.13,14.13,0,0,1-2.12-20q118.77-144.54,237.53-289.1,6.77-8.24,13.52-16.45a5.17,5.17,0,0,1,7.21-.76l37.85,30.12a5.16,5.16,0,0,1,.88,7.2c-4.34,5.62-8.65,11.24-13,16.86Z"/><path class="cls-19" d="M1673,867.55l-46.47-37q6.77-8.24,13.52-16.45a5.17,5.17,0,0,1,7.21-.76l37.85,30.12a5.16,5.16,0,0,1,.88,7.2C1681.61,856.31,1677.3,861.93,1673,867.55Z"/><path class="cls-15" d="M1752.71,769.9a11.78,11.78,0,1,0,13.16-10.21A11.79,11.79,0,0,0,1752.71,769.9Z"/><path class="cls-20" d="M1441.14,1112s35.12-22.78,30.85-40.81-9.49-4.27-17.09,0-5.59-27.19,1.85-35.12,12.33-13.9,12.33-13.9-13.7-10.78-27.94,6.78-16.13,54.1-30.85,68.81S1430.7,1125.29,1441.14,1112Z"/><path class="cls-21" d="M1850.8,1168.48s-16.84-38.32-3.37-51,10.28,1.64,14.28,9.38,19.61-19.64,17.75-30.36-2.68-18.39-2.68-18.39,17.37-1.48,19.63,21-16.23,54.08-12,74.45S1852.23,1185.32,1850.8,1168.48Z"/><path class="cls-22" d="M1723.89,1562.85c2.8.39,5.64.75,8.52,1.1,3.75.48,7.46.87,11.08,1.23,138.63,13,199.38-60.32,214.25-147.9,18.62-109.5-34.4-241.26-96.49-254.24-113.06-23.67-34.16,167-53.89,196.93-14.48,22-125.52,2.72-183.59-9.12-21.07-4.26-35.19-7.57-35.19-7.57S1410.71,1520.56,1723.89,1562.85Z"/><path class="cls-23" d="M1385,1511c-2.74-.69-5.51-1.43-8.31-2.19-3.65-1-7.24-2-10.73-3-133.34-40.07-162-130.92-142.83-217.65,24-108.46,122.67-210.58,185.08-199.23,113.66,20.62-31.21,167.6-24.19,202.72,5.15,25.81,115.27,49.77,173.53,60.66,21.12,4,35.45,6.22,35.45,6.22S1691,1589.68,1385,1511Z"/><path class="cls-24" d="M1364.22,2560.47s-14.55,36.56-10.72,52.78a164.65,164.65,0,0,1-25.72-2.29s6.28-16.68,7.51-24.94c1.65-11.17,1.53-29.22,1.53-29.22Z"/><path class="cls-25" d="M1633,2656.19a10.88,10.88,0,0,0-2.62,6.4,10.43,10.43,0,0,0,.79,4.29c2.36,6.21,6.07,7,10.07,13.63,2.45,4,2,5.24,4.23,7.06,3,2.4,6.53,2.53,9.63,2.57a171.4,171.4,0,0,0,22.26-1.26q-7.45-9.6-15.89-19.48c-2.46-2.89-4.93-5.7-7.38-8.45l-14.62-4.93Z"/><path class="cls-26" d="M1645.16,2585.23s8.36,43.59-2.28,55.8c-9.06,12.2,4.38,3.49,4.38,3.49l16,14,9.63,16.62s-8.86-42.66-6.5-59.59,3.55-28.35,3.55-28.35Z"/><path class="cls-27" d="M1727,1766.64a1068.19,1068.19,0,0,1,35.78,163.75c28,203.88-31.54,210.38-20.42,436.31,3.55,72.12-62.48,238.41-68.3,242.08a71.81,71.81,0,0,1-9.13.36,90.57,90.57,0,0,1-23.25-3.88c-10.46-1.8-48.17-103.94-39.43-164.67,6.18-43,4.39-89.11.8-181.37-.58-14.95-38.83-290.83-38.83-290.83h0c-11.63,102.12-25,188.88-36.61,256.16-37.26,216.13-158.44,346.95-164.76,349-1.24.5-12.61,4.63-21.91-1.5a15.15,15.15,0,0,1-5.55-6.25c-3.24-2.53,1-215.78,37.92-376.27,53.64-232.94,30.28-287.45,47.28-391.49C1435.26,1708.06,1727,1766.64,1727,1766.64Z"/><path class="cls-25" d="M1357.33,2627.13s3.62,0,3.32,4.67,1.63,20.78-16.79,21.53-21.27-1.3-21.87-1.3,4.83-15.4,4.83-15.4l5.89-7.54,15.86-1.66Z"/><path class="cls-28" d="M1316.48,2643.28c.39-3.88,2.56-10,4.75-14.93,3.26-7.31.59-10,3.69-16.71a19.81,19.81,0,0,1,4.4-6.65,19,19,0,0,1,13-5,13.28,13.28,0,0,1,6.12,1.44,14.27,14.27,0,0,1,5.51,5.81c1.92,3.16,1.48,4.12,4.44,13.16a32.4,32.4,0,0,1,1.16,4.48,30.66,30.66,0,0,1,.48,4c-4.83,0-23.4.75-27.33,3.62a15.38,15.38,0,0,0-5.89,12.53c0,4.83-2.42,7.09-4.83,6.94C1319.83,2651.9,1315.54,2647.9,1316.48,2643.28Z"/><path class="cls-28" d="M1647.4,2634.9c-4,.06-6.85,3.21-9,10.79s-12.69,14.29-.44,12.68,21.15,15.75,25.53,22.17,16.12,12.11,15.83,5.84-5.47-9.2-6.93-15.61S1656.42,2634.76,1647.4,2634.9Z"/><path class="cls-29" d="M1340.61,1426.44c53,108.79,57.24,138.5,76,214.12,8.28,33.34,24.61,69.19,11.71,129.19a264.78,264.78,0,0,1-7.77,28.37,334.25,334.25,0,0,0,106.75,35.15c98.86,14.71,181.81-14.91,214-31.45,7.41-34,15.58-84,7.33-192.42-.75-9.43-2.09-24.82-5.17-44.22a575.29,575.29,0,0,0-13.41-62.33c-.83-3-1.69-5.92-2.56-8.92-8.64-29.43-17.24-49.23-26.75-66.15a293.75,293.75,0,0,0-31.83-45.69c-4.54-5.36-8.21-9.34-9-10a106.7,106.7,0,0,0-36.21-21.19c-40.36-14.36-86.51-7.49-113.49-6.7-31.88.94-93.3,2.4-127.38,42.76C1360.69,1413.26,1326,1396.45,1340.61,1426.44Z"/><path class="cls-30" d="M1538.1,1297.48c-2.79-21.5-19.77-35.27-23.48-38.21-15.52-12.34-18.68-13.58-24-14.59l-7.28-1.11-.8,0c-4.26.25-17,5.24-19.36,6.87-7.42,5.22-2,42.17,20.54,88.12q1.32,5.84,2.65,11.68c-19.6,3.44-24.46,7-24.61,9.8-.34,6.12,21.13,13.92,41,14.43,24.94.64,51.43-10.1,50.92-18.11-.2-3.24-4.91-7.24-23-11.17l-8.49-11.94C1524.75,1330.18,1540.15,1313.31,1538.1,1297.48Z"/><path class="cls-25" d="M1490.61,1229.55c7.82,7.64,9.74,20.94,7.43,30.51-1.39,5.73-3.18,6.34-2.92,10.09.71,10.53,19.9,15.12,18.84,20.43-.77,3.79-10.76,2.4-12.48,7.16-1.88,5.21,9.09,9.7,13.8,22.82.74,2,5.2,14.45-.53,21.76-5.34,6.81-17.3,5.2-30.78,3.44a107.75,107.75,0,0,1-28.65-7.69c-9.84-4.32-20.42-9-29.19-19.63-2.08-2.53-14.29-17.86-13.26-39.27,1.34-28.14,24.87-52.17,49.08-56C1465.88,1222.56,1481,1220.18,1490.61,1229.55Z"/><path class="cls-31" d="M1507.26,1289.38c-5.65-3.38-10,3.9-7.3,10.26s11.62,10.34,17,6.55S1514.88,1293.94,1507.26,1289.38Z"/><path class="cls-32" d="M1420.53,1798.12a334.25,334.25,0,0,0,106.75,35.15c98.86,14.71,181.81-14.91,214-31.45,7.41-34,15.58-84,7.33-192.42-.75-9.43-2.09-24.82-5.17-44.22,138.63,13,199.38-60.32,214.25-147.9-26.94,44.19-72.74,98.54-132.11,90.3-73.85-10.3-89.31-25.6-95.55-4.73-2,6.82-3.08,17.55-4.89,33.65a261.82,261.82,0,0,0-1.3,26.35c-.79,78.66,15.07,225.33-36.53,219.21-55.23-6.55-193.42,29.55-259.06-12.31A264.78,264.78,0,0,1,1420.53,1798.12Z"/><path class="cls-33" d="M849.63,1542.91a5.5,5.5,0,0,1-5.49,5.51h0a5.49,5.49,0,0,1-5.51-5.49l-.45-195.33a5.5,5.5,0,0,1,5.49-5.51h0a5.49,5.49,0,0,1,5.51,5.49Z"/><path class="cls-34" d="M841.72,1444.76c-8.59,4.76-37.4-24.78-57.08-56.82-12.8-20.85-7.4-22.75-17.73-37.39-24.15-34.23-52.87-29.81-63.67-57.25-7.8-19.82,5.56-26.29-2.31-44.14-14.35-32.57-65.67-26.58-70.6-48.69-3.25-14.56,15.23-34.11,33.83-42.48,51.91-23.38,142.33,26.9,162.58,91.72,10.88,34.84-7.38,45.48,1.46,112.68C834.79,1412.42,849.39,1440.51,841.72,1444.76Z"/><path class="cls-35" d="M652.22,1184.15c6.74-13,49.34-12.77,78.38,4.24,29.29,17.15,30.48,43.08,67.65,143.33,24,64.63,37.2,90.91,32.22,93.74s-28-20.07-41-48.47c-12.42-27.25-4.78-35.48-16.67-50.73-19.68-25.27-50-14.73-59.68-35.19-10-21.26,18.21-42.33,7.59-59.62-11.1-18.07-47.91-4.72-64.08-28.55C655.5,1201.17,648.63,1191.05,652.22,1184.15Z"/><path class="cls-36" d="M838.31,1346.4s30.06-148.9,115-111.71S968.1,1321.5,924.6,1323s-28.94,3.3-48.66,20.63S825,1389.89,838.31,1346.4Z"/><path class="cls-37" d="M843.69,1353.09a250,250,0,0,1,15.55-36.47,274.23,274.23,0,0,1,17.68-28.13c6.2-8.88,12.9-18.58,22.94-23.42,13.34-6.44,30.78-3.93,44.35.63,9.67,3.25,22.52,10.26,11.77,21.07-8.72,8.77-22.19,10.54-33.76,13-11,2.3-22,6.51-30.47,14.13-9.19,8.27-13.81,20.14-22.13,29.15a67.8,67.8,0,0,1-13,11.2C854.55,1355.57,840.86,1361.41,843.69,1353.09Z"/><path class="cls-38" d="M1030.58,1536.07v0l-.91,2.54s-.22.07-.22.07L967.36,1820.5c0,5.7-5.46,11.08-15,15.78-2,1-4.18,1.93-6.51,2.85-.79.31-1.59.62-2.41.89s-1.66.62-2.48.9-1.55.51-2.34.79c-1.3.41-2.6.82-3.94,1.2-.69.2-1.38.41-2.06.58-1.86.55-3.74,1-5.7,1.51l-2.37.58c-3.36.79-6.89,1.51-10.56,2.2-1.13.24-2.27.44-3.44.65-2.91.51-5.93,1-9,1.44-2.65.38-5.39.76-8.17,1.1-4.63.55-9.44,1.06-14.34,1.47-2,.14-3.95.31-5.94.45-1.71.14-3.46.24-5.25.34-.89,0-1.78.11-2.67.14-.41,0-.83,0-1.24.07-1,.07-2.06.1-3.12.14-6.24.27-12.63.41-19.11.44-69.41.14-125.68-14.61-125.75-32.93l-63.3-281.52-.58-2.6,77.87-.18Z"/><path class="cls-39" d="M1030.58,1536.07v0a6.83,6.83,0,0,1-.91,2.54s-.22.07-.22.07c-7.58,17.12-89.05,30.77-188.31,31-45,.1-86.41-2.57-118.86-7.1-39.18-5.49-65.45-13.72-69.6-23.06a6.33,6.33,0,0,1-.6-2.6c0-11.6,33.69-21.86,84.78-27.93,29.81-3.54,65.95-5.63,104.38-5.73C945.51,1503.07,1030.58,1517.72,1030.58,1536.07Z"/><path class="cls-40" d="M952.28,1836.28c-2,1-4.15,1.93-6.48,2.85-.79.31-1.58.62-2.41.89s-1.64.62-2.47.9-1.54.51-2.33.79c-1.3.41-2.61.82-3.94,1.2-.69.2-1.38.41-2.06.58-1.86.55-3.74,1-5.7,1.51l-2.37.58c-3.36.79-6.89,1.51-10.56,2.2-1.14.24-2.27.44-3.44.65-2.91.51-5.93,1-9,1.44-2.65.38-5.39.76-8.17,1.1-4.63.55-9.44,1.06-14.34,1.47-2,.14-3.95.31-5.94.45-1.71.14-3.46.24-5.25.34-.89,0-1.78.11-2.67.14-.41,0-.83,0-1.24.07-1,.07-2.06.1-3.12.14-6.24.27-12.63.41-19.11.44-69.41.14-125.68-14.61-125.75-32.93l-63.3-281.52a6.46,6.46,0,0,1-.58-2.6c0-11.6,33.69-21.86,84.78-27.93-.34,1.92-.62,3.36-.72,3.84-2,8-4.26,16-6.55,23.91-.21.76-.45,1.51-.66,2.27-2.16,7.51-4.7,15.47-6.69,23.57-4.22,17-6,34.75,3.09,50.4,6.86,11.73,21.2,18.43,33.14,23.67,12.49,5.53,25.7,8.92,38.36,13.9,25,9.81,47,24.22,63.3,46,29.92,40,15.55,64.84,42,100.49C912.21,1810.62,927.58,1824.89,952.28,1836.28Z"/><path class="cls-41" d="M179.69,1643.33a22.3,22.3,0,0,1-22.3,22.3H92.2a22.3,22.3,0,0,1-22.3-22.3h0A22.3,22.3,0,0,1,92.2,1621h65.19a22.3,22.3,0,0,1,22.3,22.31Z"/><ellipse class="cls-42" cx="169.88" cy="1649.12" rx="25.06" ry="32.94"/><path class="cls-43" d="M413,1609a22.31,22.31,0,0,1-22.3,22.3H325.51a22.3,22.3,0,0,1-22.3-22.3h0a22.29,22.29,0,0,1,22.3-22.3H390.7A22.3,22.3,0,0,1,413,1609Z"/><ellipse class="cls-44" cx="400.23" cy="1615.17" rx="25.06" ry="32.94"/><path class="cls-45" d="M685.53,1828.67a12.1,12.1,0,0,1-8.24-3.24L477.82,1641.91c-8.54-7.93-19.67-10.59-31.33-10.59H392.55a12,12,0,1,1,0-24h53.94c17.8,0,34.79,4.85,47.83,17l199.47,184.31a11.48,11.48,0,0,1-8.26,20.1Z"/><path class="cls-46" d="M1324.08,2091.44a12.14,12.14,0,0,1-4-.66l-161.06-55.58a12.12,12.12,0,0,1,7.9-22.92L1328,2067.85a12.13,12.13,0,0,1-4,23.59Z"/><path class="cls-47" d="M1303.45,1717.09l-236.73,216c-8.56,7.88-19.54,12.16-31.13,13.08l-235.08,18.07a67.47,67.47,0,0,1-16.61-.85c-2-.31-3.95-.78-5.89-1.29l-248.37-64.38c-11.78-3.06-22.11-9.2-29.21-19.1L383.65,1717.09Z"/><path class="cls-48" d="M1303.45,1717.09l-236.73,216c-8.56,7.88-19.54,12.16-31.13,13.08l-235.08,18.07a67.47,67.47,0,0,1-16.61-.85l-.22-.73-32.76-245.61Z"/><path class="cls-49" d="M1303.45,1717.09l-236.73,216c-8.56,7.88-19.54,12.16-31.13,13.08l-235.08,18.07a67.47,67.47,0,0,1-16.61-.85l-.22-1.68c5.24-21.46,18-41.47,32.71-57.11,26.31-28,57.74-53.7,92.17-71,27.71-13.87,64.21-31.36,95.7-33.23,31.26-1.86,57.52,20,88.29,2.53,32.25-18.31,46.7-55,66.58-85.89Z"/><path class="cls-50" d="M1089.92,1899.53a64.57,64.57,0,0,0-7.51.48l-39.42-.48.23,17.35c-38.19,29.86-64.7,95.16-64.7,171,0,78.79,28.64,146.24,69.27,174.33l.19,14h41.94c61.52,0,111.4-84.3,111.4-188.3S1151.44,1899.53,1089.92,1899.53Z"/><ellipse class="cls-51" cx="1042.99" cy="2087.84" rx="111.4" ry="188.31"/><ellipse class="cls-4" cx="1027.33" cy="2087.84" rx="62.58" ry="105.79"/><ellipse class="cls-52" cx="1036.8" cy="2087.84" rx="53.11" ry="98.22"/><rect class="cls-53" x="368.4" y="1696.51" width="943.52" height="30.88" rx="13.94"/><rect class="cls-54" x="752.67" y="1696.51" width="562.68" height="30.88" rx="14.55"/><path class="cls-55" d="M573,2209.68a60.68,60.68,0,0,1-15.94-2.14l-24.18-6.6a60.61,60.61,0,0,1-44.57-58.34l0-241.32A37.88,37.88,0,0,0,474.53,1872L233.36,1672.49a28.7,28.7,0,0,0-15.13-6.44l-51.75-5.9a12.12,12.12,0,0,1,2.75-24.09L221,1642a53,53,0,0,1,27.84,11.84L490,1853.33a62,62,0,0,1,22.56,48l0,241.31a36.31,36.31,0,0,0,26.7,35l24.18,6.6a36.24,36.24,0,0,0,39.64-14.79l115.37-172.17a62,62,0,0,1,69.19-25.08l350.13,102.45a193,193,0,0,0,79.17,6.24l108.8-13.92a12.12,12.12,0,0,1,3.08,24L1220,2104.85a216.9,216.9,0,0,1-89.06-7L780.84,1995.38a37.87,37.87,0,0,0-42.24,15.31L623.23,2182.86A60.45,60.45,0,0,1,573,2209.68Z"/><path class="cls-56" d="M2251.31,2287l-29.09,219.5A54.64,54.64,0,0,0,2264,2567c74.13,17.23,217.83,38.95,314.1-20.53,19.06-11.77,28.5-34.45,24.32-56.45l-40.49-213.19a30.71,30.71,0,0,0-31.22-25l-250,8.5A30.7,30.7,0,0,0,2251.31,2287Z"/><polygon class="cls-57" points="2051.85 2190.33 2274.88 2354.25 2245.38 2471.05 2048.61 2223.77 2051.85 2190.33"/><path class="cls-58" d="M2000.9,2130.17c-20.5,33.87-32.91,63.23-38.46,88.78a12.48,12.48,0,0,0,9.26,14.85l100.47,24,20.62-37.39-71.38-91.58A12.48,12.48,0,0,0,2000.9,2130.17Z"/><path class="cls-59" d="M2311.39,2271.81a14.51,14.51,0,0,1-7.52-12.83c.05-8.07,2.58-197.59,105.14-198,100.48-.42,111.54,212.19,112.47,236.43a14.53,14.53,0,0,1-29,1.11c-2.09-54.16-21.85-208.88-83.33-208.49-73,.28-76.19,167.44-76.21,169.14a14.52,14.52,0,0,1-21.52,12.62Z"/><path class="cls-60" d="M2602.42,2490l-40.49-213.18a30.72,30.72,0,0,0-31.22-25l-172.26,5.85c-14.68,24-23.11,49.34-16.25,72.84,18.73,64.19,137.14,66.65,139.55,112.9,1.75,33.44-58.33,67.05-106,77-60.13,12.52-114-9.77-151-33l-2.53,19.06A54.64,54.64,0,0,0,2264,2567c74.13,17.23,217.83,38.94,314.1-20.53C2597.15,2534.7,2606.6,2512,2602.42,2490Z"/><path class="cls-61" d="M2543.06,2259.2c.32,16.62-63.18,31.35-141.85,32.9s-142.71-10.67-143-27.29,63.19-31.36,141.85-32.91S2542.73,2242.58,2543.06,2259.2Z"/><path class="cls-62" d="M2521.48,2297.43c-.68-17.66-6.77-135.2-48.85-197.61a96.81,96.81,0,0,1-20.49,21.94c28.3,48.12,38.82,138.09,40.31,176.78a14.53,14.53,0,0,0,29-1.11Z"/><path class="cls-63" d="M452.6,483.5s42-81.36,114-49.81,65.32,15,115.31,21.27,111.85,41,71.58,48-355.51,15-355.51,15S402.61,487.76,452.6,483.5Z"/><path class="cls-63" d="M977.34,258.91s57.84-112.06,157-68.61,90,20.65,158.84,29.3,154.07,56.44,98.61,66.06-489.73,20.63-489.73,20.63S908.48,264.79,977.34,258.91Z"/><path class="cls-64" d="M1526.59,494.14c1.12-11.78,25.45-21,54.3-20.67s51.21,10.15,50.16,21.88-25.26,21-54.1,20.72S1525.47,505.93,1526.59,494.14Z"/><path class="cls-65" d="M1549.93,563.25c-1.2-6.32,10.1-14.83,25.21-19s28.26-2.47,29.49,3.81-10,14.8-25.09,19S1551.14,569.57,1549.93,563.25Z"/><path class="cls-66" d="M1697.16,295.3c11.09-4.13,26.82,5.95,35.14,22.48s6.08,33.2-4.94,37.34-26.76-5.83-35.12-22.34S1686.07,299.43,1697.16,295.3Z"/></g></g></g></svg>