<svg xmlns="http://www.w3.org/2000/svg" viewBox="0 0 674.97 416.69"><defs><style>.cls-1{fill:#f5f5ff;}.cls-2{fill:#e6e6ff;}.cls-10,.cls-14,.cls-17,.cls-18,.cls-19,.cls-20,.cls-21,.cls-22,.cls-23,.cls-28,.cls-29,.cls-3,.cls-30,.cls-9{fill:none;}.cls-10,.cls-14,.cls-17,.cls-18,.cls-19,.cls-20,.cls-21,.cls-22,.cls-23,.cls-28,.cls-3,.cls-30,.cls-9{stroke:#0c3956;}.cls-10,.cls-14,.cls-15,.cls-17,.cls-18,.cls-19,.cls-20,.cls-21,.cls-22,.cls-23,.cls-28,.cls-3,.cls-30,.cls-9{stroke-linecap:round;stroke-linejoin:round;}.cls-3{stroke-width:1.05px;}.cls-4{fill:#0c3956;}.cls-5{fill:#b6ccfe;}.cls-15,.cls-24,.cls-6{fill:#fae625;}.cls-25,.cls-27,.cls-7{fill:#cecfff;}.cls-8{fill:#ffccd3;}.cls-9{stroke-width:0.28px;}.cls-10{stroke-width:0.23px;}.cls-11{fill:#6166ff;}.cls-12{fill:#c97f89;}.cls-13{opacity:0.33;}.cls-14{stroke-width:0.26px;}.cls-15,.cls-24{stroke:#fae625;}.cls-15{stroke-width:0.95px;}.cls-16,.cls-26{fill:#fad225;}.cls-17{stroke-width:0.22px;}.cls-18{stroke-width:0.91px;}.cls-19{stroke-width:0.17px;}.cls-20{stroke-width:2.55px;}.cls-21{stroke-width:0.22px;}.cls-22{stroke-width:0.23px;}.cls-23{stroke-width:1.1px;}.cls-24,.cls-25,.cls-26,.cls-27,.cls-29{stroke-miterlimit:10;}.cls-24,.cls-25{stroke-width:1.18px;}.cls-25,.cls-27{stroke:#cecfff;}.cls-26{stroke:#fad225;stroke-width:1.15px;}.cls-27{stroke-width:0.91px;}.cls-28{stroke-width:0.24px;}.cls-29{stroke:#161b43;stroke-width:0.31px;}.cls-30{stroke-width:0.21px;}</style></defs><title>Asset 6</title><g id="Layer_2" data-name="Layer 2"><g id="OBJECTS"><path class="cls-1" d="M34.44,36.28C18.61,40.2,4.15,49,1,66.26c-4.64,25.12,8.29,53.24,19.3,75.1,27.57,54.71,65.42,106.26,112.81,145.27,51,42,113.94,69.3,179.84,75.52a394.16,394.16,0,0,0,68,.32c95.9-7.58,193.88-44.2,251.59-124.86,26-36.34,45.41-82.76,42.07-128.18C666.92,5.29,535.19-11.11,454.43,5.69c-34.3,7.13-66.69,22.56-94.62,43.6C333,69.53,310.55,96.66,278.67,109.48c-44.8,18-80.45-19-115.41-40.67C125.69,45.46,79.43,25.13,34.44,36.28Z"/><ellipse class="cls-2" cx="337.49" cy="400.23" rx="316.82" ry="16.45"/><path class="cls-3" d="M408,60.22h1.84v8.1a8.23,8.23,0,0,1-3.65,6.84L391.13,85.27A2.58,2.58,0,0,0,390,87.41V90.8"/><rect class="cls-4" x="345.13" y="55.98" width="64.73" height="8.49" rx="3.23"/><path class="cls-5" d="M390,123.69h0a3,3,0,0,1-3-3V92.88a3,3,0,0,1,3-3h0a3,3,0,0,1,3,3v27.84A3,3,0,0,1,390,123.69Z"/><rect class="cls-6" x="348.38" y="52.64" width="58.24" height="15.17" rx="5.06"/><path class="cls-7" d="M469.53,181c13.36-16.23,16.83-36.65,17.65-43.61-8.15-5-15.3-8.09-16.17-11.07a9.23,9.23,0,0,1-.35-2.22,64.8,64.8,0,0,1-19.35.52,5.13,5.13,0,0,1-2,2.27,1.21,1.21,0,0,1-.2.09c8.06,15.06,15.66,54,15.66,54Z"/><path class="cls-8" d="M470.66,124.13a12.36,12.36,0,0,1,.77-4.63S453.37,117,452,121.35a8,8,0,0,1-.71,3.3A64.8,64.8,0,0,0,470.66,124.13Z"/><path class="cls-8" d="M414.64,131c-8.29,2.12-16,4.22-16,4.22s-4.71-5.28-4.86-11.71-1.71-8-1.71-8-4.42-.21-6.28,1.64-4.57,22.77-1.28,27.76c2.45,3.74,14.82,6.92,28.3,7C411.25,144.75,413.2,136,414.64,131Z"/><path class="cls-7" d="M504.12,180.47a121.31,121.31,0,0,0-2.86-20.87c-3.14-12.7-.85-13.41-10.42-19.84l-.22-.14c-2.06,23.3-17.47,41.41-17.47,41.41l5.52,1.31c0,5.82,1.77,13.27,3.11,18a34.22,34.22,0,0,1,1.07-7.82c2.43-8,8-16.13,8-16.13s-.16,1.84-.29,4.58A131.8,131.8,0,0,0,504.12,180.47Z"/><path class="cls-7" d="M442.7,217c10.47-4,15.22-35.95,15.22-35.95h3.81s-11.07-43.16-16.55-53.73c-3.24-.38-7.72-1.4-13.28-.38-3.78.69-10.7,2.39-17.26,4.06-1.44,5-3.39,13.77-1.82,20.94a78.94,78.94,0,0,0,13.66-1s5.8,29.82,4.83,43.24c-.49,6.72-2.31,15.15-4,24.9A35,35,0,0,0,442.7,217Z"/><path class="cls-8" d="M490.55,181a96.17,96.17,0,0,0,.29,14.83c1,8.28,2.29,17.84,2.86,22.55a85.08,85.08,0,0,1,0,12.56,11.7,11.7,0,0,0,7.42,1s2.14-18,3-29.4a170.51,170.51,0,0,0,0-22.09A131.8,131.8,0,0,1,490.55,181Z"/><line class="cls-9" x1="490.84" y1="176.44" x2="495.13" y2="167.31"/><line class="cls-9" x1="426.48" y1="150.9" x2="426.48" y2="146.19"/><path class="cls-9" d="M398.65,135.2a12.5,12.5,0,0,0-1.53,2"/><path class="cls-8" d="M385.45,117.8a27.17,27.17,0,0,1-2.66-4.74c-.43-1.45.89-5.39,2.66-6.3,0,0,0-3.21,1.4-3.39s4,3.45,5.09,3.09.9-4.3.9-4.3,2.91,3.57,2.67,5a15.67,15.67,0,0,1-1.15,4.18c-.67,1.46-2.06,4.68-2.06,4.68Z"/><path class="cls-8" d="M493.8,229.41c.08,0,5.74.16,7,1.91s1.6,11.16,1.28,12.75-5.66,9-6.61,8.93a1.18,1.18,0,0,1-1.08-1s-2.21,2.29-2.45-.32c0,0-2.09.68-1.55-1.47,0,0-1.14.3-.84-2s3.11-5,3.29-6.46.45-3.76-.38-3.7-.83,3-1.13,3.87a1,1,0,0,1-1.83.13c-.45-1,.53-4.84,1.18-6.69A53.91,53.91,0,0,1,493.8,229.41Z"/><path class="cls-10" d="M494.4,252s2-2.75,2.87-4.18a12.68,12.68,0,0,0,1.1-4"/><path class="cls-10" d="M492,251.68s3.91-4.34,4.43-8.52"/><path class="cls-10" d="M490.4,250.21s3.7-3.89,4-7.05"/><path class="cls-11" d="M492,300s-6.28-32.25-5.71-49.38a94.43,94.43,0,0,0-3.71-30,161.13,161.13,0,0,1-.79-20.3c-1.34-4.78-3.11-12.23-3.11-18L473.15,181s15.41-18.11,17.47-41.41c-1.16-.78-2.31-1.51-3.44-2.2-.82,7-4.29,27.38-17.65,43.61h-4.76s-7.6-39-15.66-54a7.18,7.18,0,0,1-3.93.29c5.48,10.57,16.55,53.73,16.55,53.73h-3.81S453.17,213,442.7,217A35,35,0,0,1,427.27,219a200.83,200.83,0,0,0-3.51,32.76c-.28,24-1.71,48.24-1.71,48.24l-6.75,93h12.94l19.17-85.15a133.9,133.9,0,0,1,4.43-15.35l3.9-11,7.7,18.55,36.25,93h13.13Z"/><polyline class="cls-9" points="455.74 281.49 463.06 265.88 473.15 259.6"/><path class="cls-9" d="M432.8,221.92s-3,23.22-3.61,39.21S419.48,393,419.48,393"/><path class="cls-4" d="M512.82,393H499.69L485,400.23h26.88a1.77,1.77,0,0,0,1.76-2Z"/><path class="cls-4" d="M428.37,393H415.24l-14.75,7.23h26.88a1.77,1.77,0,0,0,1.76-2Z"/><path class="cls-8" d="M457.71,87.66A19.84,19.84,0,0,0,445.64,95a5.36,5.36,0,0,0-1,1.62c-.19,1.18-.57,2.66-.57,2.66s-3.87,3.87-6.08,5.7a1.22,1.22,0,0,0-.08,1.78,13,13,0,0,0,1.54,1.37c1.1.76.15,2.81.48,3.47l.33.67a1.27,1.27,0,0,0-.28,1.47,6,6,0,0,1,.33,3.43c-.28,1.57-1.9,2.51.33,4.84s13.75.62,18.27,0,7.52,1.2,13-1.23,8.09-22.12,1.71-29.92C470,86.43,463.11,86.64,457.71,87.66Z"/><path class="cls-4" d="M447.53,87.6a8.5,8.5,0,0,0,4.71,7.56c4.92,2.5,7.71.79,7.71.79s-3.5,3.78-3.14,6.85,1.67,3.64.65,5.85a11,11,0,0,0-1,2.57l1.57-.5s2.07-3.21,3.71-3.57,2.45.64,2.33,3.28-2.33,2.5-3.47,3.71,2.07,7,6.85,8.14,7-1.64,9.35-4.64,4.78-20.84-1.86-28.12S445,79.82,447.53,87.6Z"/><rect class="cls-12" x="204.59" y="110.69" width="169.02" height="31.19" transform="translate(66.69 -97.46) rotate(21.57)"/><g class="cls-13"><path class="cls-4" d="M220.5,88.68A7.66,7.66,0,0,1,225,87.53a12.31,12.31,0,0,1,4.51,1.11,18.46,18.46,0,0,1,2,1.13,17.83,17.83,0,0,1,1.91,1.35c1.22,1,2.34,2,3.49,3.09a63.61,63.61,0,0,0,15.58,10.13c11.26,5.33,23.27,8.76,35.16,12.41a101.76,101.76,0,0,1,17.15,7.34,57.55,57.55,0,0,1,7.79,5.13,30.31,30.31,0,0,1,3.43,3.17,12,12,0,0,1,2.54,3.91,3.8,3.8,0,0,1,.12,2.31,3,3,0,0,1-1.52,1.73,6.45,6.45,0,0,1-2.3.37c-.78,0-1.56,0-2.34-.06a87,87,0,0,1-9.24-1.3c-6.12-1.17-12.17-2.65-18.17-4.31s-11.94-3.51-17.8-5.62a107.76,107.76,0,0,1-17.08-7.52,26.71,26.71,0,0,1-3.85-2.67,10,10,0,0,1-1.62-1.7,3.71,3.71,0,0,1-.82-2.22,2.58,2.58,0,0,1,1.14-2.06,5.59,5.59,0,0,1,2.21-.82,18.42,18.42,0,0,1,4.69-.11,61.1,61.1,0,0,1,9.2,1.62c3,.73,6,1.61,9,2.56a135.67,135.67,0,0,1,17.37,6.86,40.76,40.76,0,0,1,4.09,2.26,10,10,0,0,1,1.86,1.44,1.27,1.27,0,0,1,.47,1.13,1.71,1.71,0,0,1-.91.81,12.4,12.4,0,0,1-4.64.58,45.21,45.21,0,0,1-4.66-.33,79,79,0,0,1-9.19-1.66,52.26,52.26,0,0,1-8.88-2.87,17.74,17.74,0,0,1-2.07-1.09,6.27,6.27,0,0,1-1.78-1.5,3.25,3.25,0,0,1-.55-1l-.06-.3,0-.3a.81.81,0,0,1,.36-.47,2.25,2.25,0,0,1,1.13-.3,7.62,7.62,0,0,1,1.17,0,44,44,0,0,1,9,2.32h0a44.77,44.77,0,0,0-9-2.28,11.18,11.18,0,0,0-1.16,0,2.25,2.25,0,0,0-1.09.3.8.8,0,0,0-.3,1,3.29,3.29,0,0,0,.54,1,6.13,6.13,0,0,0,1.77,1.47,17.54,17.54,0,0,0,2.06,1.08,52.63,52.63,0,0,0,8.87,2.83,77.19,77.19,0,0,0,9.17,1.62,45.38,45.38,0,0,0,4.65.31,12.16,12.16,0,0,0,4.55-.58,1.48,1.48,0,0,0,.8-.69c.08-.3-.17-.65-.42-.91a10.08,10.08,0,0,0-1.83-1.4,43.52,43.52,0,0,0-4.08-2.24,141.08,141.08,0,0,0-17.33-6.83c-3-1-5.95-1.83-9-2.56a60.81,60.81,0,0,0-9.16-1.62,18.78,18.78,0,0,0-4.62.1,5.44,5.44,0,0,0-2.12.79,2.3,2.3,0,0,0-1,1.87,3.5,3.5,0,0,0,.77,2.07,9.24,9.24,0,0,0,1.59,1.66,25.91,25.91,0,0,0,3.81,2.65,109.23,109.23,0,0,0,17,7.53c5.85,2.12,11.79,4,17.78,5.66s12,3.17,18.14,4.35a84.41,84.41,0,0,0,9.23,1.33c.77.05,1.55.09,2.32.07a6.73,6.73,0,0,0,2.28-.37,2.93,2.93,0,0,0,1.47-1.68,3.65,3.65,0,0,0-.14-2.26,11.56,11.56,0,0,0-2.52-3.86,29.15,29.15,0,0,0-3.42-3.15,58,58,0,0,0-7.79-5.1,101.79,101.79,0,0,0-17.14-7.29c-11.9-3.59-23.91-7.08-35.17-12.45a63.92,63.92,0,0,1-15.57-10.2c-1.15-1-2.26-2.14-3.48-3.1a17.22,17.22,0,0,0-1.9-1.36,17.42,17.42,0,0,0-2-1.12A12.08,12.08,0,0,0,225,87.58a7.53,7.53,0,0,0-4.44,1.12h0S220.49,88.68,220.5,88.68Z"/><path class="cls-4" d="M215.05,102.47a57.84,57.84,0,0,0,6.72,3.38,26.3,26.3,0,0,0,7.22,1.91,11.86,11.86,0,0,0,3.71-.21c1.22-.26,2.4-.7,3.62-1a10.53,10.53,0,0,1,3.75-.27,17,17,0,0,1,3.67.86l-.07.09a31.05,31.05,0,0,0-13.91-9.72,11.78,11.78,0,0,0-4.19-.62,3.56,3.56,0,0,0-1.94.66,1.66,1.66,0,0,0-.45,1.85,5.19,5.19,0,0,0,3.16,2.64,5.62,5.62,0,0,0,4.17-.08h0s0,0,0,0a5.61,5.61,0,0,1-4.24.18,7.35,7.35,0,0,1-1.92-1A3.79,3.79,0,0,1,223,99.45a1.86,1.86,0,0,1,.49-2.08,3.78,3.78,0,0,1,2.06-.75,12.21,12.21,0,0,1,4.29.64,29.54,29.54,0,0,1,7.68,3.94,30.15,30.15,0,0,1,6.25,6,.05.05,0,0,1,0,.08h-.06a17.5,17.5,0,0,0-3.63-.89,9.93,9.93,0,0,0-3.72.3c-1.21.32-2.38.78-3.61,1.06A11.94,11.94,0,0,1,229,108,24.1,24.1,0,0,1,221.7,106a46.91,46.91,0,0,1-6.65-3.52s0,0,0,0Z"/><path class="cls-4" d="M237.92,116.11a40.57,40.57,0,0,0-6-2.06c-1-.3-2-.57-3.08-.83l-3.11-.71a34.22,34.22,0,0,1-6-2.08,25.73,25.73,0,0,1-5.47-3.29s0,0,0,0h0a36,36,0,0,0,5.57,3.08,44.78,44.78,0,0,0,6,2.17c2,.57,4.15.94,6.2,1.49a27,27,0,0,1,3.06.94,15.82,15.82,0,0,1,2.92,1.29,0,0,0,0,1,0,0A0,0,0,0,1,237.94,116.09Z"/><path class="cls-4" d="M306.08,143.72a4.35,4.35,0,0,1,1.71-.3,9.27,9.27,0,0,1,1.74.13,19.49,19.49,0,0,1,3.36.86,38.8,38.8,0,0,1,6.33,2.88c2,1.1,4,2.39,5.95,3.57s4.06,2.22,6.15,3.21a108.72,108.72,0,0,0,12.92,5,75.21,75.21,0,0,0,13.49,3.12v0s0,0,0,0a46.76,46.76,0,0,1-6.85-1.1c-2.26-.51-4.5-1.1-6.7-1.81a91.44,91.44,0,0,1-12.91-5.11c-1.05-.49-2.07-1-3.1-1.56s-2-1.11-3-1.69c-2-1.15-3.95-2.41-6-3.48a50.92,50.92,0,0,0-6.29-2.88,20.26,20.26,0,0,0-3.33-.91,12.37,12.37,0,0,0-1.72-.17,4.21,4.21,0,0,0-1.69.24h0A0,0,0,0,1,306.08,143.72Z"/><path class="cls-4" d="M356.74,156.31a3.06,3.06,0,0,0-1.61-1.67,9.91,9.91,0,0,0-2.24-.84,31.48,31.48,0,0,0-4.75-.72,30.86,30.86,0,0,1-9.07-3.25c-2.87-1.45-5.64-3.11-8.36-4.81s-5.39-3.51-8-5.39c0,0,0,0,0-.07s0,0,0,0a45.74,45.74,0,0,1,16.85.94,76.87,76.87,0,0,1,8.11,2.53,53.64,53.64,0,0,1,7.73,3.49,14.15,14.15,0,0,1,1.78,1.19,3.58,3.58,0,0,1,.75.8,1,1,0,0,1,.19.55.7.7,0,0,1-.25.56,3.7,3.7,0,0,1-2.1.55,19,19,0,0,1-2.13-.09,46,46,0,0,1-8.31-1.75c-1.36-.41-2.7-.87-4-1.39a13.42,13.42,0,0,1-3.73-2,1.12,1.12,0,0,1-.44-1,.88.88,0,0,1,.73-.75,5.22,5.22,0,0,1,2.12,0,24.93,24.93,0,0,1,4.08,1.14s0,0,0,0h0a24.11,24.11,0,0,0-4.08-1.1,5.25,5.25,0,0,0-2.09,0,.78.78,0,0,0-.65.67,1,1,0,0,0,.42.87,13.47,13.47,0,0,0,3.71,2c1.31.51,2.65.94,4,1.33a51.89,51.89,0,0,0,8.27,1.71,18.44,18.44,0,0,0,2.1.09,3.6,3.6,0,0,0,2-.48c.25-.2.19-.53,0-.8a3.49,3.49,0,0,0-.7-.74,12.3,12.3,0,0,0-1.74-1.17,53.77,53.77,0,0,0-7.69-3.49,76.29,76.29,0,0,0-8.06-2.58,44.63,44.63,0,0,0-8.36-1.31,40.36,40.36,0,0,0-8.44.32l0-.1a141.48,141.48,0,0,0,16.4,10.09,30.8,30.8,0,0,0,9,3.3,31,31,0,0,1,4.76.76,10.34,10.34,0,0,1,2.25.89,3.12,3.12,0,0,1,1.6,1.73s0,0,0,0S356.75,156.32,356.74,156.31Z"/><path class="cls-4" d="M321.82,130.59a5.83,5.83,0,0,1,3.48-.72,15.17,15.17,0,0,1,3.54.67,26.9,26.9,0,0,1,3.37,1.29c1.1.5,2.15,1.08,3.21,1.63A113.77,113.77,0,0,0,348.68,139l13.61,4.68a15.88,15.88,0,0,1,1.68.67,2.88,2.88,0,0,1,.76.53l.34.32.25.39a5.7,5.7,0,0,1,.61,3.55,11.34,11.34,0,0,1-1,3.48,6.24,6.24,0,0,1-2.17,2.82h0s0,0,0,0a6.43,6.43,0,0,0,2.07-2.85,11.49,11.49,0,0,0,.9-3.45,5.46,5.46,0,0,0-.64-3.4c-.6-1-1.79-1.4-2.91-1.81-4.51-1.61-9.07-3.09-13.56-4.78s-9-3.38-13.3-5.49a44.51,44.51,0,0,0-6.55-2.92,15,15,0,0,0-3.5-.71,6,6,0,0,0-3.46.61h0A0,0,0,0,1,321.82,130.59Z"/><path class="cls-4" d="M257.05,101.1l8.94,4c3,1.34,5.95,2.66,9,3.84s6.08,2.36,9.14,3.46,6.14,2.17,9.27,3.1h0A96,96,0,0,1,284,112.6c-3.07-1.11-6.11-2.28-9.11-3.56l-9-3.79c-1.51-.63-3-1.31-4.46-2s-3-1.38-4.41-2.12c0,0,0,0,0,0A0,0,0,0,1,257.05,101.1Z"/></g><path class="cls-7" d="M231.65,167.45s12.34,2,21.94-2.92c0,0-5.16-22-9-30.34-2.42-.57-4.43-1.31-5-2.4a7.08,7.08,0,0,1-.44-1c-1.73,2.14-4.67,4.61-8.87,4.11a19.72,19.72,0,0,1-11.07-5.3,3.55,3.55,0,0,1-.76,1c-.95.81-3.81,2-7.09,3.47A58.65,58.65,0,0,1,231.65,167.45Z"/><path class="cls-8" d="M288.64,142.93l-1.85,10.12s-5-2.77-11-6.07a41.61,41.61,0,0,1-4,16.53c8.75,2.08,21.67,4.63,24.63,2.34,2.19-1.7,2.56-10.21,2.23-19C294.7,145.21,292.05,144,288.64,142.93Z"/><path class="cls-7" d="M202.25,183.85c.79-1.82,1.6-3.83,2.37-6,0,0,7.32,16.45,7.55,21.94,0,1,0,2.14,0,3.46,6.92-2.48,13.95-13.46,13.8-33.06-.13-18-12.83-28.83-19.28-34-3.61,1.82-6.93,3.91-8.14,6.13-2.11,3.87-6.68,18.51-10.09,29.85C191.36,175.66,196.7,181.47,202.25,183.85Z"/><path class="cls-8" d="M239.15,130.76c-1-3-.93-8.23-.93-8.23l-17.6-1.6s.18,5.84-1.41,8.64a19.72,19.72,0,0,0,11.07,5.3C234.48,135.37,237.42,132.9,239.15,130.76Z"/><path class="cls-7" d="M254.57,136.13c-1.35-.38-3.31-.7-5.38-1.06,2.22,6.79,10.23,31.43,12.29,39.23.47,1.78.83,3.48,1.11,5,.74-8.25,1.24-15.22.89-18,0,0,3.52,1,8.28,2.12a41.61,41.61,0,0,0,4-16.53C267.39,142.4,256.89,136.8,254.57,136.13Z"/><path class="cls-8" d="M195.94,195.44a69.19,69.19,0,0,0,6.31-11.59c-5.55-2.38-10.89-8.19-13.77-11.7-1.23,4.07-2.3,7.72-3.06,10.28-2.85,9.7-3.56,12.24-3,16.24s25.15,38.41,26,39.59c.51-4.81,1.14-9.54,1.65-12.86Z"/><path class="cls-14" d="M213.42,232.36l-3.29-7c-.51,3.32-1.14,8-1.65,12.86l0,0S213,233.84,213.42,232.36Z"/><path class="cls-11" d="M264.85,262c-1.26-13.49-4.91-32.46-5.14-44.8-.14-7.64,1.68-24.42,2.88-37.81-.28-1.57-.64-3.27-1.11-5-2.06-7.8-10.07-32.44-12.29-39.23-1.53-.26-3.11-.54-4.55-.88,3.79,8.34,9,30.34,9,30.34-9.6,4.88-21.94,2.92-21.94,2.92A58.65,58.65,0,0,0,211.36,134c-1.51.67-3.1,1.4-4.65,2.17,6.45,5.19,19.15,16,19.28,34,.15,19.6-6.88,30.58-13.8,33.06a153.92,153.92,0,0,1-1.51,18.82c-.15.8-.34,1.94-.55,3.33l3.29,7c-.45,1.48-4.91,5.94-4.91,5.94l0,0c-.42,3.94-.76,7.94-.89,11.24-.16,4.34.39,19.52,1,34.12a370.5,370.5,0,0,1-2.68,62.73l-4.16,47.24h12l17.47-77.2,8.79-31.12V314.5l1,79.09h12.55l8.63-79.09S266.11,275.44,264.85,262Z"/><path class="cls-8" d="M198.68,201.24l14.74,31.12s-2.17,4.46-4.91,5.94l-21.74-31.71Z"/><path class="cls-14" d="M286.79,153.05s-.11,3.42,1.26,5.48"/><path class="cls-14" d="M195.94,195.44s-2.63-.73-3.59,0"/><line class="cls-14" x1="204.62" y1="177.85" x2="205.94" y2="166.25"/><line class="cls-14" x1="263.48" y1="161.39" x2="262.17" y2="153.39"/><path class="cls-14" d="M214.34,228.64s-1.87,7.94-2.14,28.4,0,48.71,0,48.71l-7.34,87.84"/><path class="cls-14" d="M240.05,285.27s7.89-25.38,8.4-28.23l4.8-3.78"/><path class="cls-8" d="M216.28,105.05s-2.17-2.18-3.43-1.38-.57,6.52,3.43,7.89c0,0,2.86,15.27,14.29,16.38s12-17,12-17,1.48.91,2.4-1.6-1.83-7.89-2.63-7c0,0-.12-18.52-12.46-18.4S215.14,99,216.28,105.05Z"/><path class="cls-4" d="M214.47,103.75s-1.93-2.93,0-11.39,5.66-12.34,14.71-11.2,12.7,4.8,14.07,12.23A22,22,0,0,1,242.11,106s-.34-3.24-3.89-9-10.51-2.29-13.14-6c0,0-3.29,7.2-5.87,9s-2.24,6.52-2.24,6.52Z"/><path class="cls-14" d="M220.63,121.73s4.53,5.81,9.94,6.21a8.3,8.3,0,0,0,7.69-3.26"/><path class="cls-15" d="M212.59,99c.37,1.07,18.22-6.19,32-3.92,0,0-1.91-12.72-6.42-15.81A18.15,18.15,0,0,0,229.27,76a5.59,5.59,0,0,0-6-1.06c-3.83,1.34-3.72,3.51-3.72,3.51S208.43,86.9,212.59,99Z"/><path class="cls-16" d="M212.59,98a16.56,16.56,0,0,1-.91-5,16.23,16.23,0,0,0,.91,5.89c.37,1.07,18.22-6.19,32-3.92,0,0-.06-.36-.17-1C230.67,91.88,213,99.07,212.59,98Z"/><path class="cls-16" d="M219.55,78.47s2.65,2,2.65,4.18l-3.35-3.59S218.48,79,219.55,78.47Z"/><path class="cls-16" d="M229.27,76s2.23,2.36,1.91,4.54a6.07,6.07,0,0,0-.56-4.54S229.62,75.36,229.27,76Z"/><path class="cls-4" d="M213.61,393.59H201.56L188,400.23H212.7a1.63,1.63,0,0,0,1.62-1.87Z"/><path class="cls-4" d="M241.13,393.59h12.06l13.54,6.64H242.05a1.63,1.63,0,0,1-1.62-1.87Z"/><path class="cls-8" d="M303.65,115.27s.53-6.69-1.94-6c0,0-1-2.68-3-.58,0,0-1.89-2.1-3.55-.14,0,0-2.83-1.81-3.56-.07s-.47,7.14.55,7.36.94-1.56.94-1.56-.07,4.28,1.05,4.35,1.2-1.34,1.2-1.34.25,1.49,1.12,1.34,1-1.63,1-1.63.51.76,1.67,0,1.31-3,1.31-3Z"/><path class="cls-17" d="M295.19,108.58a11.46,11.46,0,0,0-1.09,1.81,22.91,22.91,0,0,0-1,3.92"/><path class="cls-17" d="M295.37,117.32s.78-8.5,3.37-8.6"/><path class="cls-17" d="M297.47,117s1.27-8,4.24-7.73"/><path class="cls-17" d="M300.45,114s1.29-2,1.87-1.63"/><rect class="cls-12" x="143.63" y="211.65" width="147.43" height="27.2" transform="translate(16.79 -15.07) rotate(4.13)"/><g class="cls-13"><path class="cls-4" d="M150.42,211.89a6.72,6.72,0,0,1,3.41-2.12,10.57,10.57,0,0,1,4-.25,17.31,17.31,0,0,1,3.94,1c1.27.49,2.48,1.1,3.71,1.67a55.71,55.71,0,0,0,15.61,4.35c10.77,1.49,21.66,1.2,32.51,1.13a88.88,88.88,0,0,1,16.19,1.63,49.57,49.57,0,0,1,7.83,2.23,27.49,27.49,0,0,1,3.68,1.74,10.43,10.43,0,0,1,3.13,2.59,3.29,3.29,0,0,1,.71,1.89,2.63,2.63,0,0,1-.81,1.84,11,11,0,0,1-3.78,1.47,75.28,75.28,0,0,1-8,1.33c-5.39.63-10.81,1-16.24,1.17s-10.86.2-16.28,0a94.63,94.63,0,0,1-16.18-1.8,22.28,22.28,0,0,1-3.9-1.21,8.76,8.76,0,0,1-1.8-1,3.22,3.22,0,0,1-1.26-1.64,2.23,2.23,0,0,1,.41-2,4.9,4.9,0,0,1,1.63-1.26,16.09,16.09,0,0,1,3.87-1.32,55,55,0,0,1,8.08-1.06c2.71-.18,5.43-.23,8.14-.21a119.42,119.42,0,0,1,16.25,1.16,39.35,39.35,0,0,1,4,.81,9.1,9.1,0,0,1,1.92.72c.28.17.65.37.68.82a1.5,1.5,0,0,1-.54.91,11,11,0,0,1-3.71,1.7c-1.31.38-2.63.68-4,.94a70.79,70.79,0,0,1-8.08,1,46.11,46.11,0,0,1-8.14-.07,16.75,16.75,0,0,1-2-.36,5.57,5.57,0,0,1-1.88-.79,2.78,2.78,0,0,1-.73-.72.78.78,0,0,1,0-1,3.63,3.63,0,0,1,1.85-.83,38.68,38.68,0,0,1,8.12-.43h0a37.86,37.86,0,0,0-8.1.47,3.57,3.57,0,0,0-1.81.81.7.7,0,0,0,0,.9,2.63,2.63,0,0,0,.71.7,5.38,5.38,0,0,0,1.85.77,17.11,17.11,0,0,0,2,.36,45.88,45.88,0,0,0,8.12,0,68.08,68.08,0,0,0,8.06-1.05c1.33-.26,2.65-.56,3.95-.95a10.72,10.72,0,0,0,3.64-1.68,1.28,1.28,0,0,0,.48-.78c0-.27-.31-.49-.59-.65a8.71,8.71,0,0,0-1.89-.69,37.85,37.85,0,0,0-4-.79A120.33,120.33,0,0,0,199,222.28a77.61,77.61,0,0,0-16.18,1.26,15.85,15.85,0,0,0-3.81,1.29,4.65,4.65,0,0,0-1.56,1.21,2,2,0,0,0-.38,1.83,3.09,3.09,0,0,0,1.18,1.52,8.86,8.86,0,0,0,1.76,1,22.7,22.7,0,0,0,3.86,1.2A95.09,95.09,0,0,0,200,233.38c5.42.23,10.85.23,16.27.06s10.84-.51,16.23-1.12a74.63,74.63,0,0,0,8-1.31,10.52,10.52,0,0,0,3.75-1.46,2.5,2.5,0,0,0,.78-1.78,3.15,3.15,0,0,0-.7-1.84,10.16,10.16,0,0,0-3.11-2.56,26.09,26.09,0,0,0-3.67-1.72,50.16,50.16,0,0,0-7.82-2.21,88.51,88.51,0,0,0-16.16-1.58c-10.84.12-21.75.36-32.52-1.16a56.21,56.21,0,0,1-15.63-4.42c-1.23-.58-2.44-1.19-3.71-1.68a17.61,17.61,0,0,0-3.91-1,10.52,10.52,0,0,0-4,.24,6.64,6.64,0,0,0-3.4,2.09h0S150.41,211.9,150.42,211.89Z"/><path class="cls-4" d="M149.5,224.79a49.14,49.14,0,0,0,6.46,1.06,23.26,23.26,0,0,0,6.51-.3,10,10,0,0,0,3-1.15c1-.53,1.81-1.21,2.75-1.78a9.06,9.06,0,0,1,3.05-1.21,15.66,15.66,0,0,1,3.28-.24l0,.09a27.05,27.05,0,0,0-14.11-4.45,10.51,10.51,0,0,0-3.66.58,3.05,3.05,0,0,0-1.43,1.06,1.43,1.43,0,0,0,.1,1.66,4.56,4.56,0,0,0,3.32,1.38,4.87,4.87,0,0,0,3.45-1.17h0s0,0,0,0a5,5,0,0,1-3.48,1.25,4.71,4.71,0,0,1-3.44-1.38,1.61,1.61,0,0,1-.14-1.85,3.25,3.25,0,0,1,1.52-1.17,10.61,10.61,0,0,1,3.74-.59,25.62,25.62,0,0,1,7.42,1.27,26.33,26.33,0,0,1,6.75,3.32s0,0,0,.07l0,0a15.5,15.5,0,0,0-3.26.21,8.68,8.68,0,0,0-3,1.22c-.92.59-1.78,1.28-2.73,1.83a10.26,10.26,0,0,1-3.07,1.19A20.94,20.94,0,0,1,156,226a40.57,40.57,0,0,1-6.46-1.19h0S149.49,224.79,149.5,224.79Z"/><path class="cls-4" d="M172.09,230.16a36.56,36.56,0,0,0-5.54-.14c-.93,0-1.85.06-2.78.11l-2.77.23a29.6,29.6,0,0,1-5.57-.15A22.94,22.94,0,0,1,150,228.9h0a29.71,29.71,0,0,0,5.43,1.1,39.46,39.46,0,0,0,5.54.26c1.85-.07,3.7-.31,5.55-.39a26,26,0,0,1,2.79,0,14.33,14.33,0,0,1,2.77.31s0,0,0,0Z"/><path class="cls-4" d="M236,235.31a3.57,3.57,0,0,1,1.34-.69,8.38,8.38,0,0,1,1.48-.35,17.06,17.06,0,0,1,3-.16,33.81,33.81,0,0,1,6,.74c2,.38,3.92,1,5.88,1.41a60.5,60.5,0,0,0,6,1.07,93.4,93.4,0,0,0,12.05.77,66.42,66.42,0,0,0,12-.92h0v0a40.41,40.41,0,0,1-6,.87c-2,.17-4,.27-6.05.25a81.23,81.23,0,0,1-12.08-.87c-1-.13-2-.33-3-.49s-2-.39-3-.62c-2-.43-3.91-1-5.9-1.33a43,43,0,0,0-6-.74,16.78,16.78,0,0,0-3,.11,6.07,6.07,0,0,0-2.82,1h0Z"/><path class="cls-4" d="M281.48,232.55a2.63,2.63,0,0,0-1.78-1,8.06,8.06,0,0,0-2.08-.11,27.92,27.92,0,0,0-4.15.63,26.87,26.87,0,0,1-8.39-.33c-2.77-.45-5.5-1.11-8.22-1.81s-5.4-1.52-8.07-2.39a.07.07,0,0,1,0-.06l0,0a39.91,39.91,0,0,1,14.27-3.63,67.66,67.66,0,0,1,7.4,0,47.75,47.75,0,0,1,7.35.89,10.21,10.21,0,0,1,1.79.53,3.38,3.38,0,0,1,.83.46,1,1,0,0,1,.31.41.65.65,0,0,1-.06.53,3.25,3.25,0,0,1-1.61,1,15.91,15.91,0,0,1-1.8.48,39.58,39.58,0,0,1-7.37.71c-1.23,0-2.47,0-3.7-.1a11.6,11.6,0,0,1-3.63-.72,1,1,0,0,1-.62-.69.75.75,0,0,1,.41-.81,4.63,4.63,0,0,1,1.78-.52,21.65,21.65,0,0,1,3.69-.12,0,0,0,0,1,0,0h0a22.75,22.75,0,0,0-3.69.16,4.76,4.76,0,0,0-1.74.53.67.67,0,0,0-.36.72.88.88,0,0,0,.58.62,11.71,11.71,0,0,0,3.59.67c1.23.08,2.46.09,3.69.06a45,45,0,0,0,7.33-.75,13.16,13.16,0,0,0,1.77-.47,3,3,0,0,0,1.49-.91c.16-.23,0-.48-.19-.66a3.49,3.49,0,0,0-.78-.44,12.63,12.63,0,0,0-1.75-.52,47.2,47.2,0,0,0-7.32-.88,67.3,67.3,0,0,0-7.38,0,38.22,38.22,0,0,0-7.29,1.1,35.48,35.48,0,0,0-6.95,2.47v-.08a123.65,123.65,0,0,0,16.29,4.1,26.58,26.58,0,0,0,8.34.39,27.61,27.61,0,0,1,4.16-.6,8.71,8.71,0,0,1,2.1.15,2.67,2.67,0,0,1,1.79,1s0,0,0,0Z"/><path class="cls-4" d="M245.69,220.28a5.14,5.14,0,0,1,2.71-1.52,13.7,13.7,0,0,1,3.12-.36,23.43,23.43,0,0,1,3.14.19c1.05.13,2.08.34,3.1.51a96.63,96.63,0,0,0,12.48,1.14l12.55.33a12,12,0,0,1,1.57.13,2.34,2.34,0,0,1,.78.23l.36.19.31.26a4.9,4.9,0,0,1,1.44,2.79,10.35,10.35,0,0,1,.1,3.14,5.44,5.44,0,0,1-1.07,2.92,0,0,0,0,1,0,0s0,0,0,0a5.59,5.59,0,0,0,1-2.92,9.79,9.79,0,0,0-.15-3.1,4.72,4.72,0,0,0-1.42-2.66,4.41,4.41,0,0,0-2.89-.75c-4.18-.16-8.36-.2-12.54-.43s-8.36-.46-12.5-1.09a38.38,38.38,0,0,0-6.21-.72,13.43,13.43,0,0,0-3.1.32,5.2,5.2,0,0,0-2.72,1.42s0,0,0,0Z"/><path class="cls-4" d="M184.09,212.67l8.47,1c2.82.34,5.65.65,8.48.84s5.67.38,8.51.49,5.68.21,8.52.16h0a0,0,0,0,1,0,0,83.69,83.69,0,0,1-8.53,0c-2.84-.12-5.68-.31-8.51-.59l-8.49-.79c-1.42-.13-2.83-.31-4.24-.5s-2.81-.38-4.22-.61v0Z"/></g><path class="cls-8" d="M207.58,238.17s1.2,6.61,3.4,5.28c0,0,1.67,2.33,3-.2,0,0,2.36,1.55,3.48-.77,0,0,3.2,1,3.45-.84s-1.36-7-2.4-7-.52,1.75-.52,1.75-1-4.15-2.12-3.94-.82,1.61-.82,1.61-.62-1.38-1.43-1-.53,1.83-.53,1.83-.68-.6-1.6.46-.5,3.23-.5,3.23Z"/><path class="cls-17" d="M217.48,242.48a11.61,11.61,0,0,0,.59-2,23.09,23.09,0,0,0-.06-4"/><path class="cls-17" d="M215.07,234.08s1.42,8.41-1.07,9.17"/><path class="cls-17" d="M213.11,234.89s.83,8.1-2.13,8.56"/><path class="cls-17" d="M211,238.58s-.75,2.23-1.4,2"/><path class="cls-8" d="M568.08,181.07a93.24,93.24,0,0,1-2.76,14.12c-2.34,7.74-5.16,16.66-6.5,21.06a83,83,0,0,0-2.1,12,11.43,11.43,0,0,1-7.26-.28s1-17.54,2.06-28.6a246.45,246.45,0,0,1,4.32-26C560.44,174.7,565.52,180.63,568.08,181.07Z"/><path class="cls-8" d="M637,146.22c.89,0,14.3,18.34,14.3,18.34s1.79-7,2.81-11.85,3.06-14,3.06-14l6.26,1.45s-.51,40.66-6.13,41.67S633.91,166,633.91,166Z"/><path class="cls-14" d="M651.27,164.56a5.44,5.44,0,0,0,0,3.11"/><line class="cls-18" x1="658.31" y1="94.85" x2="662.7" y2="79.25"/><path class="cls-6" d="M643.2,129.5a3.48,3.48,0,0,0,1,2.18c1.11,1.1,3.12,2.65,5.08,2,2.93-1,4.47-2.79,6.11-2.23s12.12,11,14.88,10.58,3.06-9,.58-11.73l-10.13-6.46s.87-3.29.15-3.9a21.07,21.07,0,0,0-3.5-1.74s5.1-23.14,4.17-24.11a7.78,7.78,0,0,0-3-1.2,3.52,3.52,0,0,0-4,1.73C651.21,100.93,642.22,118.68,643.2,129.5Z"/><polyline class="cls-19" points="660.76 123.84 656.91 121.92 657.41 118.19"/><path class="cls-19" d="M658,133.33s.7-5.86,1.95-5.5-.19,7-.19,7"/><path class="cls-19" d="M662,136.66s.7-5.86,2-5.5-.19,7-.19,7"/><path class="cls-19" d="M650.72,102.36c.31.15,5.13,3,9.44,2.5"/><path class="cls-19" d="M655.6,93.5a10.32,10.32,0,0,0,6.09,1.2"/><path class="cls-19" d="M651.65,102.85s3.21-7.32,4.51-9.06"/><path class="cls-19" d="M659.18,104.91s1.4-6.71,1.74-10.14"/><path class="cls-19" d="M653.38,103.71s3.19-8,3.88-9.49"/><path class="cls-19" d="M656.07,104.52s2.3-7.35,2.9-9.87"/><path class="cls-19" d="M643.2,129.5a7.59,7.59,0,0,1,6.12,4.18"/><path class="cls-8" d="M657.18,139.71a26.71,26.71,0,0,0-2.6-5.05c-1.69-2.52-2.39-5.69-1.9-6.42s1.9-3.85,2.74-3.37.07,3.69-.21,4.61,3.07,4.4,4.33,5.17,5,3.1,5.18,4.08-1.42,1.75-1.42,1.75Z"/><path class="cls-7" d="M598,167.45s12.35,2,21.95-2.92c0,0-5.17-22-9-30.34-2.42-.57-4.43-1.31-5-2.4a6.14,6.14,0,0,1-.45-1c-1.73,2.14-4.67,4.61-8.87,4.11a19.72,19.72,0,0,1-11.07-5.3,3.55,3.55,0,0,1-.76,1c-.94.81-3.8,2-7.09,3.47A58.59,58.59,0,0,1,598,167.45Z"/><path class="cls-7" d="M568.58,183.85c.8-1.82,1.6-3.83,2.38-6,0,0,7.31,16.45,7.54,21.94,0,1,0,2.14,0,3.46,6.92-2.48,14-13.46,13.81-33.06-.14-18-12.84-28.83-19.28-34-3.62,1.82-6.94,3.91-8.15,6.13-2.1,3.87-6.68,18.51-10.09,29.85C557.69,175.66,563,181.47,568.58,183.85Z"/><path class="cls-8" d="M605.48,130.76c-1-3-.93-8.23-.93-8.23L587,120.93s.17,5.84-1.42,8.64a19.72,19.72,0,0,0,11.07,5.3C600.81,135.37,603.75,132.9,605.48,130.76Z"/><path class="cls-7" d="M620.9,136.13c-1.35-.38-3.31-.7-5.38-1.06,2.22,6.79,10.23,31.43,12.29,39.23.47,1.78.83,3.48,1.11,5,.74-8.25,1.24-15.22.89-18a20.18,20.18,0,0,0,5.16,6.45c3-6,6.58-10.63,8.16-15.17C635.9,143.38,623.22,136.8,620.9,136.13Z"/><path class="cls-11" d="M631.18,262c-1.25-13.49-4.91-32.46-5.14-44.8-.14-7.64,1.69-24.42,2.88-37.81-.28-1.57-.64-3.27-1.11-5-2.06-7.8-10.07-32.44-12.29-39.23-1.52-.26-3.11-.54-4.55-.88,3.79,8.34,9,30.34,9,30.34-9.6,4.88-21.95,2.92-21.95,2.92A58.59,58.59,0,0,0,577.69,134c-1.51.67-3.1,1.4-4.64,2.17,6.44,5.19,19.14,16,19.28,34,.15,19.6-6.89,30.58-13.81,33.06A153.92,153.92,0,0,1,577,222.07c-.15.8-.34,1.94-.55,3.33-.51,3.32-1.14,8-1.65,12.86-.42,3.94-.76,7.94-.88,11.24-.17,4.34.38,19.52,1,34.12a370.5,370.5,0,0,1-2.68,62.73l-4.16,47.24h12l17.47-77.2,8.79-31.12V314.5l1,79.09h12.56l8.62-79.09S632.44,275.44,631.18,262ZM574.84,238.3h0s.44-.43,1-1.08C575.28,237.87,574.84,238.3,574.84,238.3Zm1.44-1.49.85-.92Z"/><line class="cls-14" x1="570.96" y1="177.85" x2="572.27" y2="166.25"/><line class="cls-14" x1="629.81" y1="161.39" x2="628.5" y2="153.39"/><path class="cls-14" d="M580.67,228.64s-1.87,7.94-2.14,28.4,0,48.71,0,48.71l-7.33,87.84"/><path class="cls-14" d="M606.38,285.27s7.89-25.38,8.4-28.23l4.8-3.78"/><path class="cls-8" d="M582.61,105.05s-2.17-2.18-3.43-1.38-.57,6.52,3.43,7.89c0,0,2.86,15.27,14.29,16.38s12-17,12-17,1.48.91,2.4-1.6-1.83-7.89-2.63-7c0,0-.12-18.52-12.46-18.4S581.47,99,582.61,105.05Z"/><path class="cls-4" d="M580.8,103.75s-1.93-2.93,0-11.39,5.67-12.34,14.71-11.2,12.7,4.8,14.07,12.23A22,22,0,0,1,608.44,106s-.34-3.24-3.89-9-10.51-2.29-13.14-6c0,0-3.28,7.2-5.87,9s-2.24,6.52-2.24,6.52Z"/><path class="cls-14" d="M587,121.73s4.53,5.81,9.94,6.21a8.28,8.28,0,0,0,7.69-3.26"/><path class="cls-15" d="M578.92,99c.37,1.07,18.23-6.19,32-3.92,0,0-1.91-12.72-6.42-15.81A18.12,18.12,0,0,0,595.6,76a5.59,5.59,0,0,0-6-1.06c-3.83,1.34-3.71,3.51-3.71,3.51S574.76,86.9,578.92,99Z"/><path class="cls-16" d="M578.92,98a16.56,16.56,0,0,1-.91-5,16.45,16.45,0,0,0,.91,5.89c.37,1.07,18.23-6.19,32-3.92,0,0-.06-.36-.17-1C597,91.88,579.29,99.07,578.92,98Z"/><path class="cls-16" d="M585.89,78.47s2.64,2,2.64,4.18l-3.35-3.59S584.81,79,585.89,78.47Z"/><path class="cls-16" d="M595.6,76s2.23,2.36,1.91,4.54A6.07,6.07,0,0,0,597,76S596,75.36,595.6,76Z"/><path class="cls-4" d="M580,393.59H567.89l-13.54,6.64H579a1.63,1.63,0,0,0,1.62-1.87Z"/><path class="cls-4" d="M607.46,393.59h12.06l13.54,6.64H608.38a1.63,1.63,0,0,1-1.62-1.87Z"/><path class="cls-20" d="M544.79,248.18v-5.87a1.73,1.73,0,0,1,1.73-1.74h13.26a1.74,1.74,0,0,1,1.74,1.74v5.87"/><path class="cls-16" d="M589.71,263H589l-4.68-13.25a2.28,2.28,0,0,0-2.15-1.52H521.19A2.29,2.29,0,0,0,519,249.7L514.36,263h-.76a1.63,1.63,0,0,0-1.63,1.63v3.15h79.37v-3.15A1.63,1.63,0,0,0,589.71,263Z"/><path class="cls-4" d="M513.6,272.52h.76L519,285.77a2.29,2.29,0,0,0,2.15,1.52h60.93a2.28,2.28,0,0,0,2.15-1.52L589,272.52h.76a1.63,1.63,0,0,0,1.63-1.63v-3.16H512v3.16A1.63,1.63,0,0,0,513.6,272.52Z"/><line class="cls-21" x1="514.36" y1="262.95" x2="588.95" y2="262.95"/><rect class="cls-16" x="528.41" y="265.78" width="4.56" height="8.47" rx="1.3"/><rect class="cls-16" x="570.35" y="265.78" width="4.56" height="8.47" rx="1.3"/><path class="cls-21" d="M537.76,248.18l-.43,2.39a2.23,2.23,0,0,1-2.2,1.84H520.05"/><path class="cls-21" d="M565.56,248.18l.43,2.39a2.23,2.23,0,0,0,2.2,1.84h15.08"/><path class="cls-8" d="M549.56,226.39a18.39,18.39,0,0,1-1.9,7.87l0,.05a6.15,6.15,0,0,0,.49,6.25c1.43,2,1.78,2.43,2.15,1.74,0,0,.76,3,3,2.23,0,0,1.57,1.88,2.7.65,0,0,1.3,1,2.31.34s1-5.65,1-5.65l3,.7a13.7,13.7,0,0,1-1.64-4.59c-.38-2.56,0-2.42-.67-3.86s-3.45-3.84-3.42-5l-7-1.45Z"/><path class="cls-22" d="M556,245.18a17.9,17.9,0,0,1-.53-2.93c-.14-1.56-.08-3.59-.08-3.59"/><path class="cls-22" d="M553.25,244.53s-1.32-4.25-1.22-5.6"/><path class="cls-22" d="M550.27,242.3a14.49,14.49,0,0,1-1-3.46"/><path class="cls-22" d="M559.26,239.87a17.18,17.18,0,0,0-.18-2.56"/><rect class="cls-12" x="259.23" y="262.24" width="165.57" height="30.55" transform="translate(494.98 -135.51) rotate(71.27)"/><g class="cls-13"><path class="cls-4" d="M326.64,202.43a7.54,7.54,0,0,1,3.68,2.61,12,12,0,0,1,2,4.07,17.11,17.11,0,0,1,.46,2.24,19.49,19.49,0,0,1,.2,2.28c.05,1.53-.05,3.05-.1,4.57a63,63,0,0,0,2.3,18.06c3.17,11.78,8.21,22.93,13,34.12a98.87,98.87,0,0,1,5.39,17.47,57.63,57.63,0,0,1,1.11,9.07,29,29,0,0,1-.2,4.57,11.54,11.54,0,0,1-1.31,4.37,3.66,3.66,0,0,1-1.65,1.56,2.93,2.93,0,0,1-2.25,0,6.38,6.38,0,0,1-1.74-1.49c-.51-.57-1-1.17-1.44-1.78a87.37,87.37,0,0,1-4.88-7.73c-3-5.31-5.73-10.77-8.29-16.3s-4.95-11.15-7.09-16.86a105.58,105.58,0,0,1-5.2-17.52,26.91,26.91,0,0,1-.45-4.57,9.86,9.86,0,0,1,.25-2.29,3.61,3.61,0,0,1,1.14-2,2.52,2.52,0,0,1,2.26-.45,5.6,5.6,0,0,1,2,1.13,18.32,18.32,0,0,1,3,3.43,61.33,61.33,0,0,1,4.63,7.9c1.36,2.73,2.61,5.52,3.77,8.34a133.64,133.64,0,0,1,5.89,17.31,43,43,0,0,1,.9,4.49,9.9,9.9,0,0,1,.1,2.31,1.21,1.21,0,0,1-.55,1.06,1.65,1.65,0,0,1-1.18-.17,12.28,12.28,0,0,1-3.37-3.09c-1-1.19-1.86-2.43-2.71-3.7a77.75,77.75,0,0,1-4.58-7.91,51.8,51.8,0,0,1-3.48-8.45,19.06,19.06,0,0,1-.5-2.24,6.08,6.08,0,0,1,0-2.29,3.48,3.48,0,0,1,.43-1.06.88.88,0,0,1,1-.44,2.24,2.24,0,0,1,.94.66,6.83,6.83,0,0,1,.72.89,43,43,0,0,1,4,8.21v0h0a42.54,42.54,0,0,0-4-8.18,3.9,3.9,0,0,0-1.63-1.52.79.79,0,0,0-.93.41,3.23,3.23,0,0,0-.41,1,5.93,5.93,0,0,0,0,2.26,17,17,0,0,0,.5,2.22,52.47,52.47,0,0,0,3.5,8.42,79.48,79.48,0,0,0,4.61,7.88c.85,1.26,1.74,2.5,2.71,3.67a12,12,0,0,0,3.32,3,1.48,1.48,0,0,0,1,.16c.28-.13.37-.54.41-.9a10,10,0,0,0-.1-2.25,42.5,42.5,0,0,0-.92-4.46,138.41,138.41,0,0,0-5.88-17.28q-1.74-4.23-3.77-8.32a60.59,60.59,0,0,0-4.6-7.87,18.31,18.31,0,0,0-3-3.39,5.35,5.35,0,0,0-1.93-1.08,2.31,2.31,0,0,0-2.06.4,3.46,3.46,0,0,0-1.06,1.9,9.26,9.26,0,0,0-.23,2.24,25.54,25.54,0,0,0,.44,4.52,106.94,106.94,0,0,0,5.16,17.49c2.12,5.71,4.5,11.33,7,16.87s5.25,11,8.24,16.31a83.56,83.56,0,0,0,4.86,7.73c.45.61.92,1.22,1.42,1.78a6.69,6.69,0,0,0,1.72,1.47,2.87,2.87,0,0,0,2.19,0,3.64,3.64,0,0,0,1.6-1.53,11.63,11.63,0,0,0,1.29-4.33,30.07,30.07,0,0,0,.18-4.55,56.12,56.12,0,0,0-1.13-9.05A98.2,98.2,0,0,0,348,270.46c-4.85-11.16-9.86-22.35-13-34.16a62.94,62.94,0,0,1-2.25-18.1c.06-1.52.17-3,.12-4.57a19.12,19.12,0,0,0-.19-2.27,18.73,18.73,0,0,0-.45-2.23,11.79,11.79,0,0,0-2-4.06,7.42,7.42,0,0,0-3.65-2.61s0,0,0,0Z"/><path class="cls-4" d="M312.89,207.11a56,56,0,0,0,1.72,7.15,26.09,26.09,0,0,0,3.15,6.61,11.87,11.87,0,0,0,2.51,2.64c1,.75,2.05,1.35,3.05,2.07a10,10,0,0,1,2.58,2.62,17.58,17.58,0,0,1,1.68,3.29h-.11A30.34,30.34,0,0,0,325.92,215a11.77,11.77,0,0,0-2.19-3.53,3.46,3.46,0,0,0-1.73-1,1.59,1.59,0,0,0-1.66.83,5.13,5.13,0,0,0,0,4,5.53,5.53,0,0,0,2.71,3.07h0a5.48,5.48,0,0,1-2.82-3,7.31,7.31,0,0,1-.46-2.07,3.73,3.73,0,0,1,.39-2.1,1.82,1.82,0,0,1,1.86-.95,3.62,3.62,0,0,1,1.87,1.06,11.8,11.8,0,0,1,2.24,3.61,28.93,28.93,0,0,1,1.93,8.24,29.8,29.8,0,0,1-.48,8.43.06.06,0,0,1-.07,0,.1.1,0,0,1,0,0,17.29,17.29,0,0,0-1.63-3.28,9.63,9.63,0,0,0-2.59-2.58c-1-.7-2.09-1.28-3.08-2A11.8,11.8,0,0,1,317.6,221a23.55,23.55,0,0,1-3.14-6.67,45.51,45.51,0,0,1-1.6-7.19s0,0,0,0Z"/><path class="cls-4" d="M317.19,232.84a40.54,40.54,0,0,0-2.27-5.8c-.42-.95-.87-1.89-1.33-2.83l-1.45-2.77a34.68,34.68,0,0,1-2.27-5.83,24.87,24.87,0,0,1-1-6.17h0a35.26,35.26,0,0,0,1.23,6.1,43.53,43.53,0,0,0,2.16,5.84c.87,1.89,1.93,3.69,2.82,5.58a29.21,29.21,0,0,1,1.24,2.87,15.86,15.86,0,0,1,.88,3s0,0,0,0Z"/><path class="cls-4" d="M339.75,301.24a4.18,4.18,0,0,1,1.31,1.09,8.52,8.52,0,0,1,1,1.38,19.65,19.65,0,0,1,1.49,3.06,38.21,38.21,0,0,1,1.86,6.55c.47,2.22.73,4.48,1.11,6.71s.9,4.44,1.49,6.62a107.39,107.39,0,0,0,4.46,12.82,74.59,74.59,0,0,0,6.21,12s0,0,0,0h0a46.41,46.41,0,0,1-3.52-5.82c-1.05-2-2-4.06-2.89-6.16a91.12,91.12,0,0,1-4.37-12.87c-.3-1.1-.53-2.21-.8-3.31s-.45-2.22-.66-3.34c-.41-2.23-.7-4.47-1.19-6.68a48.49,48.49,0,0,0-1.84-6.52,19.94,19.94,0,0,0-1.43-3.07,6.93,6.93,0,0,0-2.21-2.5s0,0,0,0Z"/><path class="cls-4" d="M362.45,347.07a3.07,3.07,0,0,0,.23-2.27,9.5,9.5,0,0,0-.8-2.2,31.31,31.31,0,0,0-2.47-4,30.3,30.3,0,0,1-3.31-8.83c-.75-3.07-1.26-6.18-1.71-9.3s-.79-6.25-1.05-9.39a.06.06,0,0,1,.05-.06l0,0a44.87,44.87,0,0,1,10,13.18,76.63,76.63,0,0,1,3.25,7.65,53.77,53.77,0,0,1,2.29,8,13,13,0,0,1,.23,2.08,3.49,3.49,0,0,1-.12,1.06,1,1,0,0,1-.29.5.75.75,0,0,1-.57.17,3.68,3.68,0,0,1-1.74-1.23,17,17,0,0,1-1.29-1.65,45.22,45.22,0,0,1-3.95-7.31c-.56-1.27-1.07-2.56-1.51-3.88a12.9,12.9,0,0,1-.84-4.07,1.11,1.11,0,0,1,.44-.95.87.87,0,0,1,1,.07,5.29,5.29,0,0,1,1.32,1.62,24.7,24.7,0,0,1,1.73,3.77v0h0a25.68,25.68,0,0,0-1.77-3.75,5.26,5.26,0,0,0-1.31-1.57.77.77,0,0,0-.91-.06,1,1,0,0,0-.38.87,12.82,12.82,0,0,0,.87,4c.45,1.3,1,2.58,1.54,3.84a50.58,50.58,0,0,0,4,7.26,15.38,15.38,0,0,0,1.26,1.63,3.54,3.54,0,0,0,1.59,1.15c.31.06.51-.19.6-.5a3.2,3.2,0,0,0,.11-1,12.85,12.85,0,0,0-.22-2,53.92,53.92,0,0,0-2.28-8,74,74,0,0,0-3.17-7.66,43.61,43.61,0,0,0-4.32-7.06,39,39,0,0,0-5.59-6.11l.09-.05a139.5,139.5,0,0,0,2.85,18.65,30,30,0,0,0,3.24,8.8,31.19,31.19,0,0,1,2.44,4,9.4,9.4,0,0,1,.76,2.24,3,3,0,0,1-.28,2.3h0S362.44,347.08,362.45,347.07Z"/><path class="cls-4" d="M359.53,304.68a5.8,5.8,0,0,1,2.75,2.14A15.07,15.07,0,0,1,364,309.9a25.76,25.76,0,0,1,1.17,3.33c.32,1.13.55,2.29.82,3.43a111.12,111.12,0,0,0,4.27,13.41l5.13,13.13a15,15,0,0,1,.56,1.68,2.76,2.76,0,0,1,.09.9l0,.46-.13.44a5.56,5.56,0,0,1-2.27,2.7,11.15,11.15,0,0,1-3.21,1.48,6.26,6.26,0,0,1-3.48.17s0,0,0,0h0a6.23,6.23,0,0,0,3.44-.26,11.1,11.1,0,0,0,3.14-1.51,5.3,5.3,0,0,0,2.14-2.63,5,5,0,0,0-.49-3.32c-1.66-4.39-3.44-8.74-5-13.16s-3.17-8.85-4.32-13.42a43,43,0,0,0-2-6.73,15.23,15.23,0,0,0-1.68-3.07,5.85,5.85,0,0,0-2.66-2.19v0Z"/><path class="cls-4" d="M340.52,237.62l2.69,9.18c.88,3.07,1.79,6.13,2.83,9.15s2.09,6,3.21,9,2.27,6,3.56,8.88c0,0,0,0,0,0h0c-1.41-2.86-2.64-5.82-3.76-8.81s-2.16-6-3.11-9.06L343,246.86c-.48-1.53-.91-3.06-1.33-4.6s-.84-3.08-1.21-4.64h0Z"/></g><path class="cls-8" d="M332,321.31l-4.55-7.3-3.6-5.77L321.13,310l1,3.4-2.34-2.58-5.71,3.56s2.61,5.94,2.83,6.29-4.15-5.46-4.15-5.46l-3,1.86,2.22,4.72-3.36-4-3.6,2.25.42.68L313.2,333a10.86,10.86,0,0,0,3.39,3.42l17-10.61A11,11,0,0,0,332,321.31Z"/><path class="cls-4" d="M333.59,325.85l-17,10.61A11.12,11.12,0,0,0,326,337.7a2.39,2.39,0,0,0,.16.32L337,355.38a2.69,2.69,0,0,0,3.71.86h0a2.7,2.7,0,0,0,.86-3.71l-10.85-17.37a2.78,2.78,0,0,0-.21-.27A11.2,11.2,0,0,0,333.59,325.85Z"/><polygon class="cls-12" points="312.01 321.74 316.59 328.08 310.51 316.57 309.79 317.02 312.01 321.74"/><polygon class="cls-12" points="322.15 313.35 325.61 318.13 321.66 309.61 321.13 309.94 322.15 313.35"/><polygon class="cls-12" points="316.93 320.62 317.9 322.33 314.84 313.87 314.1 314.33 316.93 320.62"/><path class="cls-23" d="M373.76,292.48l1.92-.21.89,8.42a8.6,8.6,0,0,1-3,7.53L359,320.4a2.71,2.71,0,0,0-.95,2.35l.38,3.53"/><rect class="cls-4" x="308.16" y="291.41" width="67.71" height="8.88" rx="3.38" transform="translate(-29.35 37.8) rotate(-6.07)"/><path class="cls-5" d="M362,360.49h0a3.12,3.12,0,0,1-3.43-2.76l-3.08-29a3.12,3.12,0,0,1,2.77-3.42h0a3.12,3.12,0,0,1,3.42,2.77l3.08,29A3.12,3.12,0,0,1,362,360.49Z"/><rect class="cls-7" x="311.55" y="287.92" width="60.92" height="15.87" rx="5.29" transform="translate(-29.35 37.8) rotate(-6.07)"/><path class="cls-5" d="M384.87,395.88a78.38,78.38,0,0,1-50.25,0V334.3h50.25Z"/><path class="cls-14" d="M334.62,334.3s3.87,34.27,25.12,34.27,25.13-34.27,25.13-34.27"/><path class="cls-24" d="M335.88,334.3a1.28,1.28,0,0,0-1.28,1.27c0,4.63.12,20.33,3.13,20.24,3.53-.11,2-10.95,4.22-10.76,1.29.12,1.3,1.48,1.68,2.4.7,1.66,1.87,1.19,2.63-.11.88-1.5.57-3.26,1.07-4.89a1.32,1.32,0,0,1,2.42-.29,2.88,2.88,0,0,1,.37,1.38c.2,2.57-.73,5.08-.56,7.65a5.47,5.47,0,0,0,1.12,3.38c2,2,3.47-1.14,4-2.63a24.05,24.05,0,0,0,.92-7.12c0-.73-.18-3.14.79-3.4,1.73-.46,2.61,3.51,3.1,4.53.93,1.93,3,1.92,3.18-.39a6,6,0,0,1,1.73-4A1.64,1.64,0,0,1,367,342c.69,1,.21,2.71,0,3.78-.8,4.12-2.28,9.55.09,13.43,1,1.67,3.6,3.41,5.62,2.52,1.38-.61,1.82-2.28,2-3.64.48-3.22-.18-6.45-.49-9.66-.61-6.23,1.3-9.15,3.21-6.63s.78,5.78,4.61,4.85c3.06-.75,3-8.2,2.91-11.18a1.28,1.28,0,0,0-1.28-1.21Z"/><ellipse class="cls-25" cx="359.74" cy="334.3" rx="25.13" ry="3.37"/><ellipse class="cls-26" cx="359.8" cy="334.76" rx="25.07" ry="3.22"/><path class="cls-7" d="M339.62,397a60.32,60.32,0,0,1-38.72,0V349.6h38.72Z"/><path class="cls-14" d="M300.9,349.6s3,26.41,19.36,26.41,19.36-26.41,19.36-26.41"/><ellipse class="cls-27" cx="320.26" cy="349.6" rx="19.36" ry="2.59"/><ellipse class="cls-5" cx="320.3" cy="349.96" rx="19.32" ry="2.48"/><path class="cls-5" d="M160.64,111.3l-146.24.19a11.94,11.94,0,0,1-12-11.92l0-36.25A7.31,7.31,0,0,1,9.7,56l155.5-.21a7.31,7.31,0,0,1,7.32,7.31l0,36.25A11.94,11.94,0,0,1,160.64,111.3Z"/><path class="cls-28" d="M154.91,111.31a12.64,12.64,0,0,0-12.66-12.62l-109.5.14a12.64,12.64,0,0,0-12.62,12.66"/><line class="cls-28" x1="32.09" y1="102.04" x2="143.11" y2="101.89"/><line class="cls-28" x1="32" y1="105.15" x2="143.02" y2="105.01"/><line class="cls-28" x1="31.91" y1="108.26" x2="142.93" y2="108.12"/><rect class="cls-28" x="8.84" y="61.74" width="157.28" height="23.65" rx="4.79"/><path class="cls-8" d="M99.65,132.4c-2.59-.41-3-1.12-4-5.64-1-4.91-21,.71-21,.71s2,6.36,2,10.25C82.37,138.23,94.39,138.47,99.65,132.4Z"/><path class="cls-8" d="M59.26,146a73.32,73.32,0,0,1,2.7-12.2C64.07,126.72,66,121,66,121l-7.83-1.16s-11.58,20.36-14.51,27.4-4.38,9.65,1.25,16.22l.37.41A23.66,23.66,0,0,1,59.26,146Z"/><path class="cls-8" d="M99.09,61.74,94,65.49s11.9,30.77,12.84,37.11c.61,4.17.52,12.38.38,18.33,4-1.18,10.93-2.27,17,1.47-2.24-10.42-5.49-21.8-5.68-25.11C118.34,93.2,99.09,61.74,99.09,61.74Z"/><path class="cls-7" d="M107.22,120.93c-.07,3.09-.15,5.57-.15,6.54,0,2.84-3.47,5.44-6.71,5l-.71-.1c-5.26,6.07-17.28,5.83-23,5.32a3.52,3.52,0,0,1-.8,2.68c-2.35,1.88-7.31,6.5-11.06,6.81s-5.54-.73-5.54-.73,0-.19,0-.53a23.66,23.66,0,0,0-13.95,18c5.8,6.34,18,10.24,18,10.24l5.44,49.74L123.9,225s-1.81-32.57.55-48.38,3-35.42,1.17-47.1c-.36-2.25-.83-4.67-1.36-7.14C118.15,118.66,111.23,119.75,107.22,120.93Z"/><path class="cls-4" d="M154.11,393H141l-14.75,7.23h26.88a1.78,1.78,0,0,0,1.77-2Z"/><path class="cls-4" d="M69.65,393H56.52l-14.75,7.23H68.66a1.77,1.77,0,0,0,1.76-2Z"/><line class="cls-29" x1="63.31" y1="174.14" x2="62.38" y2="164.43"/><path class="cls-29" d="M106.62,101.48a3.68,3.68,0,0,1,3.45-2.17"/><path class="cls-11" d="M133.27,300s-6.28-32.25-5.71-49.38a96.58,96.58,0,0,0-3.41-29h0l-.91-23.38c-11-2.46-14.5-15.91-15-21.78l-3.63.26c-.55-4.31,2-47.52,2-47.52-2-.11-2.72,2.59-2.72,2.59C101.53,142.07,101,174.51,101,177l-8.82.63s-13.25-26.71-23.62-31.8l-3.79,1.36s14.34,6.94,22.9,30.76l-3.44.24c-1.78,14.58-18.47,18.44-18.47,18.44l2.61,23.42a196.19,196.19,0,0,0-3.33,31.73c-.28,24-1.71,48.24-1.71,48.24l-6.76,93H69.52L88.7,307.85a135.9,135.9,0,0,1,4.42-15.35l3.9-11L104.73,300,141,393h13.13Z"/><path class="cls-8" d="M58.2,119.87a46.32,46.32,0,0,1,.15-6.15c.31-1.48,3.31-4.35,5.29-4.33,0,0,1.51-2.84,2.83-2.35s1.92,4.92,3.06,5.11,2.81-3.38,2.81-3.38.9,4.52,0,5.64a16.24,16.24,0,0,1-3,3.16,35.6,35.6,0,0,0-3.59,3.7Z"/><path class="cls-4" d="M64.88,103.9c-.42.63-.52,7.41,2.19,11.79s1.67,2.4,3.86,9.08c1.15,3.49,4,5.67,7.17,7.23,4.53,2.24,10.32,4.67,13.92-.44,2-2.82,3.54-2.09,6.15-9.81s2-17.87-.52-21.36-8.4-9.33-13.75-9.74-7.23,1.46-7.23,1.46-5.11-.73-7.93,2.08S64.88,103.9,64.88,103.9Z"/><path class="cls-8" d="M101.14,65.35a16.71,16.71,0,0,1-1.93-7.11v-.05a5.57,5.57,0,0,0-3.13-4.77c-2-1-2.48-1.16-2.48-.45,0,0-1.91-2-3.35-.47,0,0-2.08-.81-2.44.67,0,0-1.46-.2-2,.73s1.67,4.94,1.68,5a3,3,0,0,0-2.08-1.52,1.43,1.43,0,0,0-.68.06c-.24.09-.23.07-.19.27a2.74,2.74,0,0,0,.44.63c1,1.43,2,2.87,3.11,4.27,1.43,1.87,1.05,1.93,2.23,2.78s4.44,1.55,4.92,2.49l6.19-1.9Z"/><path class="cls-30" d="M87.81,53.17a16.6,16.6,0,0,1,1.71,2.1c.79,1.18,1.63,2.83,1.63,2.83"/><path class="cls-30" d="M90.25,52.5s2.91,2.81,3.42,3.93"/><path class="cls-30" d="M93.6,53a13.63,13.63,0,0,1,2.3,2.33"/><path class="cls-30" d="M87.5,58.85a15.7,15.7,0,0,0,1.26,2"/><polyline class="cls-9" points="97.02 281.49 104.35 265.88 114.43 259.6"/><path class="cls-9" d="M74.09,221.92s-3,23.22-3.61,39.21S60.77,393,60.77,393"/></g></g></svg>