<svg xmlns="http://www.w3.org/2000/svg" viewBox="0 0 2813.06 1636.64"><defs><style>.cls-1{fill:#e5edeb;}.cls-2{fill:#4d7bcb;}.cls-3{fill:#ffee9b;}.cls-4{fill:#fff7cf;}.cls-5{fill:#5b007c;}.cls-6{fill:#3f3c43;}.cls-7{fill:#f7b28b;}.cls-8{fill:#54688b;}.cls-9{fill:#002b32;}.cls-10{fill:#fd5e5a;}.cls-11{fill:#fc7575;}.cls-12{fill:#383d43;}.cls-13{fill:#3a556e;}.cls-14{fill:#3a1425;}.cls-15{fill:#691c15;}.cls-16{fill:#1d1b22;}.cls-17{fill:#e88c66;}.cls-18{fill:#393644;}.cls-19{fill:#e06633;}.cls-20{fill:#ffdec9;}.cls-21{fill:#fff;}.cls-22{fill:#2e0a29;}.cls-23{fill:#172866;}.cls-24{fill:#1b2b80;}.cls-25{fill:#2f499f;}.cls-26{fill:#023135;}.cls-27{fill:#7095b9;}.cls-28{fill:#0f1d5b;}.cls-29{fill:#375866;}.cls-30{fill:#1a2a63;}.cls-31{fill:#d24307;}.cls-32{fill:#99c8f2;}.cls-33{fill:#96c7f6;}.cls-34{fill:#c0ddfa;}.cls-35{fill:#abd2f8;}.cls-36{fill:#1e3340;}.cls-37{fill:#381a3f;}.cls-38{fill:#653870;}.cls-39{fill:#333643;}.cls-40{fill:#26253a;}.cls-41{fill:#4c5063;}.cls-42{fill:#31003d;}.cls-43{fill:#1b2e96;}.cls-44{fill:#353535;}.cls-45{fill:#696969;}.cls-46{fill:#7c8bde;}.cls-47{fill:#460e02;}.cls-48{fill:#ea5353;}.cls-49{fill:#ee66b2;}.cls-50{fill:#be2703;}.cls-51{fill:#8c1c03;}.cls-52{fill:#ff8d8d;}.cls-53{fill:#4f005e;}.cls-54{fill:#42004a;}.cls-55{fill:#6a0084;}.cls-56{fill:#a02103;}.cls-57{fill:#9e9e9e;}.cls-58{fill:#7d87b7;}.cls-59{fill:#979fc5;}.cls-60{fill:#b8b8b8;}.cls-61{fill:#61567c;}.cls-62{fill:#2d1175;}.cls-63{fill:#b96e16;}.cls-64{fill:#fabe78;}.cls-65{fill:#5d68a7;}.cls-66{fill:#f98a8a;}.cls-67{fill:#ea7373;}.cls-68{fill:#d86666;}.cls-69{fill:#94bbff;}.cls-70{fill:#777caa;}.cls-71{fill:#2b3278;}.cls-72{fill:#e3e4ff;}.cls-73{fill:#3e2720;}.cls-74{fill:#bbdfff;}.cls-75{fill:#4083bf;}.cls-76{fill:#6188cb;}.cls-77{fill:#2a5780;}.cls-78{fill:#2c4053;}.cls-79{fill:#8cb5d9;}.cls-80{fill:#d86b47;}</style></defs><title>Asset 1</title><g id="Layer_2" data-name="Layer 2"><g id="_Layer_" data-name="&lt;Layer&gt;"><path class="cls-1" d="M254.19,1564.6S663.43,905.94,1415.27,754.32c399.37-80.54,568.41-414.61,873.77-465.15S2693.77,689,2747,1034.48s-28.7,542.29-28.7,542.29Z"/><path class="cls-2" d="M811.39,1124.24c6.19,2.39,9.89,4.25,9.89,4.25a250.24,250.24,0,0,0-31.16-38c-19.2-19.19-16.56-22.64-40-18.6s-35.58-6.46-40.43-6.46c-2.45,0-5.48,10.47-9.39,20.36A150.41,150.41,0,0,0,677,1096.56c-5.45-5.62-9.37-12.56-18.3-12.56-8.41,0-10,16.39-14.75,29.65a187.81,187.81,0,0,0-17.84,11.13c-.08-12.08,14-41.59,14-41.59S590,1099.37,590,1108.27s33.15,24.26,18.6,24.26-30.74-23.46-30.74-23.46-26.08,13.75-21.12,29.12-11.16,20.9-16.46,26.2l0,0c-12.29,4.36-27.91,13.13-34.63,19.85-11.32,11.33,20.76,77.91,12.4,86.27s-25.34-64.7-25.34-71.71c0-4-3.62-4.37-8.3-1.15,13.58-75.12,34.63-140,67.42-173,12.89-13.41,28.49-21.47,40.24-28.49l.46-.28c-2.42,3.91-4.52,10.86-4.52,23.35,0,29.51,76,39.27,64.69,28s-23.86-46.2-17.79-46.2,16.18,36.8,32.35,44.48,35.18-12.94,35.18-12.94-50.75-38.21-45.7-43.26,48.93,46.09,61.06,50.95,34.37-18.6,34.37-18.6-83.7-44.89-81.34-52.57,77.7,47.71,89.43,44.07,21.84-27.09,21.84-27.09-84.92-28.71-81.68-35.58,71.16,30.32,80.87,28.3S786.1,949,786.1,944.1s-52.36-11.93-57.42-17,51.35,9.3,55.4,9.3,8.49-4.85,4.45-14.15-7.69-40-7.69-40c-4.85,0-26.28-17-29.92-20.62s-17.39,28.71-22.64,28.71,15.36-29.12,15.36-36-12.94-12.94-23.45-12.94S693.5,911.6,688.65,911.6s17-71.83,13.75-75.06-12.54-8.09-31.95-5.26S662,916.2,655.09,923.07s0-86.94,0-89.36-24.26,4-32.76,12.54,6.07,87.74,0,93.8-10.91-75.61-10.91-84.1-7.69-9.3-29.52,18.19c-6,7.59-7.1,15.9-5.58,24-34.38,15.18-27.53,70.24-12.62,85.15,7.57,7.57,16.69,9.44,23.85,9.45-32.91,19.4-53,32.61-75.47,83.94,0-17.37-1.94-55-11.32-64.41s11.32-4.31,11.32-14-1.08-46.9-5.39-51.22-15.63,29.66-22.64,22.65S504,941.67,504,939s-15.63-53.37-19.41-53.37-1.07,22.11-11.86,27.5,5.93-31.27,5.93-42.59-11-13.75-23.72-26.42S428,809,428,809s10.78,37.74,27.49,70.09c15.76,30.5,20,143.86,20.45,156.73a1.84,1.84,0,0,0-.5,1.23c-.93,66.45-1.82,124.33-2.65,174.81-.76,2.2-.74,5.26-.15,9,0,1,0,2.07-.05,3.11-1.2,8-2.34,16.25-3.42,24.65-3.66-10.94-6.07-19-6.07-19s-2.08,2.22-5,5.88c-1.66-9.76-5.22-17.32-11.21-19.63,0,0-2.92,3-7.22,7.06-1.91-63.76-5.13-120.79-10.43-154.8-1.25-6.7-2.31-13.3-5.13-20.58,3.9-.07,9.07-1.22,15.94-4.44,22.75-10.66-4.17-87.66-7.75-72.69s-24.78,39.75-27.53,33.89,21-28.93,19.62-47.35-25.92-29.36-25.92-29.36-6.44,62.88-12.63,59.82,13.35-64,11.59-77.45-29.91-26.53-29.91-26.53,3.35,97.16-3.63,97.66,1.54-92.39-6.57-102.42-30.77-11.34-30.77-11.34,16.36,92.5,9.6,91.85-8.89-79.79-14.85-88.45-25.25,6.11-29,7.87,14.54,55,12.94,61.67-16.11-53-17.94-57-7.59-6.46-12.92.81S247,906,247,906c2.2,4.69-1.17,31.56-2.33,36.39s30,6.46,32.39,11.54-29.4-4.35-34.69-1.87-4.11,17.19.65,27.36,66.19.47,68.39,5.16-63,9.5-64.06,13.8-.55,15,10.42,32.79,69.28-22.44,77.69-18.27-67,31.38-68.85,32.26,14.11,22,24.5,27.16,64.86-37.54,72.28-33.87-53.31,37.86-59.86,40.92-3.68,10.8,27.4,22c8.57,3.09,15.46,1.13,21-3.27,26.15,26.65,63.35,3.37,70.56-16,3.6,29.57,6,71,7.55,117.54-6.66-11.4-20.29-24.27-26.86-17.69-8.9,8.89-18.2,47.31-28.31,37.2s25.07-36.39,21-51.76-17.71-28.6-22.85-23.45-3.83,57.42-10.3,51,9.6-58.54,4.85-63.29-28.84-27.29-37.74-18.39,10.51,56.88,5.39,51.75-17.79-58.76-24.8-65.77-18.09,1.79-24.8-4.92c0,0-1.35,14.89-4.85,18.4s34,35,29.11,35-35.58-28.57-35.58-28.57,2.43,30.46,9.16,37.2,42.6,12.4,42.6,18.33-46.37-7.55-46.37-7.55,9.16,35,25.34,39.36,41.51,1.08,41.51,7-31.81,2.15-31.81,2.15,7.55,43.14,28.58,43.14,23.42-3.78,23.42,3.77-16.41-5.39-16.41,8.09,15.25,40.51,23.18,32.58c4.26-4.26,7.12-10.44,8.86-15.28a1326.83,1326.83,0,0,1,33.75,174h6.52a1328.05,1328.05,0,0,0-35-179.45c7.09,4.38,25.46,15.17,40.33,19.15-.94,8.49-.26,25.54,4.62,40.78.25,42.53.14,83.8-.08,119.52h9.57c.12-30.53.12-65.14-.11-101.18a29.94,29.94,0,0,0,10.3,8.5,46,46,0,0,0,5,2c-2.23,31.19-3.93,62-5.19,90.65h8.7c.83-27.78,2.06-57.78,4-88.81a44.5,44.5,0,0,0,5.13.54c-.71,36.22-1.33,65.11-1.83,88.27h6.36c.32-26.11.68-56.32,1.05-88.43a51.75,51.75,0,0,0,19.37-5.74c-8,27-12.28,60.84-14.24,94.17h5.91c1.36-27.29,4.11-54.51,8.94-77.09a74.41,74.41,0,0,0,5.89,20c12.4,28.58,65.23,16.18,65.23,16.18-32.34,0-41.51-54.45-31.8-58.77s4.31,45.29,36.12,52.84,41.51-17.79,41.51-17.79c-24.8-4.86-69.27-45.55-60.91-53.92s49.59,48.53,66.3,48.53,35-44.22,35-44.22c-20.49,11.87-87.34-19.41-93.57-30.19s66.07,28.58,92.49,23.73,24.8-51.23,24.8-51.23c-8.36,8.36-80.87.54-88.42-7s71.71,3.77,86.8-3.78S685.15,1233,685.15,1233s-55,11.65-69,7.88,57.69-10.79,64.16-27-9.5-53.7-9.5-53.7c-7.41,7.41-30.74,1.28-40.43.18,26.4-12.65,57.24-27.22,70.48-32.75C723,1118.43,783,1115.76,811.39,1124.24ZM363.6,1088.4a19.09,19.09,0,0,0-4.2,1.48c9.21-13.18,13.32-31.5,15.78-30.28C379.38,1061.68,373.23,1086.27,363.6,1088.4ZM431,1230.81c-11.05,9.69-24.51,19.82-28.59,15.75-6-6,19-19.52,28.21-30Q430.78,1223.62,431,1230.81Zm30.8,85.17q-.53,5.7-1,11.42c-5.72-.74-13.05-10.27-19.31-18.57,0-2-.05-4.11-.08-6.17.48-.11,1-.15,1.46-.3a10.89,10.89,0,0,0,4.61-3.62C452.48,1305.68,458,1311.43,461.75,1316ZM579.88,915.39a28,28,0,0,0,.41-5.21c7.51,16.37,21.41,29.89,19.4,31.9C596.26,945.51,577.85,926.71,579.88,915.39Zm-102.62,280c.68-78.57,1-142.92.37-157.16,6.22,6.75,2.32,41.16,11.81,50.65,5.49,5.49,11.59,6.6,16.07,3.83-2,5.19-4.06,10.68-6.15,16.56-1.67,5.24-10.75,32.6-14.24,48.4C482.3,1169.11,479.69,1181.82,477.26,1195.37Zm21.34,110.76c-5.67,2.43-14.57-16.78-22-36.57.08-7.91.16-15.8.23-23.62.32-2.33.64-4.64,1-7C487.62,1266.47,506.35,1302.81,498.6,1306.13Zm63.62-65.77c-14,0-6.67-45.26-5.17-66.53,3.15,1,6.44,2,9.64,2.94C566.62,1199.64,574.91,1240.36,562.22,1240.36Zm62.43-77.21c-5.58,9.45-9.77,39.35-19.3,41.62-8.55,2,2.28-23.58,8.09-36.22Z"/><path class="cls-2" d="M528.44,1557H383c-35.47-10.44-58.86-28.28-58.86-48.54,0-19,20.67-36,52.63-46.6H534.67c32,10.63,52.64,27.55,52.64,46.6C587.31,1528.75,563.91,1546.59,528.44,1557Z"/><rect class="cls-3" x="999.93" y="7.99" width="859.81" height="843.83" transform="translate(1859.74 -999.93) rotate(90)"/><rect class="cls-4" x="1024.12" y="16.21" width="811.42" height="827.38"/><rect class="cls-5" x="1130.5" y="287.1" width="36.2" height="3.09"/><rect class="cls-5" x="1053.98" y="180.38" width="112.72" height="3.09"/><rect class="cls-5" x="1053.98" y="453.87" width="109.47" height="3.09"/><rect class="cls-5" x="1144.06" y="181.93" width="1.03" height="273.49"/><rect class="cls-5" x="1116.26" y="181.93" width="1.03" height="273.49"/><rect class="cls-5" x="1098.76" y="181.93" width="1.03" height="273.49"/><rect class="cls-5" x="1084.35" y="181.93" width="1.03" height="273.49"/><rect class="cls-5" x="1065.31" y="181.93" width="1.03" height="273.49"/><rect class="cls-5" x="1166.71" y="169.41" width="463.76" height="1.03"/><rect class="cls-5" x="1165.68" y="156.37" width="580.57" height="1.03"/><rect class="cls-5" x="1165.94" y="139.89" width="580.31" height="1.03"/><rect class="cls-5" x="1163.45" y="575.68" width="254.61" height="1.03"/><rect class="cls-5" x="1163.45" y="590.78" width="467.01" height="1.03"/><rect class="cls-5" x="1163.45" y="621.67" width="467.01" height="1.03"/><rect class="cls-5" x="1163.45" y="639.17" width="576.65" height="1.03"/><rect class="cls-5" x="1357.66" y="455.41" width="1.03" height="191.99"/><rect class="cls-5" x="1417.54" y="512.03" width="1.03" height="70"/><rect class="cls-5" x="1457.52" y="464.68" width="1.03" height="134.34"/><rect class="cls-5" x="1504.7" y="500.71" width="1.03" height="98.31"/><rect class="cls-5" x="1557.55" y="500.71" width="1.03" height="98.31"/><rect class="cls-5" x="1629.95" y="471.2" width="1.02" height="156.13"/><rect class="cls-5" x="1162.93" y="464.68" width="1.03" height="182.72"/><rect class="cls-5" x="1739.58" y="408.06" width="1.03" height="239.34"/><rect class="cls-5" x="1500.8" y="110.56" width="3.09" height="21.62"/><rect class="cls-5" x="1506.01" y="120.85" width="79.16" height="1.03"/><path class="cls-5" d="M1506.43,121.36a7.64,7.64,0,0,1,1.63,4.68,14.08,14.08,0,0,0-5.71-4.68,14.68,14.68,0,0,0,5.71-4.67A7.82,7.82,0,0,1,1506.43,121.36Z"/><polygon class="cls-5" points="1103.49 547.55 1057.07 547.55 1057.07 546.52 1102.96 546.52 1224.8 379.43 1225.63 380.04 1103.49 547.55"/><rect class="cls-5" x="1113.35" y="336" width="38.43" height="3.09"/><rect class="cls-5" x="1092.76" y="354.36" width="59.02" height="3.09"/><rect class="cls-5" x="1075.6" y="392.1" width="80.3" height="3.09"/><rect class="cls-5" x="1165.16" y="132.17" width="3.09" height="43.24"/><rect class="cls-5" x="1745.73" y="132.17" width="1.03" height="43.24"/><rect class="cls-5" x="1629.95" y="149.33" width="1.02" height="28.82"/><rect class="cls-5" x="1451.12" y="146.59" width="1.03" height="28.82"/><rect class="cls-5" x="1060.68" y="532.62" width="21.1" height="6.69"/><rect class="cls-5" x="1534.21" y="102.52" width="50.96" height="8.04"/><rect class="cls-5" x="1543.76" y="665.42" width="163.37" height="10.29"/><rect class="cls-5" x="1604.24" y="686" width="86.3" height="8.24"/><path class="cls-6" d="M1164.82,176.78V455.41h17.84V438.94h-1.37V296.88h1.89V280.41h-1.89V193.25H1229v87.16h-25.74v16.47h99.85v45.3h39.64v96.76H1206v16.47h249.08l49.41,40.67h54.16l45.81-35.52h26V193.25h101.4v200.4h16.47V176.78Zm194.39,120.1H1438v58.68h-78.75Zm0-16.47V193.25h32.94v87.16Zm78.75,0h-37.58V193.25H1438Zm-200.74-87.16h105.52v87.16H1237.22Zm74.12,140.69V296.88h31.4v37.06Zm47.87,105V363.8H1438v75.14ZM1614,444.09h-15.17L1553,479.6H1510.4L1461,438.94h-6.56V193.25H1614Z"/><polygon class="cls-6" points="1215.09 500.71 1215.09 517.18 1417.04 517.18 1467.79 558.08 1478.13 545.25 1422.85 500.71 1215.09 500.71"/><rect class="cls-7" x="1132.56" y="803.44" width="492.88" height="23.3"/><rect class="cls-7" x="1357.66" y="749.28" width="316.58" height="23.7"/><rect class="cls-7" x="1103.1" y="37" width="423.7" height="16.79"/><path class="cls-2" d="M2242.36,839c-5.13-2.4-35.88,6.73-33.57,1.81s32.45-6.49,31.33-11.16-4.38-30.67-2.25-35.21c0,0-21.32-14.14-26.48-21.18s-10.73-4.56-12.5-.78-15.81,61.6-17.36,55.1,16.14-58,12.52-59.68-22.3-16-28.06-7.6-7.81,85-14.36,85.58,9.29-88.88,9.29-88.88-21.92,1.27-29.78,11,.41,99.58-6.35,99.1-3.52-94.5-3.52-94.5-27.24,12.62-28.94,25.67,17.19,72,11.21,75-12.22-57.88-12.22-57.88-23.71,10.58-25.08,28.41,21.64,40.14,19,45.81-23.18-18.3-26.64-32.79-29.51,60-7.5,70.34c6.65,3.12,11.65,4.23,15.43,4.3-2.73,7-3.76,13.42-5,19.91-5.13,32.91-8.25,88.1-10.09,149.8-4.17-3.95-7-6.84-7-6.84-5.79,2.24-9.23,9.55-10.84,19-2.85-3.54-4.87-5.68-4.87-5.68s-2.33,7.85-5.87,18.43c-1.05-8.13-2.15-16.1-3.31-23.85,0-1,0-2,0-3,.57-3.58.59-6.55-.14-8.67-.81-48.85-1.66-104.86-2.56-169.15a1.83,1.83,0,0,0-.49-1.2c.42-12.45,4.54-122.15,19.79-151.66,16.17-31.3,26.6-67.82,26.6-67.82s-13.82,21.65-26.08,33.91-23,14.61-23,25.56,16.17,46.44,5.74,41.22-7.82-26.6-11.48-26.6-18.78,49-18.78,51.64,26.09,23,19.31,29.74-17.74-26.08-21.92-21.91-5.21,40.17-5.21,49.56,20.08,4.43,11,13.56-10.93,45.52-11,62.33c-21.69-49.66-41.18-62.44-73-81.23,6.94,0,15.76-1.81,23.08-9.14,14.43-14.43,21.07-67.7-12.21-82.39,1.47-7.87.44-15.91-5.39-23.25-21.13-26.61-28.57-25.83-28.57-17.61s-4.69,87.25-10.56,81.38,8.22-82.55,0-90.77-31.7-14.48-31.7-12.13,6.66,93.13,0,86.47,3.92-86.08-14.86-88.82-27.78,2-30.92,5.09,18,72.63,13.31,72.63S1790.13,732,1780,732s-22.69,5.87-22.69,12.53,20,34.82,14.87,34.82-18.4-31.3-21.92-27.78-24.26,20-29,20c0,0-3.52,29.74-7.44,38.74s.4,13.69,4.31,13.69,58.49-13.89,53.6-9-55.56,11.74-55.56,16.44-4.69,31.69,4.7,33.65,75.12-34,78.25-27.39-79,34.43-79,34.43,9.78,22.69,21.12,26.22,84.27-50.09,86.54-42.65-78.71,50.86-78.71,50.86,21.52,22.7,33.26,18,54.19-54.19,59.08-49.3S1797.17,917,1797.17,917s18.39,20,34,12.52,25.43-43,31.3-43-6.31,33.79-17.22,44.7,62.61,1.47,62.61-27.09c0-12.09-2-18.82-4.38-22.6l.44.27c11.37,6.8,26.47,14.6,38.94,27.57,31.73,31.85,52.1,94.67,65.24,167.37-4.53-3.12-8-2.8-8,1.12,0,6.78-16.44,77.47-24.52,69.38s23-72.52,12-83.47c-6.51-6.51-21.62-15-33.51-19.22l0,0c-5.14-5.13-20.73-10.49-15.93-25.36S1917.69,991,1917.69,991s-15.65,22.69-29.74,22.69,18-14.87,18-23.47S1857.43,966,1857.43,966s13.62,28.55,13.54,40.23a185.88,185.88,0,0,0-17.26-10.77c-4.59-12.83-6.14-28.68-14.28-28.68-8.64,0-12.44,6.71-17.71,12.15a146.07,146.07,0,0,0-22.5-10.45c-3.79-9.56-6.72-19.7-9.09-19.7-4.69,0-16.43,10.17-39.13,6.26s-20.13-.58-38.71,18a242.26,242.26,0,0,0-30.15,36.78s3.57-1.79,9.57-4.1c27.43-8.21,85.51-5.63,107,3.32,12.81,5.34,42.65,19.44,68.19,31.68-9.38,1.06-31.94,7-39.12-.17,0,0-15.46,36.31-9.19,52s75.64,22.43,62.08,26.09-66.78-7.62-66.78-7.62-4.69,37.35,9.91,44.66,91.3-3.65,84,3.65-77.47,14.86-85.56,6.78c0,0-1.57,44.87,24,49.56s95.52-33.38,89.49-22.95-70.71,40.69-90.54,29.21c0,0,17.74,42.78,33.91,42.78s56.07-55,64.16-46.95-34.94,47.47-58.94,52.17c0,0,9.39,24.52,40.17,17.21s25.56-55.29,35-51.12.52,56.86-30.78,56.86c0,0,51.12,12,63.12-15.64a72.56,72.56,0,0,0,5.7-19.35c8.1,37.83,10.27,89.15,9.62,131h-51v13h8.24l5.66,161.56h135.49l5.65-161.56H2119v-13h-50.7A1293.68,1293.68,0,0,1,2106.84,1164c1.69,4.67,4.46,10.65,8.57,14.77,7.68,7.68,22.44-18.48,22.44-31.52s-15.88-.52-15.88-7.83,2.32-3.65,22.66-3.65,27.65-41.73,27.65-41.73-30.78,3.65-30.78-2.09,24.52-2.61,40.17-6.78,24.52-38.09,24.52-38.09-44.87,13-44.87,7.31,34.7-11.22,41.22-17.74,8.87-36,8.87-36-29.74,27.65-34.44,27.65,31.57-30.52,28.18-33.91-4.7-17.8-4.7-17.8c-6.48,6.49-17.22-2-24,4.76s-19,58.69-24,63.64,13.82-41.47,5.21-50.08-31.92,13.2-36.52,17.8,11,55,4.7,61.24-5-44.32-10-49.3-18.2,7.82-22.12,22.69,30.13,40.3,20.35,50.09-18.78-27.39-27.39-36c-6.36-6.36-19.55,6.09-26,17.12,1.51-45,3.83-85.12,7.31-113.74,7,18.79,43,41.31,68.28,15.53,5.39,4.26,12.05,6.15,20.35,3.17,30.07-10.84,32.84-18.31,26.51-21.28s-65.11-36-57.93-39.6,59.9,37.75,70,32.77,25.52-25.43,23.71-26.28-74.77-27.18-66.63-31.21,64.56,34.86,75.18,17.68,11.08-27.58,10.09-31.74-64.13-8.81-62-13.35,61.57,4.85,66.18-5S2247.48,841.42,2242.36,839Zm-327-40.49a26.9,26.9,0,0,0,.39,5c2,10.95-15.84,29.15-19.17,25.82C1894.61,827.45,1908.07,814.37,1915.34,798.53Zm128.57,376a10.62,10.62,0,0,0,4.46,3.5,13.22,13.22,0,0,0,1.42.29c0,2-.05,4-.08,6-6,8-13.14,17.26-18.68,18-.33-3.69-.65-7.37-1-11C2033.64,1186.8,2039,1181.24,2043.91,1174.52ZM2022.2,1247a45.92,45.92,0,0,0,5-.52c3.25,52.61,4.49,102.39,5.11,142.32h-7.13C2024.72,1364.27,2023.67,1321.49,2022.2,1247Zm19.22,141.8c-1.07-41.15-3.3-92.12-7-144.1a46.15,46.15,0,0,0,4.85-2,29.12,29.12,0,0,0,10-8.22c-.39,59.81-.1,115.66.25,154.29Zm-47.77-397.62c-2-5.7-4-11-6-16,4.34,2.68,10.24,1.6,15.56-3.71,9.18-9.18,5.4-42.48,11.42-49-.6,13.78-.3,76,.36,152.08-2.35-13.13-4.88-25.42-7.61-36.51C2004.05,1022.7,1995.27,996.23,1993.65,991.16Zm20.9,125.54c.31,2.24.63,4.48.93,6.72q.12,11.37.23,22.87c-7.23,19.14-15.84,37.73-21.33,35.38C1986.89,1178.46,2005,1143.29,2014.55,1116.7Zm-76.73-63c1.46,20.59,8.57,64.37-5,64.37-12.28,0-4.26-39.39-4.33-61.53C1931.59,1055.6,1934.78,1054.64,1937.82,1053.65Zm-54.56-5.11c5.62,12.23,16.1,37,7.82,35-9.22-2.2-13.27-31.13-18.68-40.27Zm114.79,192.72a49.93,49.93,0,0,0,18.75,5.56c.67,58.72,1.32,111,1.72,142h-5.37C2013.61,1342.12,2010.51,1283.21,1998.05,1241.26Zm60.79,147.52c-.45-42.57-.94-105.74-.55-172,4.72-14.75,5.37-31.25,4.46-39.46,14.39-3.85,32.17-14.3,39-18.54a1297.78,1297.78,0,0,0-39.77,230ZM2087.5,1124c-3.94,4-17-5.85-27.66-15.24.12-4.63.24-9.24.37-13.8C2069.13,1105.13,2093.27,1118.25,2087.5,1124Zm41.58-151.61A18.52,18.52,0,0,0,2125,971c-9.33-2.06-15.28-25.85-11.21-27.87C2116.19,941.93,2120.17,959.67,2129.08,972.41Z"/><path class="cls-8" d="M2813.06,1569.87c0,19-629.73,34.43-1406.53,34.43S0,1588.88,0,1569.87s629.72-34.42,1406.53-34.42S2813.06,1550.86,2813.06,1569.87Z"/><path class="cls-9" d="M1064.11,553.89l12.8-8.64s-33.4-54.91-30-102.23c1.82-25-39.14-61.79-50-56.1-.66-.26-36.37.79-39.54,82.37l-7.6,95.56L988.38,599s24.32-41.7,55.24-23.37S1084,593.43,1084,593.43,1064.11,562.69,1064.11,553.89Z"/><path class="cls-10" d="M1174.34,1534.92c-6.39-17-10.22-42.59-18.3-77.07-1-4-2.26-9.84-3.81-16.88-10.51-1.37-21.32,3.82-30.14,8.56,3.47,9.33,8.14,20.46,8.4,24.5.62,9.75-2.36,10.65-2.36,10.65.08,16.81,5.26,34.83,8.74,38.31,4.48,4.47,9.45,26.64,13.71,26.64s40.23,4,40.23,4C1191.76,1545.39,1180.73,1552,1174.34,1534.92Z"/><path class="cls-11" d="M990.14,1525.26c-1.88-5.84-3.75-31.32-5.25-64.81-9.38-.13-19.89-3.35-29.83-1.37.76,4.6,2.51,12.55,2.51,13.81,0,12.14-5.92,7.63-8.08,16.35-1.43,5.8,4.2,16.84,4.2,16.84,8.31,0,11.8,29.56,15.85,38.15,2.33,5,13,7.33,25.09,7.33,9.44,0,7.85-2.47.85-14.54A60.2,60.2,0,0,1,990.14,1525.26Z"/><path class="cls-12" d="M1112.6,1169.59c-1.19-5.13-34.24-285-46.6-388.23L999.3,779,962.45,931.71l87.69,276.46c-3,25.55-1.83,46.15,6.26,81.07,6.68,28.81,34.06,125.15,50.44,169.2,8.81-4.75,35.82-14.15,45.39-17.47C1114.93,1209.88,1125.15,1223.62,1112.6,1169.59Z"/><path class="cls-13" d="M994.29,1198.2l55.85-313.81L1043.41,777H988.76S934,836.13,921.7,911.07s10.52,288.46,10.52,288.46-2.38,26.83-7.86,49.83c-5.72,24,4.4,174.79,10.93,214.54,9.94-2,40.22-3.58,49.6-3.45-3.57-80-5-205.7.36-218.76C988.8,1233.11,991.94,1215.07,994.29,1198.2Z"/><polygon class="cls-14" points="1067.91 792.49 977.55 790.54 988.76 776.96 1067.91 776.96 1067.91 792.49"/><path class="cls-10" d="M1183.71,558c1.29-8.31.72-14-1.86-16.61s-1.32-4.1-3.73-6.51-8-.23-8.73-6.53,1-42.4-3.44-41.54-4.94,48.63-6.73,50.42-5,3.73-6.16-3.72,4.58-11,2.29-13.32-8.9,5.44-9.46,8.16c0,0-5.73,24.64,0,41.25,4.45,12.9,6.65,23.9,7.26,34.42h0c.84,24.2-2.37,49-9.8,86.77-1.65,8.39-9.19,6.26-13.64,3.76l-20.45,31.7c14.26,17,33.31,26.66,42.36,25.56,23.24-2.84,20.22-144.36,20.22-144.36-.07-1.74,0-.72-.14-3.43h0c-.32-8.58-.59-16.46-.59-17.51C1171.11,580.16,1182.42,566.27,1183.71,558Z"/><path class="cls-11" d="M1176.29,533.82s-21.26,20.76-17.18,24.83,21.14-18,21.14-18-18.93,19.29-15.59,22.63,19.71-13,19.71-13-17.25,14.84-14.16,16.54,14.16-10.14,14.16-10.14,1.59-4.43,1-7.1.38-3.78-.1-5.44-2.59-4.14-3.53-5.07S1180.44,532.28,1176.29,533.82Z"/><path class="cls-15" d="M1127.92,689.73c1.74-4.32,4.25-9.45-1.17-13.23-7.42-5.16-7.15-1.43-7.15-12.88,0-10.7-2.87-12.27-11.09-14.89l-.87-2.93c-10.31-35.24-44.46-87.71-54.28-91.91s-9.74,21.41-9.74,21.41,63.26,160.29,65.64,163.11l20.45-43.9-1.58-4.61Z"/><polygon class="cls-16" points="959.54 1510.14 960.04 1549.84 955.62 1549.96 950.08 1504.68 959.54 1510.14"/><path class="cls-17" d="M1053.36,553.89s-20.07-15.54-87.66-1.35c-3.31.7-8.31,78.44-8.31,78.44s22.54,121.57,16.16,153.74c0,0,47.56,39.47,103.86,12,0,0-7-101.34-1.78-123.89s15.45-43,1-66.44S1053.36,553.89,1053.36,553.89Z"/><path class="cls-18" d="M956.62,1479.32c3.65,22.21,18.23,66,26.75,66,11.49,0,12.17-.57,12.11-8.33,7,12.07,15,18.26,5.52,18.26-12.13,0-31.06.74-33.4-4.24-4.05-8.59-6.25-41.1-14.56-41.1l2.58,40-4.4.12s-6.54-55.1-5.1-60.61C948.08,1481.93,954.28,1480.67,956.62,1479.32Z"/><path class="cls-18" d="M1178.82,1542.87c8.43,7.88,22,6.21,21.24,12.78,0,0-46.58-2-50.84-2s-7.87-26.19-12.35-30.66-1.7,30.66-1.7,30.66h-4.59s-3.07-36.19-7.33-50.24c-3.39-11.19,1.43-15.9,4.88-18.73C1142.11,1511.41,1143.59,1549.13,1178.82,1542.87Z"/><path class="cls-11" d="M1027.51,821.82l2.6-1.86s10.82.11,15.36-2.12,10.1-2.16,8,0-12.33,4.49-10.27,10S1027.51,821.82,1027.51,821.82Z"/><path class="cls-11" d="M1066.35,824.84c-1.94,1.2-6.07,1.68-10.35,3.16s19.36-9,19.36-12.38-19.79,7.07-25.55,9.51c-6.54,2.79-17-2.07-19.7-5.17,0,0-81.54-27.35-103.19-42.7-1.95-1.38-7-8.43-6.37-13.74-13.91,1.25-28-6.66-40.38,0,.14,8.54-1.91,29.82.38,34,14.13,26,106.17,35.78,125.52,35.78s38.3,4.62,43.68,4.62,30.4-13.71,31.13-20.11C1081.58,811.82,1068.9,823.27,1066.35,824.84Z"/><path class="cls-19" d="M957.39,636c14.14-15.95,10.83-86.9,10.83-86.9s-38.51,1.79-56,35.36c-18.33,35.23-25.81,69.68-36.83,187.68,12.39-6.66,31.22-7.4,45.13-8.65C923.74,735,945.48,649.48,957.39,636Z"/><path class="cls-11" d="M1027.1,491.24c1.55,1.56-4.75,46.49,1.48,58.94,0,0,16.38,64.26,5.25,65.59-9.68,1.15-45.91-55-47.84-63.85-2.6-11.94-.28-69.46-.28-69.46Z"/><path class="cls-20" d="M1028.58,550.18c1.66,9.17,12.9,66.49,4,63.52-10.48-4.7-42.09-50.87-46.63-61.78,5.7,17.52,51.64,94.59,53.42,53.3C1039.21,589,1033.39,565.5,1028.58,550.18Z"/><path class="cls-10" d="M1026.45,509.85c-14.78,13.36-30,4.07-41.23-12.69.26-8.44.06-17,.08-17.44l41.8,11.52C1027.73,491.88,1027.05,499.83,1026.45,509.85Z"/><path class="cls-11" d="M1022.43,390.26s18.72,3.57,21,19.61,5.35,29.42,2.23,48.14-14.26,43.67-32.54,47.69-37.43-26.3-37.43-42.79-6.69-44.12,5.79-61.06S1022.43,390.26,1022.43,390.26Z"/><path class="cls-21" d="M1001.3,476.58c9.85,4.29,24.44,4.4,24.44,4.4a25.87,25.87,0,0,1-2.82,4.16c-4.27-.24-12.61-1-19.49-3.45A31.55,31.55,0,0,1,1001.3,476.58Z"/><path class="cls-22" d="M1003.43,481.69c6.88,2.45,15.22,3.21,19.49,3.45C1016,493.45,1008.56,491.44,1003.43,481.69Z"/><path class="cls-10" d="M1023.61,383.47s17.54,10.36,19.77,26.4c2,14.55,4.77,26.89,2.95,43a51.62,51.62,0,0,0-13.17-6.08c-16.5-5.44-33.65-29.43-35.69-49.63C995.25,375.55,1023.61,383.47,1023.61,383.47Z"/><path class="cls-23" d="M1022.61,465.79a146.38,146.38,0,0,1-.79-15.4,157.7,157.7,0,0,1,1.79,16c-2.72.75-6,2.27-10.09.72C1016.64,467.75,1019.76,466.86,1022.61,465.79Z"/><path class="cls-23" d="M1012.48,449.9a10.22,10.22,0,0,0-6.9-6.69c-6.11-1.6-9.84,7.21-14,7.12,3,1.55,7.83-3.6,11.13-4.91,1.8-.73,3.39-.22,5.15.61A16,16,0,0,1,1012.48,449.9Z"/><path class="cls-23" d="M1001.41,447.25a3,3,0,1,0,3-3.36A3.19,3.19,0,0,0,1001.41,447.25Z"/><path class="cls-23" d="M1026.06,451.82a10.2,10.2,0,0,1,7.19-6.37c6.18-1.33,9.51,7.63,13.7,7.74-3.07,1.4-7.65-3.95-10.9-5.41-1.76-.81-3.37-.38-5.17.38A16,16,0,0,0,1026.06,451.82Z"/><path class="cls-23" d="M1037.24,449.67a3,3,0,1,1-2.82-3.49A3.19,3.19,0,0,1,1037.24,449.67Z"/><path class="cls-23" d="M1014.64,435.64c.67-.43-4.67-5.8-11.07-6.4s-13.32,6.4-13.32,6.4,9.43-5.62,13.41-3.81S1011,438,1014.64,435.64Z"/><path class="cls-24" d="M1005.89,376.67c-13.64,1.56-35.26-1.78-45.33,20.5-5.94,12.64-18.13,37-18.13,80.35,0,64.55-62.26,93.11-62.26,93.11l27.29,13.19,16.3-13.19-11.12,23.71,44.75,4.47,1.91-30.92,9.25,35.16,20.91-4.24s-8.24-105.63-9.15-145.52l.23.26s-.19-5.14-.2-11.75v0c.11-1.94.12-3.92,0-5.93a120.86,120.86,0,0,1,1.26-17.49c2-10.92,6-16.49,15.82-21.17s44.92,8.65,44.92,8.65C1041.18,385.5,1019.54,375.11,1005.89,376.67Z"/><path class="cls-25" d="M1024.16,380.35c17.16,3.79,22.34,30.19,36.38,44.23s10.47,34.32,3.79,47.69-17.41,4.68-17.41,4.68,5.59,3.12,9.16-8-2.67-19.84-21.62-26.08-37-45.68-37-45.68C997,389.46,1007,376.57,1024.16,380.35Z"/><path class="cls-26" d="M1046.92,477c6.5,3.79,15.68-12.14,9-22.54-4.87-8.05-15.54-11.44-24.07-15-13.51-7.75-26.49-29.18-34.37-42.27,5.71,15.62,17.81,37.28,32.4,45.92l3.51,1.52c3.6,1.45,14.58,4.41,19.88,11.55,4.27,5.61,2.23,14.32-.6,18.45C1051.45,476.38,1049.24,477.78,1046.92,477Z"/><path class="cls-11" d="M984.11,455.55s-4.77-20.69-12.71-15.69.58,27.91,8,27.91S984.11,455.55,984.11,455.55Z"/><path class="cls-10" d="M976.4,444.21S988.12,463,980.07,461,968.86,440.72,976.4,444.21Z"/><path class="cls-10" d="M1006,462c-.82,2.45-5.3,3.16-10,1.58s-7.87-4.83-7-7.28,5.3-3.15,10-1.58S1006.82,459.51,1006,462Z"/><path class="cls-10" d="M1044,460.73c.36,2.33-2.7,4.73-6.82,5.36s-7.76-.75-8.11-3.08,2.7-4.73,6.82-5.36S1043.65,458.4,1044,460.73Z"/><path class="cls-27" d="M775,662s91.73,29.09,97.23,81.27l-24.46,7.93-84.61-52.68Z"/><path class="cls-28" d="M674.14,1018s52.9,454.43,66.13,502.94v30.64H841.71s-6.13-10.21-17.59-10.21-40.44-11.07-48.38-18.73,5-635.69,5-635.69h-126Z"/><polygon class="cls-29" points="659.23 501.33 656.81 539.3 746.79 529.08 725.77 503.31 659.23 501.33"/><path class="cls-30" d="M733.06,926.32l-14.63,73.51s-117.1,398.21-112,537.36c0,0,9.86,16.49,44.65,26.26,1.87.52,3.66,7,3.66,7H564l5.12-28s2.93-473.47,2.93-528.61S586.7,886.94,586.7,886.94H738.92Z"/><path class="cls-31" d="M793.92,792.67c0-128.82-37.63-257-65.77-273.26,0,0-32.72-2.26-49.55-2.82-25.11-.84-63.75,11.84-84.61,82.89-13.14,44.8-6.93,152.92-5.52,247.14.62,41.78-5.73,80.82-4.84,110.4,70.93,0,122.81-2.36,191.64-2.36C776.34,932.18,793.92,833.16,793.92,792.67Z"/><path class="cls-32" d="M694,671.92c.2,1.91-41.84-151.56-41.84-151.56s-14.1,4.79-32.83,17.18-44.63,97.94-44.63,97.94,6.35,202.36,6.35,217.76c0,8.28-13.47,132.21-25.92,245l153.45,14.55C706.28,955.46,694,671.92,694,671.92Z"/><path class="cls-33" d="M728.15,519.41s54.12,21.07,65.77,162.67,11.65,430.71,11.65,430.71h-53s-5.75-413-5.75-441.33S728.15,519.41,728.15,519.41Z"/><polygon class="cls-34" points="725.77 503.31 746.71 667.88 754.15 585.6 746.79 576.67 746.79 529.08 725.77 503.31"/><path class="cls-35" d="M608.12,936.4h57.52A11.39,11.39,0,0,1,677,947.78V1031a0,0,0,0,1,0,0h-80.3a0,0,0,0,1,0,0V947.78A11.39,11.39,0,0,1,608.12,936.4Z" transform="translate(1273.76 1967.41) rotate(180)"/><rect class="cls-35" x="575.8" y="822.53" width="20.94" height="45.98" transform="translate(1172.53 1691.03) rotate(180)"/><path class="cls-11" d="M634,681.61l-.11-.12C634.82,681.42,634.75,681.47,634,681.61Z"/><polygon class="cls-36" points="852.39 765.29 986.12 669.76 847.27 657.16 742.27 767.92 852.39 765.29"/><path class="cls-11" d="M795.09,721.7s-16.35,3.65-22.39,10.12c-7.71,8.26-26,21.68-33.7,21.68s-40.45,3.2-40.45,3.2l-5.5,36s122.21-28,128-34.15-28.66,4.58-28.66,1.83,41.45-5.83,39.31-12.75-38.25,9.32-41.45,5.89,43.59-9.16,43.59-16.48-46.58,10.59-46.58,10.59S786.38,744,799,738s24.83-10.74,22-13.73-35,16-39.27,11.42Z"/><path class="cls-35" d="M632,551.19s15.48,28.32,12.39,69.11S636,723.64,644.68,744s72.16,0,72.16,0v48.27s-92.07,37.4-118.74,25.16S574,699.85,574,648.18,615,514.12,632,551.19Z"/><polygon class="cls-34" points="694.01 671.92 659.23 501.33 623.29 529.27 654.74 587.68 652.4 605.98 694.01 671.92"/><path class="cls-11" d="M839.69,769.07s2.19,2.2,8.86,6.34c6.46,4,13-2.28,14.32-3.49a52.82,52.82,0,0,0,7.89-9.5,21.06,21.06,0,0,0,3.28-7.6c.91-4.3-15.18-17.53-16.69-16.45-1,.73-1.8,1.7-1.46,2.8s9.21,14.08,9.21,14.08-12.69-12.58-16.41-12.18-3.23,2.66-2.27,3.73S859.34,763,859.34,763s-15.11-11.62-17.54-11.36-4.09,3.42,2,8.58c3.42,2.89,9,9.82,9,9.82s-11.39-7.1-15-6.71S839.69,769.07,839.69,769.07Z"/><path class="cls-37" d="M679.78,470.61c-1.55-1-20.88-49.06-20.88-49.06s-12.89-36.09-4.56-42.2,28.11-27.3,45.45-27.68,29,4.81,30.54,5.8,12.79,20,12.79,20-5.23-6.39-7.93,17.32S679.78,470.61,679.78,470.61Z"/><path class="cls-11" d="M723.53,468.44c-2.06,6.14-1.17,50-2.8,61s-51.34,27.79-52.32-11.85,2.94-86.24,2.94-86.24Z"/><path class="cls-10" d="M723.53,468.44h0l-17.32-12.31-34.86-24.77v.06a.06.06,0,0,0,0,0v0c0,.16,0,.47-.08.91-.11,1.45-.33,4.33-.61,8.31h0c0,.81-.11,1.66-.17,2.56a.91.91,0,0,0,0,.17c-.19,2.88-.4,6.19-.61,9.83l0,.62c0,.86-.1,1.74-.14,2.65v0c0,.46-.06.93-.08,1.41a.76.76,0,0,0,0,.15l0,.54a1.27,1.27,0,0,1,0,.2c0,.32,0,.63,0,.95,6.48,21.24,31,44.31,52.15,47.05,0-1.46.12-2.94.23-4.43C722.14,487.57,722.36,471.93,723.53,468.44Z"/><path class="cls-11" d="M669.39,395.05c-6.37,15.85-6.71,44.83,8.48,66.75S714,495,729,484s19.31-80.43,8.46-98.28S679.1,370.9,669.39,395.05Z"/><path class="cls-38" d="M669.41,461.63s-3.38-22.69-12.08-28.22-12.63-8.89-14.2-16.91S612.51,403.13,617.25,390s27.48-19.34,39-42.25,24-35.58,51-27.23S738,345.26,738,345.26s11.89-2.06,19.16,12.17,2.05,22.31-2.63,29c0,0,1-18.79-5.44-17.49s0,22,0,22a170.21,170.21,0,0,1-20-20.16c-10.31-12.25-7.78,2.08-4.73,17.6s-19.83.9-30-10.33-24.7-.73-30,15.18S682,434.1,669.41,461.63Z"/><path class="cls-11" d="M674.4,419.93s-9.5-16.23-14.44-9.18-.87,28.13,9.61,28.34S674.4,419.93,674.4,419.93Z"/><path class="cls-10" d="M669,421.11s.36-9.4-4.75-6.29,0,18.22,4.75,17.92S669,421.11,669,421.11Z"/><path class="cls-23" d="M722.91,416.76a58.85,58.85,0,0,1,3.81,13.39c1.52,10-.09,14.21-.14,14.84-1.16-.21-4.24-.67-8.31-1.74,2.62-.07,5.23,0,7.82.14l-.88.64C725.65,435,723.89,426,722.91,416.76Z"/><path class="cls-25" d="M710.07,419.16c.55,2.82-.68,5.44-2.75,5.86s-4.19-1.52-4.74-4.34.67-5.44,2.74-5.86S709.51,416.35,710.07,419.16Z"/><path class="cls-25" d="M738.52,415.13c.56,2.81-.67,5.43-2.74,5.85s-4.19-1.52-4.75-4.34.68-5.44,2.75-5.86S738,412.31,738.52,415.13Z"/><path class="cls-23" d="M693.89,412s4.37-7.68,11.65-9.15,5.09,4.65,3.38,5S693.6,410.59,693.89,412Z"/><path class="cls-23" d="M728.61,399.34s8.63,2.55,10.26,6.51c0,0-9.13-.75-10.77-2.89A2.42,2.42,0,0,1,728.61,399.34Z"/><path class="cls-21" d="M699.94,455.37s22.26,8.37,34.34.33c0,0-3.38,11.21-6.46,13.23C721.34,473.19,705.41,470,699.94,455.37Z"/><polygon class="cls-39" points="1855.31 943.3 2033.94 1004.93 1975.79 607.71 1855.31 943.3"/><path class="cls-39" d="M1910.16,1497.05l10.8,54.25s-116,8.57-116,3.42,60.57-20.84,67.74-28c10.16-10.16,6.57-20.35,6.57-20.35Z"/><path class="cls-40" d="M2557.82,979.35c-3.36-3.35-147.28,27-147.28,27l32.28-228.85,26.49-158.3,43.39-78.39s55.27-16.75,58.53-11l18.22,176.36Z"/><path class="cls-41" d="M2606.68,1546.35,2611,1570s-11.11,36.21-28,53.07S2530,1641,2530,1626.67s37.77-58.81,37.77-76S2606.68,1546.35,2606.68,1546.35Z"/><path class="cls-41" d="M2491.94,1550.66l6.46,43.74H2387.24s3.58-10.76,35.85-17.21,34.07-17.66,34.07-17.66l-2.51-28.24,29.4-4.3Z"/><path class="cls-42" d="M2203.19,493c-4.38,38.49,26.7,37.37,18.28,68.55a57.71,57.71,0,0,1-20.25,30.05c-17.5,13.51-34.87-2.4-34.87-2.4s18.39-2.49,17-7.27c0,0-19.65,10.79-28.26,1.51s-9.59-17-9.59-17,19.94,8,13.58-7.93c-4.43-11.09-9.75-25.06-16.48-40.27-13.83-31.25,4.73-69.18,13.78-85,15.77-6.53,44,28.93,60.73,24.19C2212.14,469.19,2204.65,480.13,2203.19,493Z"/><polygon class="cls-43" points="1826.7 860.8 1826.7 981.03 1866.43 1511.45 1923.96 1505.89 1930.3 1156.23 1897.67 854.62 1826.7 860.8"/><polygon class="cls-44" points="2538.55 1049.87 2472.93 1280.51 2496.96 1558.54 2454.65 1558.54 2396.56 1264.52 2454.65 927.82 2538.55 1049.87"/><path class="cls-45" d="M2454.65,918.86,2493.73,1050s59.88,195.85,69.56,309.16,0,190.76,0,190.76l53.43,8.6s30.84-235.22,19.36-314.1,2.56-271.08,2.56-271.08l-21.92-54.5Z"/><path class="cls-39" d="M1983,1504.91s-6.68,25.37-6.68,43.57-57.44,69.79-68.9,58.34,30.35-95.61,30.35-95.61l2.86-14.32Z"/><path class="cls-46" d="M1849.58,854.62l13.74,120.69s90.08,430.9,64.12,541.61h68.71L2011,989.43l-33.2-126.72Z"/><path class="cls-47" d="M2196.45,633.47s-3.69-41-16.29-41c-26.39,0-72.28,126.21-73.66,145.86-2.31,33.08,20.44,35.06,42.74,37.75,21.83,2.62,25.88-45.31,25.88-45.31Z"/><polygon class="cls-16" points="2271.68 1558.39 2271.03 1598.48 2275.5 1598.61 2281.24 1552.91 2271.68 1558.39"/><path class="cls-11" d="M2240.83,1205.85s4.78,62.69,12.45,81.42-6,266.32-12.56,286.29a61.17,61.17,0,0,1-5.42,11.85c-7.12,12.17-8.73,14.65.8,14.68,12.25,0,23-2.29,25.37-7.31,4.11-8.66,7.74-38.5,16.12-38.47,0,0,5.73-11.13,4.3-17-2.15-8.81-8.14-4.28-8.1-16.53s40.64-198.49,34.28-225.6-10.86-30.35-10.75-62.59S2240.83,1205.85,2240.83,1205.85Z"/><path class="cls-11" d="M2213.13,1140.2s-45.73,87.14-42.81,112.94,12.58,46.65,4.29,81.88-73.86,163-75.43,186.33c-.65,9.85,2.35,10.77,2.35,10.77-.14,17-5.43,35.15-9,38.65-4.53,4.5-9.63,26.86-13.93,26.85s-40.63,3.87-40.63,3.87c-.94-8.28,10.18-1.63,16.69-18.81s10.46-43,18.74-77.75,42.27-193.59,42.39-230.13-3.23-36.73,2.44-60.78,26.88-69.13,26.88-69.13Z"/><path class="cls-48" d="M2170.32,1253.14c-2.92-25.8,42.81-112.94,42.81-112.94l-68,4.69s-21.21,45.07-26.88,69.13c-4.16,17.64-3.46,22.44-2.85,38.18,13,2.79,33.21,6.87,56.3,10.6C2171.17,1259.63,2170.7,1256.43,2170.32,1253.14Z"/><path class="cls-10" d="M2297.32,1232.6c.11-32.24-56.49-26.75-56.49-26.75s3.05,40,8.18,65.62c19.16.92,37.26.55,52.19-1.92C2298.73,1260.12,2297.26,1251.17,2297.32,1232.6Z"/><path class="cls-49" d="M2180.16,592.52s21.18-16.29,92.9-.1c2,.44,3.74,78.27,3.74,78.27S2243.52,801,2249.86,833.46c0,0-38.05,32.1-94.8,4.16,0,0,7.38-102.3,2.21-125.08s-15.45-43.46-.84-67.1S2180.16,592.52,2180.16,592.52Z"/><path class="cls-50" d="M2137.59,993.47c6-29.24,17.47-155.85,17.47-155.85s7.38-102.3,2.22-125.08-15.46-43.46-.85-67.1,23.73-52.92,23.73-52.92,21.18-16.29,92.9-.1c2,.44,3.74,78.27,3.74,78.27S2243.52,801,2249.86,833.46c0,0,38,62.2,46.76,96.38s2.4,300.09,2.4,300.09c-37,12.89-188,0-188,0S2131.58,1022.7,2137.59,993.47Z"/><path class="cls-18" d="M2235.3,1585.41c-.09,7.84.39,9.57,12.19,7,8.51-4,23.47-43.16,27.24-65.57,2.36,1.37,8.61,3.11,10.57,10.74,1.43,5.56-5.35,61.17-5.35,61.17l-4.45-.13,2.73-40.4c-8.38,0-10.72,32.79-14.83,41.46-2.38,5-21.49,4.2-33.74,4.17C2220.13,1603.8,2228.18,1597.58,2235.3,1585.41Z"/><path class="cls-18" d="M2049.44,1590.58c-8.54,7.93-21.53,6.31-20.78,13,0,0,47-1.86,51.34-1.84s8-26.42,12.57-30.92,1.62,31,1.62,31l4.63,0s3.23-36.53,7.57-50.71c3.47-11.29-1.39-16-4.86-18.92C2087.32,1559.07,2085,1597,2049.44,1590.58Z"/><path class="cls-10" d="M2225.56,749.23c-8.89,6.2-14.69,15.19-33.88,20.63a333.83,333.83,0,0,0,36.36,25c2.91-15.53,5-28.36,5.36-43.89C2233,751.14,2226,749.09,2225.56,749.23Z"/><path class="cls-51" d="M2305.39,623.3c-5.7-18-29.86-30.78-29.86-30.78-19.37-2.24-25,99.56-25,99.56l-7.7,56.25c-1.58,1.69-7.34,0-9.41.89-.35,15.54-2.45,30.1-5.36,45.63,19.14,11.11,36.81,17.33,44.46,9.69C2289.89,787.17,2311.11,641.35,2305.39,623.3Z"/><path class="cls-11" d="M2134.52,694.56c-7.61-1.64-31.31,6.6-31.31,6.6s-6.28,8.73-6.28,14.36c0,.94.53,1.42,1.4,1.31-1.63,1.19-2.43,2.17-1.77,2.83,3.15,3.14,27.9-8.76,29.38-7.29s-28.14,6.31-25.73,11.67c1,2.24,12.37-1.32,19.53-3.8-6.23,2.43-15.34,6.36-15.34,8.74,0,3.64,25.82-2,31.46-2,2.11,0,5.55,2.23,9.45,4.68,1.74-.31,2.93.51,3.67.28a335.35,335.35,0,0,1,43.92,2.63C2166,718.55,2136.57,695,2134.52,694.56Zm-26.79,17.15c-2,1-3.91,2-5.62,2.88,1.66-1.58,3-5.07,5.35-6.73,4.81-3.41,12.07-5.3,13.15-4.22C2121.9,705,2114.64,708.33,2107.73,711.71Z"/><path class="cls-52" d="M2247.23,716.05c-1.3,6.23-1.09,24.87-4,29.53,0,0-3.21-2.27-4.27-1.17h0c-10.52,5.61-25.38,21.05-54.37,27.22-28.48,6-67.33,9-67.33-10.3s19.45-29.9,31.78-29.9a418.84,418.84,0,0,1,43.92,3.19h0C2217.52,737.71,2244.67,714.09,2247.23,716.05Z"/><path class="cls-42" d="M2171,424.3s6.76-17.37,47.69-17.37,49.32,40.41,44.07,50.37,3.68,30.14,13.12,32.92,33.08,15.7,20.3,28.47,10.13,12.07,10.13,23.61-7,19.14-23.08,21.2S2171,424.3,2171,424.3Z"/><path class="cls-11" d="M2180.26,535.87s5.86,49.38,5.86,81.5c0,4.89,25.35-.29,30.27-3.87,7.85-5.73,13.45-9.53,14.83-20.32.91-7.21-20.08-77.9-20.08-77.9Z"/><path class="cls-10" d="M2214.12,525.45c-4.61,15.2-13,31.77-28.58,37.26a20.27,20.27,0,0,1-2.46.69c-1.43-15.77-2.82-27.53-2.82-27.53l30.88-20.59S2212.32,519.27,2214.12,525.45Z"/><path class="cls-11" d="M2163.82,433.27a34.88,34.88,0,0,0-14.52,18.59c-4.12,12.8,2.32,28.87.59,39.91s10.53,66.89,38,58.47,31.7-48.79,33.11-57.77-6.15-42-20.2-51.62S2163.82,433.27,2163.82,433.27Z"/><path class="cls-10" d="M2149.3,451.86a34.88,34.88,0,0,1,14.52-18.59s23-2.06,37,7.58,21.61,42.65,20.2,51.62c-1.08,6.86-3.79,32-17.27,47.3-1.42-15.64,9.73-38.82,5.13-61.11-1.36.82-7.33,1.45-10.35,1.29-12.71-.65,4.92-18.66-6.62-36.44-7.13-5.36-7.37-6-12-7.12-1.52,14.36-15.43,39.41-29.81,53.8C2151,479.22,2145.37,464.06,2149.3,451.86Z"/><path class="cls-53" d="M2169.09,489.19a183.17,183.17,0,0,1-4.42,22.13,13.41,13.41,0,0,0,7.82,1.95c-4.47,1.47-8.88-1.3-9.16-1.36A188.82,188.82,0,0,1,2169.09,489.19Z"/><path class="cls-53" d="M2182.3,478.93a26.32,26.32,0,0,1,11.76-3.82c6.21-.23,14.11,7.52,14.11,7.52s-8.87-6.05-13-5.74a23.6,23.6,0,0,0-8.37,2.69Z"/><path class="cls-53" d="M2167.5,477.92s-4.25-4.38-9.38-5.52-12.48,5.33-12.48,5.33,8-4.66,11.38-3.74a19.6,19.6,0,0,1,6.68,3.9Z"/><path class="cls-21" d="M2184.62,524.65c-13.63,3.86-18.53,3.12-23,1.76C2167.74,532.17,2179.22,530,2184.62,524.65Z"/><path class="cls-53" d="M2185.51,488.3a3.53,3.53,0,1,0,2.82-4.49A3.76,3.76,0,0,0,2185.51,488.3Z"/><path class="cls-54" d="M2201.33,490.22c-13-13.35-18.1-3.58-22.42-2.9,3.52.22,7.52-3.57,11.37-2.57C2193.43,485.54,2198.16,488.42,2201.33,490.22Z"/><path class="cls-53" d="M2156,487.48c.32,2.17,1.8,3.71,3.29,3.44s2.45-2.24,2.13-4.41-1.8-3.72-3.3-3.45S2155.71,485.31,2156,487.48Z"/><path class="cls-54" d="M2167,489c-10.32-12.6-15.06-2.73-18.72-1.86,2.94.05,6.48-3.86,9.68-3C2160.61,484.73,2164.46,487.37,2167,489Z"/><path class="cls-10" d="M2184.68,509.16c.6,3.72,5.09,6.08,10,5.28s8.43-4.46,7.83-8.18-5.09-6.09-10-5.29S2184.07,505.43,2184.68,509.16Z"/><path class="cls-53" d="M2191.92,443.51c-9.16-6.89-16.35-9.12-21.4-9.66a47.85,47.85,0,0,0-5.24,0c-1.85.2-3,.54-3.39.47a4.9,4.9,0,0,1,.57-1.41c1.91-4.17,9-16.13,27.94-15.8l1.89,0c11.61.46,23.33.14,34.56,3.59a44,44,0,0,1,18,10.36c6,6,6.75,13.11,6.93,21.26.34,14.91-3,30.14.83,44.8,3.63,14.05,12,27.17,24.88,34.39,11.17,6.28,16.82,16.09,18.31,28.83a69.33,69.33,0,0,1-7.18,39.27c-11,21.09-33.15,11.78-33.15,11.78s16-10.09,12.87-14.43c0,0-15.49,20.81-28.41,22.39-22.15,2.71-31.73-14-31.73-14s28.93-4.85,16.95-18.66c-8.34-9.62-9.66-23.21-18.9-38.72-5.09-8.54-.42-23,3.41-38.93.29-1.86,1.08-5.09,2-8.87,1.73-8.95,2.62-18.05.86-26.54a10.88,10.88,0,0,1-6.35,1.29c-7.31-.38-7.28-4.79-7.57-11.39C2197.61,457.17,2195.74,449.4,2191.92,443.51Z"/><path class="cls-53" d="M2171,424.3s-14.38-2.2-26.63,6.73-13.52,44.44-7.07,51.81-23,17-7.14,18.32C2152.71,503,2184.88,428,2171,424.3Z"/><path class="cls-55" d="M2238.05,480.22c-4.81,9-9.11,21.08-10.22,30.87-3.3,31.29,32.2,20.26,41.25,22.34,5.59,1.11,9.58,7.05,6.42,13.72-2.55,5.52-6.57,6.66-8.88,8.68a6,6,0,0,0,.55,9.74c6.26,4.47,15.84-1.93,17.14,7.7a19.36,19.36,0,0,1-8,18.25c6.45-3.35,10.59-10.85,10.17-18.48-.48-7.83-5.78-8.3-13.1-8.9-4.52-.4-5.81-2.82-5.23-4.14.71-2.66,7.09-2.71,11.15-11a13.64,13.64,0,0,0-3.53-17.23c-13.73-11.1-52.34,15-43.66-30.93A124.68,124.68,0,0,1,2238.05,480.22Z"/><path class="cls-55" d="M2166.62,429.26c-21.35-.7-34.76,16.53-29.11,34.36,1,3,2.57,6.07,5.51,7.16l1.24-4.3c-1.17-.13-2.63-3.07-3.06-4.16C2134.89,446.8,2146.31,430.14,2166.62,429.26Z"/><path class="cls-56" d="M2616.72,557.07s-68.87-36.85-113.66,7.94-48.41,171.34-48.41,171.34V882.64l-6.44,65.13L2616,927.82l-22.59-223.3Z"/><path class="cls-57" d="M2472.93,774l110-233.35L2653.65,565l-24.74,209,46.25,234.5S2495,992.9,2472.93,1015Z"/><path class="cls-58" d="M2503.06,565s-40.88,129.63-40.88,169.31-32.27,272-32.27,272h-19.37l26.9-272,33.22-124.45Z"/><polygon class="cls-59" points="2512.7 540.81 2458.86 777.5 2470.66 609.87 2481.49 598.53 2472.93 600.45 2494.4 554.09 2512.7 540.81"/><path class="cls-11" d="M2334.69,818.31c28.83,2.81,41.84,4.44,42.46,2.29-1.63-2.26-8-3.4-28.11-6.3-11.58-1.66-30.38-6.5-32.7-8.66-3.31-4.6,7.41-3.6,13.2-2.31.59.13,59.92,12.61,64.45,4.32s-12.39-11.32-22.53-12.92c-10.36-1.64-15.67-10.46-11.78-12,4.81-1.84,15.2,8.48,32.07,10.16,14.77,1.47,36,4.66,45.25,6.71l8.88,5.84,27.2-1.91-1.36,26.73-20.83,5.28c-17.72,6.31-44,14.62-61.6,17.56-18.45,3.1-34.12,2.49-42.06,1-1.92-.35-2.05-2.8-.18-3.06,4.88-.67,12-1,17-1.28,16.47-.82,22-4,23-7.33-2.33-2.36-8.79-2.31-31.44-.88-10.47.66-24.81,1.56-27.12.59-9.22-6.22,14.23-7.15,24.84-7.12,10.92,0,22.55,1.12,23.93-3.65.45-1.56-13.72-3.81-31.47-4.42C2281.26,824.78,2303.07,815.24,2334.69,818.31Z"/><path class="cls-60" d="M2653.65,565s24.93-6.33,36.58,79.28-14,197.48-36.58,208.23-210.83-12.9-210.83-12.9l11.83-53.94s118.17,2.76,140.92-20,24.8-90.38,21.15-127.61S2653.65,565,2653.65,565Z"/><path class="cls-61" d="M1873,532.33s-46.32,78.14-46.32,116.28-17,187,0,241.49c13.86,44.32,97.52,55.24,171.76-19,27.43-27.43-29.77-152.29-29.77-152.29L2011,529.87l-74.45-24.1S1907.36,556.38,1873,532.33Z"/><polygon class="cls-58" points="1969.02 516.27 2011.04 529.87 2017.9 751.77 2078.59 975.3 2033.94 1004.93 1913.7 797.82 1928.59 611.37 1969.02 516.27"/><path class="cls-58" d="M1828.9,575.86l44.1-43.53s-42.29,94.18-42.29,137.47-4,259.34-4,259.34-21.14-61.45-21.14-119.86S1828.9,575.86,1828.9,575.86Z"/><path class="cls-11" d="M2490.84,369.76s-25.62,31.77-30,53.7c-4.45,22.56-10.1,58.66-10.1,58.66l10.06.28s7.82,20.35,7.44,33.75,21.08,5.62,33.37,6,40-9.5,51.65-47.74S2586.48,368,2490.84,369.76Z"/><path class="cls-11" d="M2577.17,560.58s-72.43,21.7-68.72,18.19c3.38-3.19-1.54-51.52-2.75-67.17,2.76-6.41,23.79-55.22,22.44-52.1v0l4.32-10Z"/><path class="cls-62" d="M2458,345.36c-1.2,1.89-21.71,40.79,11.32,56.8s42-5.46,50.51,8.2-8.73,34.88-1.82,47.37l11.08,2.45s2.45-6.54,6.92-6.41,4.78,34,12,34.2,22-28.22,29-41.44,22.32-58.07-3.05-70.52-36.79-3.83-36.47-15-11.19.24-11.19.24-5.91-8.54-1.73-17.93-27-13.62-34.81,5.17S2470.85,325,2458,345.36Z"/><path class="cls-11" d="M2526.77,441.26s-1.16,22,4.15,22.18,17.31-12,15.71-25.35S2529.61,425.92,2526.77,441.26Z"/><path class="cls-10" d="M2530.54,439s-2.9,8.7,1,12.79,11.82-5.25,7.78-12.54S2531.53,433.94,2530.54,439Z"/><path class="cls-62" d="M2472.78,431.22l-1,5.31s9.37-.86,14.35,4.41,5.67,5.86,5.67,5.86S2489.42,434.67,2472.78,431.22Z"/><path class="cls-62" d="M2482.38,447.94c-.08,2.7-2,4.83-4.25,4.77s-4.05-2.3-4-5,2-4.83,4.25-4.77S2482.45,445.24,2482.38,447.94Z"/><path class="cls-62" d="M2473.08,496.92a17.52,17.52,0,0,0,9-2,8.86,8.86,0,0,0,3-3,9.33,9.33,0,0,0,1.23-3.94l0-.17a1.6,1.6,0,1,1,3.16.49,1,1,0,0,1-.05.25,12.25,12.25,0,0,1-2.44,4.79,10.81,10.81,0,0,1-4.29,3A18.21,18.21,0,0,1,2473.08,496.92Z"/><path class="cls-62" d="M2442.13,385.17c-.3,1.82,1.5,5.08,2.55,6.61,5.66,7.78,17,9.19,24.63,10.38-1,0-11.25,1.71-19.73-1-9.16-2.69-14.49-8.92-15.91-15.12Z"/><path class="cls-10" d="M2530.54,518.29c-3.54,3.36-15.5,10.72-22.88,15.15-1-12.09-2-21.84-2-21.84s6,5.5,22.38-52.5c0,0,0,.12.07.36v0C2528.84,464.52,2535.51,513.63,2530.54,518.29Z"/><path class="cls-62" d="M2467.58,507s-2,8.59-2.16,13.55,12.11,10.8,23.35,7.92,27-9.8,30.87-13.49,8.41-55,8.41-55L2518,457.73s-5.93,33.37-10.21,37.41S2467.58,507,2467.58,507Z"/><path class="cls-63" d="M2574.36,837.15c0,10,19,18.18,42.36,18.18s42.36-8.14,42.36-18.18-19-18.18-42.36-18.18S2574.36,827.11,2574.36,837.15Z"/><path class="cls-64" d="M2616,850.66a.59.59,0,0,1,.58-.58h.17c1.55,0,3.12,0,4.65-.11a.6.6,0,0,1,.61.56.59.59,0,0,1-.55.61c-1.55.07-3.14.11-4.71.11h-.17A.59.59,0,0,1,2616,850.66Zm-4.12.47c-1.58-.09-3.16-.2-4.7-.36a.58.58,0,0,1-.51-.64.56.56,0,0,1,.63-.52c1.52.15,3.08.27,4.64.35a.59.59,0,0,1,0,1.17Zm13.64-.87a.58.58,0,0,1,.52-.64c1.54-.15,3.1-.36,4.6-.6a.6.6,0,0,1,.67.49.59.59,0,0,1-.48.67c-1.53.24-3.1.44-4.68.6h0A.58.58,0,0,1,2625.49,850.26Zm-23-.11c-1.58-.26-3.14-.56-4.63-.9a.59.59,0,0,1-.44-.7.6.6,0,0,1,.7-.44c1.46.34,3,.64,4.55.89a.59.59,0,0,1,.49.67.58.58,0,0,1-.58.49Zm32.25-1.3a.59.59,0,0,1,.44-.7c1.54-.34,3-.74,4.49-1.18a.58.58,0,1,1,.33,1.11c-1.45.45-3,.85-4.56,1.21h-.13A.58.58,0,0,1,2634.73,848.85Zm-41.44-.81c-1.58-.49-3.08-1-4.46-1.6a.59.59,0,0,1-.31-.77.57.57,0,0,1,.76-.31c1.34.56,2.81,1.08,4.35,1.57a.58.58,0,0,1,.39.72.6.6,0,0,1-.56.42A1,1,0,0,1,2593.29,848Zm50.4-1.86a.58.58,0,0,1,.32-.76,34,34,0,0,0,4.14-2,.58.58,0,1,1,.58,1,36.16,36.16,0,0,1-4.27,2.08.62.62,0,0,1-.23,0A.59.59,0,0,1,2643.69,846.18Zm-59.12-1.85a19.15,19.15,0,0,1-3.87-2.86.58.58,0,0,1,0-.82.59.59,0,0,1,.83,0,17.73,17.73,0,0,0,3.63,2.69.6.6,0,0,1,.22.8.61.61,0,0,1-.51.29A.52.52,0,0,1,2584.57,844.33Zm67.23-2.75a.59.59,0,0,1,0-.83,5.43,5.43,0,0,0,2-3.56.59.59,0,0,1,.59-.58h0a.57.57,0,0,1,.58.58,6.5,6.5,0,0,1-2.38,4.4.57.57,0,0,1-.4.16A.55.55,0,0,1,2651.8,841.58Zm-72.79-4a.58.58,0,0,1-.56-.6,6.68,6.68,0,0,1,2.44-4.37.58.58,0,0,1,.82,0,.57.57,0,0,1,0,.82,5.63,5.63,0,0,0-2.07,3.55.58.58,0,0,1-.58.57Zm72.86-4a18.75,18.75,0,0,0-3.66-2.67.6.6,0,0,1-.21-.8.58.58,0,0,1,.8-.21,19.5,19.5,0,0,1,3.87,2.84.59.59,0,0,1,0,.83.61.61,0,0,1-.42.17A.57.57,0,0,1,2651.87,833.6Zm-67.31-3a.6.6,0,0,1,.22-.8,36.35,36.35,0,0,1,4.28-2.06.58.58,0,0,1,.76.32.59.59,0,0,1-.32.76,34.74,34.74,0,0,0-4.14,2,.61.61,0,0,1-.8-.22Zm59.53-1.72c-1.35-.56-2.81-1.08-4.36-1.56a.58.58,0,0,1-.38-.73.59.59,0,0,1,.73-.38c1.57.48,3.07,1,4.46,1.59a.59.59,0,0,1,.31.76.59.59,0,0,1-.76.32Zm-51-2a.58.58,0,0,1,.38-.73c1.45-.44,3-.85,4.57-1.2a.6.6,0,0,1,.7.44.59.59,0,0,1-.44.7c-1.57.35-3.07.74-4.49,1.17a.47.47,0,0,1-.17,0A.57.57,0,0,1,2593.14,826.92Zm42.11-.76c-1.48-.34-3-.63-4.55-.87a.59.59,0,0,1-.49-.67.6.6,0,0,1,.67-.49c1.56.25,3.12.56,4.63.89a.6.6,0,0,1,.44.7.59.59,0,0,1-.57.45Zm-33-1.38a.58.58,0,0,1,.48-.67c1.52-.24,3.09-.45,4.68-.61a.55.55,0,0,1,.63.53.58.58,0,0,1-.52.64c-1.56.15-3.11.35-4.61.59h-.09A.58.58,0,0,1,2602.24,824.78Zm23.84-.09c-1.5-.16-3.06-.28-4.63-.36a.58.58,0,0,1-.55-.61.63.63,0,0,1,.6-.55c1.6.07,3.18.2,4.7.35a.59.59,0,0,1-.06,1.17Zm-14.54-.92a.58.58,0,0,1,.56-.61c1.45-.07,3-.11,4.55-.11h.12l0,.59v-.59a.55.55,0,0,1,.54.58.61.61,0,0,1-.62.58c-1.56,0-3.09,0-4.57.12h0A.6.6,0,0,1,2611.54,823.77Z"/><polygon class="cls-59" points="2472.93 774 2574.05 620.53 2563.29 597.59 2585.88 599.02 2616.72 551.1 2571.23 529.83 2472.93 774"/><polygon class="cls-52" points="1987.37 945.63 1987.37 978.67 1956.55 972.45 1944.62 962.15 1956.55 930.98 1987.37 945.63"/><path class="cls-59" d="M2011,529.87s25.77-2.39,38.94,31.73,10.3,232.21,10.3,232.21L1996.15,958.7,1956.55,931s28.57-114.49,23.13-173.27S2011,529.87,2011,529.87Z"/><path class="cls-65" d="M1996.15,975.17S1939.06,959,1919.05,939c0,0,28,33,45.08,41.19S1996.15,975.17,1996.15,975.17Z"/><path class="cls-66" d="M1940,384.77c3-18.67-15.09-32.47-33.87-34.64-18.43-2.12-36.32-4.65-44.38,5.59-19.43,24.72-3.63,79-3.63,79s8.87,25.51,33.85,29.36C1909.08,466.72,1934.48,419.7,1940,384.77Z"/><path class="cls-67" d="M1949.71,439.73s-7.92,71.67-13.13,89.34-68.77,26.77-66.43,9.79c1.83-13.28,15.9-68.58,15.9-68.58Z"/><path class="cls-68" d="M1943.61,488.82a3.75,3.75,0,0,1-1.33-.75c-5.49-8.24-9.26-34.49-9.26-34.49s-7.43,24.92-9.59,39c-1.38,9-18.48,12.4-34.84,13.07a42.06,42.06,0,0,1-3.9-12.37,45.39,45.39,0,0,0,1,12.47c-2.87.06-5.67,0-8.33-.05,4.23-17.75,8.72-35.4,8.72-35.4l63.66-30.55S1947,464.72,1943.61,488.82Z"/><path class="cls-69" d="M1859.27,470.07a35.25,35.25,0,0,1-9.26,9.8c-4.63-7.62-6.53-17.35-5.38-24.84,2.09-13.53,11.62-19.58,12.39-24.58,0,0,1.18,11.93,16.77,16.81s30.29-5.29,37.3-10.42,15.71-9.78,17.24-19.73,8.63-48.67,8.63-48.67,2.68-6.42,18.7,4.93,12.92,17.61,13.66,31.23-4.56,22.73,5.66,27.86,19.57,22.9,8.63,38.62-34.17,14.28-39.75,6.67S1933.27,449,1933.27,449s-6.18,19.74-8.16,32.57c-1.26,8.19-18.28,11.11-34.59,11.51a37.14,37.14,0,0,1-4.06-11.37,38.34,38.34,0,0,0,1.13,11.42,144,144,0,0,1-21.2-1.29,21.59,21.59,0,0,1-12.32-6.68A34.56,34.56,0,0,0,1859.27,470.07Z"/><path class="cls-70" d="M1957.44,373c14.85,9.64,13.69,17.67,14.23,29.7,1.2,17.49-4.28,22.94,5.56,27.84,22,13.37,17.23,49.6-12.47,53.64-7.38.68-16.18-.25-20.9-6.41,5.51,5.1,13.68,5.13,20.44,3.69,24.69-5.32,28.49-35.63,10.14-46.05-13-5.59-7-17.37-7.61-32.54-.42-11.25,2.59-17.08-11-27.66-4.76-3.88-14.67-11.3-18.85-6.75C1940.6,362.88,1951.86,369.4,1957.44,373Z"/><path class="cls-66" d="M1922.51,404.14a14.28,14.28,0,0,1,14.93-2.67c8.75,3.47-1.8,25.65-9.75,24.42S1922.51,404.14,1922.51,404.14Z"/><path class="cls-71" d="M1871.62,390.94c-4.06,27.07-2.37,24.47-2.87,37.87,3-.16,6.09-.13,9.14-.13-10.58,2.4-9.3,1.9-11,2.23C1867.21,426.12,1862.84,412.22,1871.62,390.94Z"/><path class="cls-72" d="M1908.36,396.67s-4.7-4.88-15.53-6.75-14.55-1.78-14.55-1.78,3.16-10.55,9.37-7.85,6.15,8.07,12.66,5.5S1908.36,396.67,1908.36,396.67Z"/><path class="cls-72" d="M1848.31,381s4.69-1.59,11.48,2.17,8.82,5.62,8.82,5.62,2.78-9.85-1.81-10.72-6.87,3.39-9.37-1.77S1848.31,381,1848.31,381Z"/><path class="cls-71" d="M1855.39,392.55c-.34,2.21.9,4.24,2.77,4.53s3.67-1.28,4-3.49-.9-4.24-2.77-4.53S1855.73,390.33,1855.39,392.55Z"/><path class="cls-71" d="M1884.15,397.82c-.35,2.22.9,4.25,2.77,4.54s3.67-1.28,4-3.49-.9-4.24-2.78-4.53S1884.48,395.61,1884.15,397.82Z"/><path class="cls-68" d="M1929.7,406.87s6.27-3.89,6.83.49-3.66,12.8-7.67,12.73S1929.7,406.87,1929.7,406.87Z"/><path class="cls-21" d="M1867.63,439.92c4.83,6.32,15.88,7.35,26.9-1.05a1.4,1.4,0,0,0-1.52-2.35C1890.52,437,1882.1,446.15,1867.63,439.92Z"/><path class="cls-59" d="M1941.65,502.38,1985,514.11l-23.6,79.12,8,16.84L1913.7,797.82s7-142.67,9.24-189.29S1941.65,502.38,1941.65,502.38Z"/><rect class="cls-73" x="828.08" y="1070.11" width="860.85" height="27.13"/><rect class="cls-73" x="879.46" y="1097.23" width="24.4" height="479.53"/><rect class="cls-73" x="1621.82" y="1097.23" width="24.39" height="479.53"/><rect class="cls-73" x="1582.76" y="1097.23" width="24.4" height="479.53"/><rect class="cls-73" x="933.71" y="1097.23" width="24.4" height="479.53"/><rect class="cls-32" x="1109.58" y="880.23" width="101.07" height="190.5"/><rect class="cls-74" x="1201.61" y="880.23" width="9.63" height="190.5"/><polygon class="cls-75" points="1101.19 880.23 1212.82 880.23 1233.82 840.66 1136.56 840.18 1101.19 880.23"/><polygon class="cls-76" points="1143.12 840.22 1107.9 880.23 1110.42 880.23 1145.63 840.23 1143.12 840.22"/><polygon class="cls-76" points="1152.81 840.26 1117.64 880.23 1120.16 880.23 1155.32 840.28 1152.81 840.26"/><polygon class="cls-76" points="1162.5 840.31 1127.38 880.23 1129.9 880.23 1165.01 840.33 1162.5 840.31"/><polygon class="cls-76" points="1172.2 840.36 1137.11 880.23 1139.63 880.23 1174.71 840.37 1172.2 840.36"/><polygon class="cls-76" points="1181.89 840.41 1146.84 880.23 1149.37 880.23 1184.4 840.42 1181.89 840.41"/><polygon class="cls-76" points="1191.58 840.45 1156.58 880.23 1159.1 880.23 1194.09 840.46 1191.58 840.45"/><polygon class="cls-76" points="1201.28 840.5 1166.32 880.23 1168.84 880.23 1203.79 840.51 1201.28 840.5"/><polygon class="cls-76" points="1210.97 840.55 1176.05 880.23 1178.57 880.23 1213.48 840.56 1210.97 840.55"/><polygon class="cls-76" points="1220.66 840.6 1185.78 880.23 1188.31 880.23 1223.17 840.61 1220.66 840.6"/><polygon class="cls-76" points="1230.36 840.64 1195.52 880.23 1198.04 880.23 1232.86 840.65 1230.36 840.64"/><polygon class="cls-75" points="1240.14 774.76 1204.45 814.84 1356.35 814.84 1390.77 775.28 1240.14 774.76"/><rect class="cls-32" x="1210.66" y="814.84" width="145.69" height="255.88"/><rect class="cls-74" x="1356.35" y="814.84" width="51.79" height="255.88"/><polygon class="cls-77" points="1408.13 814.84 1356.35 814.84 1390.77 775.28 1408.13 792.65 1408.13 814.84"/><polygon class="cls-76" points="1384.94 775.26 1350.1 814.84 1352.62 814.84 1387.45 775.27 1384.94 775.26"/><polygon class="cls-76" points="1374.19 775.22 1339.32 814.84 1341.84 814.84 1376.7 775.23 1374.19 775.22"/><polygon class="cls-76" points="1363.44 775.18 1328.54 814.84 1331.06 814.84 1365.96 775.19 1363.44 775.18"/><polygon class="cls-76" points="1352.69 775.15 1317.76 814.84 1320.28 814.84 1355.21 775.16 1352.69 775.15"/><polygon class="cls-76" points="1341.95 775.11 1306.97 814.84 1309.49 814.84 1344.46 775.12 1341.95 775.11"/><polygon class="cls-76" points="1331.2 775.07 1296.19 814.84 1298.71 814.84 1333.71 775.08 1331.2 775.07"/><polygon class="cls-76" points="1320.45 775.03 1285.41 814.84 1287.94 814.84 1322.96 775.04 1320.45 775.03"/><polygon class="cls-76" points="1309.7 775 1274.63 814.84 1277.15 814.84 1312.22 775.01 1309.7 775"/><polygon class="cls-76" points="1298.96 774.96 1263.85 814.84 1266.38 814.84 1301.47 774.97 1298.96 774.96"/><polygon class="cls-76" points="1288.21 774.92 1253.07 814.84 1255.59 814.84 1290.72 774.93 1288.21 774.92"/><polygon class="cls-76" points="1277.46 774.88 1242.29 814.84 1244.81 814.84 1279.97 774.89 1277.46 774.88"/><polygon class="cls-76" points="1266.71 774.85 1231.51 814.84 1234.03 814.84 1269.22 774.86 1266.71 774.85"/><polygon class="cls-76" points="1255.96 774.81 1220.73 814.84 1223.25 814.84 1258.48 774.82 1255.96 774.81"/><polygon class="cls-76" points="1245.21 774.78 1209.95 814.84 1212.47 814.84 1247.73 774.78 1245.21 774.78"/><rect class="cls-75" x="1155.32" y="891.11" width="4.81" height="19.11"/><rect class="cls-75" x="1162.61" y="891.11" width="4.8" height="19.11"/><rect class="cls-75" x="1169.91" y="891.11" width="4.8" height="19.11"/><rect class="cls-75" x="1177.2" y="891.11" width="4.8" height="19.11"/><rect class="cls-75" x="1184.49" y="891.11" width="4.8" height="19.11"/><rect class="cls-75" x="1191.78" y="891.11" width="4.8" height="19.11"/><rect class="cls-75" x="1155.32" y="914.08" width="4.81" height="19.11"/><rect class="cls-75" x="1162.61" y="914.08" width="4.8" height="19.11"/><rect class="cls-75" x="1169.91" y="914.08" width="4.8" height="19.11"/><rect class="cls-75" x="1177.2" y="914.08" width="4.8" height="19.11"/><rect class="cls-75" x="1184.49" y="914.08" width="4.8" height="19.11"/><rect class="cls-75" x="1191.78" y="914.08" width="4.8" height="19.11"/><rect class="cls-75" x="1155.32" y="937.05" width="4.81" height="19.1"/><rect class="cls-75" x="1162.61" y="937.05" width="4.8" height="19.1"/><rect class="cls-75" x="1169.91" y="937.05" width="4.8" height="19.1"/><rect class="cls-75" x="1177.2" y="937.05" width="4.8" height="19.1"/><rect class="cls-75" x="1184.49" y="937.05" width="4.8" height="19.1"/><rect class="cls-75" x="1191.78" y="937.05" width="4.8" height="19.1"/><rect class="cls-75" x="1155.32" y="960.03" width="4.81" height="19.1"/><rect class="cls-75" x="1162.61" y="960.03" width="4.8" height="19.1"/><rect class="cls-75" x="1169.91" y="960.03" width="4.8" height="19.1"/><rect class="cls-75" x="1177.2" y="960.03" width="4.8" height="19.1"/><rect class="cls-75" x="1184.49" y="960.03" width="4.8" height="19.1"/><rect class="cls-75" x="1191.78" y="960.03" width="4.8" height="19.1"/><rect class="cls-75" x="1155.32" y="983" width="4.81" height="19.11"/><rect class="cls-75" x="1162.61" y="983" width="4.8" height="19.11"/><rect class="cls-75" x="1169.91" y="983" width="4.8" height="19.11"/><rect class="cls-75" x="1177.2" y="983" width="4.8" height="19.11"/><rect class="cls-75" x="1184.49" y="983" width="4.8" height="19.11"/><rect class="cls-75" x="1191.78" y="983" width="4.8" height="19.11"/><rect class="cls-75" x="1155.32" y="1005.97" width="4.81" height="19.11"/><rect class="cls-75" x="1162.61" y="1005.97" width="4.8" height="19.11"/><rect class="cls-75" x="1169.91" y="1005.97" width="4.8" height="19.11"/><rect class="cls-75" x="1177.2" y="1005.97" width="4.8" height="19.11"/><rect class="cls-75" x="1184.49" y="1005.97" width="4.8" height="19.11"/><rect class="cls-75" x="1191.78" y="1005.97" width="4.8" height="19.11"/><rect class="cls-75" x="1155.32" y="1028.95" width="4.81" height="19.1"/><rect class="cls-75" x="1162.61" y="1028.95" width="4.8" height="19.1"/><rect class="cls-75" x="1169.91" y="1028.95" width="4.8" height="19.1"/><rect class="cls-75" x="1177.2" y="1028.95" width="4.8" height="19.1"/><rect class="cls-75" x="1184.49" y="1028.95" width="4.8" height="19.1"/><rect class="cls-75" x="1191.78" y="1028.95" width="4.8" height="19.1"/><rect class="cls-75" x="1221.66" y="824.09" width="7.19" height="28.63"/><rect class="cls-75" x="1232.59" y="824.09" width="7.2" height="28.63"/><rect class="cls-75" x="1243.52" y="824.09" width="7.2" height="28.63"/><rect class="cls-75" x="1254.45" y="824.09" width="7.2" height="28.63"/><rect class="cls-75" x="1265.38" y="824.09" width="7.2" height="28.63"/><rect class="cls-75" x="1276.31" y="824.09" width="7.2" height="28.63"/><rect class="cls-75" x="1221.66" y="858.52" width="7.19" height="28.63"/><rect class="cls-75" x="1232.59" y="858.52" width="7.2" height="28.63"/><rect class="cls-75" x="1243.52" y="858.52" width="7.2" height="28.63"/><rect class="cls-75" x="1254.45" y="858.52" width="7.2" height="28.63"/><rect class="cls-75" x="1265.38" y="858.52" width="7.2" height="28.63"/><rect class="cls-75" x="1276.31" y="858.52" width="7.2" height="28.63"/><rect class="cls-75" x="1221.66" y="892.95" width="7.19" height="28.63"/><rect class="cls-75" x="1232.59" y="892.95" width="7.2" height="28.63"/><rect class="cls-75" x="1243.52" y="892.95" width="7.2" height="28.63"/><rect class="cls-75" x="1254.45" y="892.95" width="7.2" height="28.63"/><rect class="cls-75" x="1265.38" y="892.95" width="7.2" height="28.63"/><rect class="cls-75" x="1276.31" y="892.95" width="7.2" height="28.63"/><rect class="cls-75" x="1221.66" y="927.39" width="7.19" height="28.63"/><rect class="cls-75" x="1232.59" y="927.39" width="7.2" height="28.63"/><rect class="cls-75" x="1243.52" y="927.39" width="7.2" height="28.63"/><rect class="cls-75" x="1254.45" y="927.39" width="7.2" height="28.63"/><rect class="cls-75" x="1265.38" y="927.39" width="7.2" height="28.63"/><rect class="cls-75" x="1276.31" y="927.39" width="7.2" height="28.63"/><rect class="cls-75" x="1221.66" y="961.82" width="7.19" height="28.63"/><rect class="cls-75" x="1232.59" y="961.82" width="7.2" height="28.63"/><rect class="cls-75" x="1243.52" y="961.82" width="7.2" height="28.63"/><rect class="cls-75" x="1254.45" y="961.82" width="7.2" height="28.63"/><rect class="cls-75" x="1265.38" y="961.82" width="7.2" height="28.63"/><rect class="cls-75" x="1276.31" y="961.82" width="7.2" height="28.63"/><rect class="cls-75" x="1221.66" y="996.24" width="7.19" height="28.63"/><rect class="cls-75" x="1232.59" y="996.24" width="7.2" height="28.63"/><rect class="cls-75" x="1243.52" y="996.24" width="7.2" height="28.63"/><rect class="cls-75" x="1254.45" y="996.24" width="7.2" height="28.63"/><rect class="cls-75" x="1265.38" y="996.24" width="7.2" height="28.63"/><rect class="cls-75" x="1276.31" y="996.24" width="7.2" height="28.63"/><rect class="cls-75" x="1221.66" y="1030.67" width="7.19" height="28.63"/><rect class="cls-75" x="1232.59" y="1030.67" width="7.2" height="28.63"/><rect class="cls-75" x="1243.52" y="1030.67" width="7.2" height="28.63"/><rect class="cls-75" x="1254.45" y="1030.67" width="7.2" height="28.63"/><rect class="cls-75" x="1265.38" y="1030.67" width="7.2" height="28.63"/><rect class="cls-75" x="1276.31" y="1030.67" width="7.2" height="28.63"/><rect class="cls-75" x="1292.04" y="824.09" width="7.2" height="28.63"/><rect class="cls-75" x="1302.97" y="824.09" width="7.2" height="28.63"/><rect class="cls-75" x="1313.9" y="824.09" width="7.2" height="28.63"/><rect class="cls-75" x="1324.83" y="824.09" width="7.19" height="28.63"/><rect class="cls-75" x="1335.76" y="824.09" width="7.2" height="28.63"/><rect class="cls-75" x="1346.69" y="824.09" width="7.2" height="28.63"/><rect class="cls-75" x="1292.04" y="858.52" width="7.2" height="28.63"/><rect class="cls-75" x="1302.97" y="858.52" width="7.2" height="28.63"/><rect class="cls-75" x="1313.9" y="858.52" width="7.2" height="28.63"/><rect class="cls-75" x="1324.83" y="858.52" width="7.19" height="28.63"/><rect class="cls-75" x="1335.76" y="858.52" width="7.2" height="28.63"/><rect class="cls-75" x="1346.69" y="858.52" width="7.2" height="28.63"/><rect class="cls-75" x="1292.04" y="892.95" width="7.2" height="28.63"/><rect class="cls-75" x="1302.97" y="892.95" width="7.2" height="28.63"/><rect class="cls-75" x="1313.9" y="892.95" width="7.2" height="28.63"/><rect class="cls-75" x="1324.83" y="892.95" width="7.19" height="28.63"/><rect class="cls-75" x="1335.76" y="892.95" width="7.2" height="28.63"/><rect class="cls-75" x="1346.69" y="892.95" width="7.2" height="28.63"/><rect class="cls-75" x="1292.04" y="927.39" width="7.2" height="28.63"/><rect class="cls-75" x="1302.97" y="927.39" width="7.2" height="28.63"/><rect class="cls-75" x="1313.9" y="927.39" width="7.2" height="28.63"/><rect class="cls-75" x="1324.83" y="927.39" width="7.19" height="28.63"/><rect class="cls-75" x="1335.76" y="927.39" width="7.2" height="28.63"/><rect class="cls-75" x="1346.69" y="927.39" width="7.2" height="28.63"/><rect class="cls-75" x="1292.04" y="961.82" width="7.2" height="28.63"/><rect class="cls-75" x="1302.97" y="961.82" width="7.2" height="28.63"/><rect class="cls-75" x="1313.9" y="961.82" width="7.2" height="28.63"/><rect class="cls-75" x="1324.83" y="961.82" width="7.19" height="28.63"/><rect class="cls-75" x="1335.76" y="961.82" width="7.2" height="28.63"/><rect class="cls-75" x="1346.69" y="961.82" width="7.2" height="28.63"/><rect class="cls-75" x="1292.04" y="996.24" width="7.2" height="28.63"/><rect class="cls-75" x="1302.97" y="996.24" width="7.2" height="28.63"/><rect class="cls-75" x="1313.9" y="996.24" width="7.2" height="28.63"/><rect class="cls-75" x="1324.83" y="996.24" width="7.19" height="28.63"/><rect class="cls-75" x="1335.76" y="996.24" width="7.2" height="28.63"/><rect class="cls-75" x="1346.69" y="996.24" width="7.2" height="28.63"/><rect class="cls-75" x="1292.04" y="1030.67" width="7.2" height="28.63"/><rect class="cls-75" x="1302.97" y="1030.67" width="7.2" height="28.63"/><rect class="cls-75" x="1313.9" y="1030.67" width="7.2" height="28.63"/><rect class="cls-75" x="1324.83" y="1030.67" width="7.19" height="28.63"/><rect class="cls-75" x="1335.76" y="1030.67" width="7.2" height="28.63"/><rect class="cls-75" x="1346.69" y="1030.67" width="7.2" height="28.63"/><polygon class="cls-76" points="1504.04 1070.11 1465 1070.11 1465 753.11 1504.04 736.56 1504.04 1070.11"/><polygon class="cls-32" points="1545.3 775.08 1504.04 736.56 1504.04 1070.11 1546.28 1070.11 1545.3 775.08"/><rect class="cls-78" x="1441.5" y="761.83" width="23.5" height="308.28"/><rect class="cls-75" x="1375.78" y="751.41" width="68.14" height="318.7"/><rect class="cls-77" x="1361.88" y="749.1" width="86.96" height="3"/><rect class="cls-77" x="1443.92" y="760.32" width="21.08" height="3"/><polygon class="cls-77" points="1546.86 777.55 1503.74 738.32 1465.58 754.49 1464.41 751.73 1504.34 734.81 1548.88 775.33 1546.86 777.55"/><rect class="cls-77" x="1485.69" y="757.08" width="9.82" height="21.28"/><rect class="cls-77" x="1475.66" y="802.26" width="8.86" height="18.75"/><rect class="cls-77" x="1485.69" y="844.83" width="4.91" height="19.46"/><rect class="cls-79" x="1413.66" y="768.17" width="16.17" height="18.42"/><rect class="cls-79" x="1380.49" y="793.78" width="65.24" height="6.01"/><rect class="cls-79" x="1381.04" y="810.22" width="65.24" height="6.01"/><rect class="cls-79" x="1381.59" y="826.65" width="65.24" height="6"/><rect class="cls-79" x="1382.15" y="843.09" width="65.24" height="6"/><rect class="cls-79" x="1382.69" y="859.52" width="65.24" height="6.01"/><rect class="cls-79" x="1383.25" y="875.95" width="65.24" height="6"/><rect class="cls-79" x="1383.8" y="892.38" width="65.24" height="6.01"/><rect class="cls-79" x="1384.35" y="908.82" width="65.24" height="6.01"/><rect class="cls-79" x="1384.9" y="925.25" width="65.24" height="6"/><rect class="cls-79" x="1385.44" y="941.68" width="65.24" height="6"/><rect class="cls-79" x="1386" y="958.12" width="65.24" height="6.01"/><rect class="cls-79" x="1386.55" y="974.55" width="65.24" height="6"/><rect class="cls-79" x="1387.1" y="990.98" width="65.24" height="6.01"/><rect class="cls-79" x="1387.65" y="1007.42" width="65.24" height="6.01"/><rect class="cls-79" x="1388.2" y="1023.85" width="65.24" height="6.01"/><rect class="cls-79" x="1388.75" y="1040.28" width="65.24" height="6.01"/><rect class="cls-80" x="793.63" y="1066.14" width="929.75" height="17.53"/></g></g></svg>